<svg width="128" height="119" viewBox="0 0 128 119" fill="none" xmlns="http://www.w3.org/2000/svg">
<path d="M34.8819 29.5576C23.882 49.0576 14.882 96.0576 18.882 107.058" stroke="#EBBAAA" stroke-width="18.5" stroke-linecap="round" stroke-linejoin="bevel"/>
<path d="M92.8819 29.5576C103.882 49.0576 112.882 96.0576 108.882 107.058" stroke="#EBBAAA" stroke-width="18.5" stroke-linecap="round" stroke-linejoin="bevel"/>
<rect x="25.8819" y="5.55762" width="42.5" height="100" rx="21.25" transform="rotate(15 25.8819 5.55762)" fill="#BA917A"/>
<rect width="42.5" height="100" rx="21.25" transform="matrix(-0.965926 0.258819 0.258819 0.965926 101.882 5.55762)" fill="#BA917A"/>
<path d="M25.6706 21.7244C26.0959 16.3866 29.8739 11.9124 35.0649 10.5989L63.8819 3.30762L92.6989 10.5989C97.8899 11.9124 101.668 16.3866 102.093 21.7244L106.382 75.5576L102.632 101.558L100.857 104.575C100.408 105.339 99.5879 105.808 98.7021 105.808H27.6319L25.1319 101.558L21.3819 75.5576L25.6706 21.7244Z" fill="#5F5F61"/>
<path d="M64.0494 25C70.9529 25 76.5494 19.4035 76.5494 12.5C76.5494 5.59625 70.9529 0 64.0494 0C57.1459 0 51.5494 5.59625 51.5494 12.5C51.5494 19.4035 57.1459 25 64.0494 25Z" fill="#BA917A"/>
<path d="M28.8819 105.808H98.8819L100.784 115.317C101.093 116.864 99.9099 118.308 98.3324 118.308H29.4314C27.8539 118.308 26.6706 116.864 26.9799 115.317L28.8819 105.808Z" fill="#BA917A"/>
</svg>
