<svg width="115" height="130" viewBox="0 0 115 130" fill="none" xmlns="http://www.w3.org/2000/svg">
<path d="M14.4575 24.8988C18.1506 16.9163 23.4599 14.75 23.4599 14.75L26.75 58.6147V124.75C-9.19033 113.677 -4.29268 65.4255 14.4575 24.8988Z" fill="#454B5E"/>
<path d="M100.042 24.8988C96.3495 16.9163 91.0403 14.75 91.0403 14.75L87.75 58.6147V124.75C123.69 113.677 118.793 65.4255 100.042 24.8988Z" fill="#454B5E"/>
<path d="M57.25 26.25C76.0278 26.25 91.25 20.3738 91.25 13.125C91.25 5.87625 76.0278 0 57.25 0C38.4722 0 23.25 5.87625 23.25 13.125C23.25 20.3738 38.4722 26.25 57.25 26.25Z" fill="#35383E"/>
<path d="M20.6554 33.943C20.0637 22.0475 27.946 11.3862 39.4923 8.46475L57.138 4L74.7838 8.46475C86.33 11.3862 94.2122 22.0475 93.6205 33.943L92.138 63.75L94.5235 118.141C94.586 119.563 93.4498 120.75 92.026 120.75H22.2501C20.8264 120.75 19.6901 119.563 19.7525 118.141L22.138 63.75L20.6554 33.943Z" fill="#DADADA"/>
<path fill-rule="evenodd" clip-rule="evenodd" d="M39.4999 41.4567L39.4998 41.625L39.4999 41.7933C39.5014 43.2445 39.5028 44.595 38.4703 45.6174C37.7268 46.3536 36.8689 46.75 35.625 46.75C34.3811 46.75 33.5232 46.3536 32.7797 45.6174C31.7472 44.595 31.7486 43.2445 31.7501 41.7933L31.7502 41.625L31.7501 41.4567C31.7486 40.0055 31.7472 38.655 32.7797 37.6326C33.5232 36.8964 34.3811 36.5 35.625 36.5C36.8689 36.5 37.7268 36.8964 38.4703 37.6326C39.5028 38.655 39.5014 40.0055 39.4999 41.4567ZM30.25 36.75V46.75H28.0486L24.768 41.7219V46.75H22.25V36.75H24.4514L27.732 41.7781V36.75H30.25ZM37 41.625C37 43.4393 36.8568 43.7603 36.6276 44.0534C36.4414 44.2907 36.0833 44.5 35.625 44.5C35.1667 44.5 34.8086 44.2907 34.6224 44.0534C34.3932 43.7603 34.25 43.4393 34.25 41.625C34.25 39.8107 34.3932 39.4757 34.6224 39.1826C34.8086 38.9454 35.1667 38.75 35.625 38.75C36.0833 38.75 36.4414 38.9454 36.6276 39.1826C36.8568 39.4757 37 39.8107 37 41.625ZM47.0617 42.5787L49.25 46.75H46.3655L44.575 43.0281H43.7367V46.75H41.25V36.75H45.2571C47.5022 36.75 48.71 38.323 48.71 39.9663C48.71 41.3287 47.8575 42.1854 47.0617 42.5787ZM46.25 39.75C46.25 40.2639 45.85 40.75 45.1643 40.75H43.75V38.75H45.1643C45.85 38.75 46.25 39.2361 46.25 39.75ZM57.25 44.559V46.75H50.5V36.75H52.9921V44.559H57.25ZM66.248 41.3306L66.248 41.3298C66.2583 39.9464 66.2669 38.7933 65.1994 37.7331C64.5063 37.0449 63.5304 36.75 62.4838 36.75H58.75V46.75H62.4838C63.5304 46.75 64.5063 46.4551 65.1994 45.7669C66.2669 44.7067 66.2583 43.5536 66.248 42.1702L66.248 42.1694C66.247 42.0319 66.246 41.8922 66.246 41.75C66.246 41.6078 66.247 41.4681 66.248 41.3306ZM63.4861 43.925C63.6806 43.6375 63.75 43.3644 63.75 41.625C63.75 39.9 63.6806 39.6125 63.4861 39.325C63.2639 38.98 62.9306 38.75 62.3194 38.75H61.25V44.5H62.3194C62.9306 44.5 63.2639 44.27 63.4861 43.925ZM74.5 38.941V36.75H67V38.941H69.5V46.75H72V38.941H74.5ZM82.9999 41.4567L82.9998 41.625L82.9999 41.7934C83.0014 43.2445 83.0028 44.595 81.9703 45.6174C81.2268 46.3536 80.3689 46.75 79.125 46.75C77.8811 46.75 77.0232 46.3536 76.2797 45.6174C75.2472 44.595 75.2486 43.2445 75.2501 41.7933L75.2502 41.625L75.2501 41.4566C75.2486 40.0055 75.2472 38.655 76.2797 37.6326C77.0232 36.8964 77.8811 36.5 79.125 36.5C80.3689 36.5 81.2268 36.8964 81.9703 37.6326C83.0028 38.655 83.0014 40.0055 82.9999 41.4567ZM80.5 41.625C80.5 43.4393 80.3568 43.7603 80.1276 44.0534C79.9414 44.2907 79.5833 44.5 79.125 44.5C78.6667 44.5 78.3086 44.2907 78.1224 44.0534C77.8932 43.7603 77.75 43.4393 77.75 41.625C77.75 39.8107 77.8932 39.4757 78.1224 39.1826C78.3086 38.9454 78.6667 38.75 79.125 38.75C79.5833 38.75 79.9414 38.9454 80.1276 39.1826C80.3568 39.4757 80.5 39.8107 80.5 41.625ZM89.4454 43.4655H92C91.6269 45.6882 90.0626 46.75 88.1251 46.75C86.934 46.75 86.0298 46.3536 85.2835 45.6174C84.2472 44.595 84.2486 43.2445 84.2501 41.7933C84.2502 41.7374 84.2502 41.6813 84.2502 41.625C84.2502 41.5687 84.2502 41.5126 84.2501 41.4567C84.2486 40.0055 84.2472 38.655 85.2835 37.6326C86.0298 36.8964 86.934 36.5 88.1251 36.5C90.0626 36.5 91.6269 37.5618 92 39.7845H89.4454C89.2876 39.2182 88.9719 38.7086 88.1395 38.7086C87.6802 38.7086 87.3358 38.8926 87.1492 39.1333C86.9196 39.4306 86.7617 39.7845 86.7617 41.625C86.7617 43.4655 86.9196 43.8194 87.1492 44.1167C87.3358 44.3574 87.6802 44.5414 88.1395 44.5414C88.9719 44.5414 89.2876 44.0318 89.4454 43.4655Z" fill="black"/>
<path d="M96.9977 61.5289C92.2315 46.8962 105.247 29.0117 90.7482 14.5039C90.7482 14.5039 77.6243 5.12395 66 6.87495C76.7493 12.5029 81.249 23.7589 77.0288 54.0249C75.6338 64.0302 82.3225 78.3269 77.0288 93.7959C69.6248 115.432 68.9998 125.106 77.0288 128.314C83.6238 130.95 85.6335 127.28 96.9977 119.059C102.974 114.736 103.027 80.0387 96.9977 61.5289Z" fill="#343844"/>
<path d="M89.9617 15.4157C90.1463 15.3218 90.372 15.3954 90.4659 15.5801C90.5597 15.7647 90.4861 15.9904 90.3014 16.0843C87.4785 17.5189 84.6414 21.2162 82.855 26.4155C80.6457 32.8457 80.1218 41.0903 81.703 50.8914L81.7515 51.1889C83.3927 61.1269 83.5946 72.1357 82.6365 83.3942L82.5845 83.992C81.833 92.4538 80.4459 100.589 78.9953 106.091C77.9245 110.374 77.2273 114.451 77.1439 118.109C77.0313 123.05 78.0982 126.477 80.5712 127.926C80.7499 128.031 80.8098 128.261 80.7051 128.44C80.6003 128.618 80.3706 128.678 80.1919 128.573C77.4183 126.948 76.2759 123.278 76.3941 118.091C76.479 114.368 77.1846 110.242 78.2689 105.904L78.3705 105.514C79.808 99.9273 81.1714 91.7653 81.8892 83.3306C82.8289 72.2877 82.647 61.4902 81.0796 51.7288L81.0116 51.3111C79.352 41.2618 79.8716 32.7904 82.1457 26.1718C83.991 20.801 86.9484 16.947 89.9617 15.4157Z" fill="#78819C"/>
<path d="M17.5022 61.5289C22.2685 46.8962 9.2527 29.0117 23.7517 14.5039C23.7517 14.5039 36.8757 5.12395 48.5 6.87495C37.7507 12.5029 33.251 23.7589 37.4713 54.0249C38.8663 64.0302 32.1775 78.3269 37.4713 93.7959C44.8753 115.432 45.5003 125.106 37.4713 128.314C30.8763 130.95 28.8665 127.28 17.5022 119.059C11.5257 114.736 11.4729 80.0387 17.5022 61.5289Z" fill="#343844"/>
<path d="M24.0342 15.5801C24.128 15.3954 24.3537 15.3218 24.5384 15.4156C27.5517 16.947 30.5091 20.801 32.3544 26.1718C34.6057 32.7242 35.1374 41.0925 33.5376 51.0101L33.4885 51.3111C31.8585 61.1817 31.6577 72.1299 32.6109 83.3306L32.6632 83.9324C33.4112 92.3505 34.7909 100.441 36.2323 105.909C37.3155 110.242 38.021 114.368 38.1059 118.091C38.2241 123.278 37.0818 126.948 34.3082 128.573C34.1295 128.678 33.8997 128.618 33.795 128.44C33.6903 128.261 33.7502 128.031 33.9289 127.926C36.4019 126.477 37.4687 123.05 37.3561 118.109C37.2728 114.451 36.5755 110.374 35.5059 106.096C34.02 100.46 32.6019 92.0695 31.8636 83.3942C30.919 72.2943 31.1019 61.437 32.68 51.6094L32.7485 51.1889C34.3886 41.2571 33.8767 32.9107 31.6451 26.4155C29.8587 21.2162 27.0216 17.5189 24.1986 16.0843C24.014 15.9904 23.9404 15.7647 24.0342 15.5801Z" fill="#78819C"/>
</svg>
