<svg width="132" height="123" viewBox="0 0 132 123" fill="none" xmlns="http://www.w3.org/2000/svg">
<path d="M14.6144 45.2924C16.9382 40.7429 22.5102 38.9386 27.0597 41.2624C31.5637 43.5629 33.3771 49.047 31.1582 53.5708L31.0897 53.7076C27.8681 60.0149 24.4669 72.7283 22.6905 85.0357L22.6371 85.4085C21.7792 91.4606 21.3983 96.8739 21.5501 100.806L21.5632 101.112C21.6218 102.365 21.7344 103.383 21.8742 104.102L21.889 104.177L21.8968 104.186C24.5236 107.193 24.977 111.672 22.75 115.202L22.6674 115.331C19.8717 119.607 14.1391 120.806 9.86334 118.011C6.80775 116.013 5.13731 113.093 4.15627 109.529C3.52256 107.226 3.18156 104.567 3.06391 101.52C2.8673 96.4271 3.30433 90.0862 4.27148 83.1587L4.32028 82.8119C6.34374 68.538 10.2684 53.8011 14.6144 45.2924Z" fill="#EBBAAA"/>
<path d="M99.9729 34.9434C104.422 32.4334 110.064 34.0057 112.574 38.4552C118.498 48.9573 122.871 63.7957 125.129 79.3046C127.278 94.0727 127.234 107.428 124.53 114.864C122.784 119.665 117.477 122.142 112.676 120.396C107.923 118.668 105.448 113.449 107.093 108.686L107.144 108.542C108.527 104.738 108.563 93.9318 106.822 81.9692C104.866 68.5329 101.109 55.7836 96.4611 47.5447C93.9511 43.0952 95.5234 37.4534 99.9729 34.9434Z" fill="#EBBAAA"/>
<rect x="54" y="0.5" width="20" height="37" rx="9.74753" fill="#EBBAAA"/>
<path d="M53.7944 25.6708C54.5044 25.6708 55.0799 25.0952 55.0799 24.3852C55.0799 23.6752 54.5044 23.0996 53.7944 23.0996C53.0844 23.0996 52.5088 23.6752 52.5088 24.3852C52.5088 25.0952 53.0844 25.6708 53.7944 25.6708Z" fill="#E5EBF9"/>
<path d="M62.7676 21.5C61.8814 19.875 62.2676 15.375 62.2676 15.375L56.7364 14.9178L48.8926 4.5C41.1009 5.875 40.7676 6.375 35.1426 8.875C28.4324 11.8572 29.7676 21.875 28.7676 35.5L31.7676 112.625L47.1426 114.918L59.8614 115.168L63.3926 27.375C63.3926 27.375 63.6539 23.125 62.7676 21.5Z" fill="#DEDEE2"/>
<path d="M63.0176 25.25C63.2676 23.25 63.6426 20.875 65.2676 19.25C66.8926 17.625 68.6426 15.75 68.6426 15.75H74.0959L81.8459 5.25C81.8459 5.25 92.9706 6.75 96.7206 8.75C100.471 10.75 102.721 32.625 102.721 32.625L101.643 112.625L94.9706 115.25H60.8456C59.3459 88 62.5956 36.2925 62.5956 32.625C62.5956 31.0428 62.7676 27.25 63.0176 25.25Z" fill="#DEDEE2"/>
<mask id="mask0_21_495" style="mask-type:alpha" maskUnits="userSpaceOnUse" x="60" y="6" width="45" height="111">
<path fill-rule="evenodd" clip-rule="evenodd" d="M63.0646 21.7928C63.3146 19.7928 63.4396 18.9178 63.9396 17.7928L68.2206 17.25H74.0959L81.8459 6.75C81.8459 6.75 92.9706 8.25 96.7206 10.25C100.471 12.25 102.721 34.125 102.721 34.125L104.471 114.125L94.9706 116.75H60.8456C59.3459 89.5 62.5954 37.7925 62.5956 34.125C62.5956 32.5428 62.8146 23.7928 63.0646 21.7928Z" fill="white"/>
</mask>
<g mask="url(#mask0_21_495)">
<path d="M68.7676 67.125C68.8676 57.625 70.9601 22.625 68.5851 13.75C68.5851 13.75 66.9049 15.5605 65.2101 17.125C63.5151 18.6895 63.2101 21.375 63.2101 21.375V21.5L57.7676 115.125H68.7676C68.5176 102.958 68.6676 76.625 68.7676 67.125Z" fill="#CDCBD6"/>
<path d="M68.7676 67.125C68.8676 57.625 70.9601 22.625 68.5851 13.75C68.5851 13.75 66.9049 15.5605 65.2101 17.125C63.5151 18.6895 63.2101 21.375 63.2101 21.375V21.5L57.7676 115.125H68.7676C68.5176 102.958 68.6676 76.625 68.7676 67.125Z" fill="#CDCBD6"/>
<path fill-rule="evenodd" clip-rule="evenodd" d="M77.3539 18.5966L77.1039 18.5957L76.7524 116.951L77.0024 116.952L77.3539 18.5966ZM75.2301 18.6628L75.4801 18.6637L75.1284 117.018L74.8784 117.018L75.2301 18.6628ZM73.3566 18.7402L73.1066 18.7393L72.7549 117.094L73.0049 117.095L73.3566 18.7402ZM71.2329 18.8161L70.9829 18.8152L70.6311 117.17L70.8811 117.171L71.2329 18.8161Z" fill="black" fill-opacity="0.32"/>
<path fill-rule="evenodd" clip-rule="evenodd" d="M61.6634 119.824L62.0151 21.4688L62.2651 21.4698L61.9134 119.825L61.6634 119.824ZM63.7871 119.748L64.1389 21.3928L64.3889 21.3936L64.0371 119.749L63.7871 119.748ZM65.9106 119.671L66.2624 21.3164L66.5124 21.3174L66.1606 119.672L65.9106 119.671ZM67.7846 119.604L68.1361 21.2495L68.3861 21.2503L68.0346 119.605L67.7846 119.604Z" fill="black" fill-opacity="0.13"/>
</g>
<path d="M66.3926 26.25C67.152 26.25 67.7676 25.6344 67.7676 24.875C67.7676 24.1156 67.152 23.5 66.3926 23.5C65.6332 23.5 65.0176 24.1156 65.0176 24.875C65.0176 25.6344 65.6332 26.25 66.3926 26.25Z" fill="#BAB8C6"/>
<path d="M66.1426 33.75C66.902 33.75 67.5176 33.1344 67.5176 32.375C67.5176 31.6156 66.902 31 66.1426 31C65.3832 31 64.7676 31.6156 64.7676 32.375C64.7676 33.1344 65.3832 33.75 66.1426 33.75Z" fill="#BAB8C6"/>
<path d="M65.8926 45.75C66.652 45.75 67.2676 45.0784 67.2676 44.25C67.2676 43.4216 66.652 42.75 65.8926 42.75C65.1332 42.75 64.5176 43.4216 64.5176 44.25C64.5176 45.0784 65.1332 45.75 65.8926 45.75Z" fill="#BAB8C6"/>
<path d="M65.3926 58.75C66.152 58.75 66.7676 58.1344 66.7676 57.375C66.7676 56.6156 66.152 56 65.3926 56C64.6332 56 64.0176 56.6156 64.0176 57.375C64.0176 58.1344 64.6332 58.75 65.3926 58.75Z" fill="#BAB8C6"/>
<path d="M65.3926 72C66.152 72 66.7676 71.3844 66.7676 70.625C66.7676 69.8656 66.152 69.25 65.3926 69.25C64.6332 69.25 64.0176 69.8656 64.0176 70.625C64.0176 71.3844 64.6332 72 65.3926 72Z" fill="#BAB8C6"/>
<path d="M65.3926 86.5C66.152 86.5 66.7676 85.8844 66.7676 85.125C66.7676 84.3656 66.152 83.75 65.3926 83.75C64.6332 83.75 64.0176 84.3656 64.0176 85.125C64.0176 85.8844 64.6332 86.5 65.3926 86.5Z" fill="#BAB8C6"/>
<path d="M65.3926 99.75C66.152 99.75 66.7676 99.1344 66.7676 98.375C66.7676 97.6156 66.152 97 65.3926 97C64.6332 97 64.0176 97.6156 64.0176 98.375C64.0176 99.1344 64.6332 99.75 65.3926 99.75Z" fill="#BAB8C6"/>
<mask id="mask1_21_495" style="mask-type:alpha" maskUnits="userSpaceOnUse" x="28" y="4" width="36" height="112">
<path fill-rule="evenodd" clip-rule="evenodd" d="M62.7672 21.5C61.8809 19.875 62.2672 15.375 62.2672 15.375L56.7359 14.9178L48.8922 4.5C41.1004 5.875 40.7672 6.375 35.1422 8.875C28.4319 11.8572 29.7672 21.875 28.7672 35.5L31.7672 112.625L47.1422 114.918L59.8609 115.168L63.3922 27.375C63.3922 27.375 63.6534 23.125 62.7672 21.5Z" fill="white"/>
</mask>
<g mask="url(#mask1_21_495)">
<path fill-rule="evenodd" clip-rule="evenodd" d="M55.2673 18.0051L55.0175 17.9951L51.1425 115.37L51.3923 115.38L55.2673 18.0051ZM57.1424 17.9951L57.3922 18.0051L53.5172 115.38L53.2674 115.37L57.1424 17.9951ZM59.5172 18.0051L59.2674 17.9951L55.3924 115.37L55.6422 115.38L59.5172 18.0051ZM61.3922 18.0051L61.1424 17.9951L57.2674 115.37L57.5172 115.38L61.3922 18.0051Z" fill="black" fill-opacity="0.32"/>
</g>
<path d="M62.5531 20.125C62.1531 19.125 62.1424 16.7083 62.2674 15.375C60.6006 15.8332 57.6419 16.925 59.1419 17.625C60.6419 18.325 62.6369 22.0417 63.4286 23.875C63.2619 23.1668 62.9531 21.125 62.5531 20.125Z" fill="#CDCBD6"/>
<path d="M55.3929 9.125C53.8751 6.469 54.3929 3.75 54.1999 0.75L48.4811 3.58225C48.4811 3.58225 46.4816 6.58225 47.7311 13.8322C48.5929 18.8322 46.3929 22.75 52.8929 26.625C53.6429 20 61.0151 16.5375 62.2679 15.375C59.8929 14.125 57.3929 12.625 55.3929 9.125Z" fill="#CDCBD6"/>
<mask id="mask2_21_495" style="mask-type:alpha" maskUnits="userSpaceOnUse" x="47" y="0" width="16" height="27">
<path fill-rule="evenodd" clip-rule="evenodd" d="M55.3926 9.125C53.8749 6.469 54.3926 3.75 54.1999 0.75L48.4811 3.58225C48.4811 3.58225 46.4814 6.58225 47.7311 13.8322C48.5926 18.8322 46.3926 22.75 52.8926 26.625C53.6426 20 61.0149 16.5375 62.2676 15.375C59.8926 14.125 57.3926 12.625 55.3926 9.125Z" fill="white"/>
</mask>
<g mask="url(#mask2_21_495)">
<path d="M54.3217 0.75C51.9135 3.07775 50.5122 4.93975 51.6945 10.3193C52.8767 15.6988 55.8722 18.9797 56.7675 19.75" stroke="black" stroke-opacity="0.12" stroke-width="0.25"/>
<path d="M50.9912 2C48.6212 4.30975 48.6117 7.304 49.7752 12.642C50.9384 17.98 53.8864 21.2358 54.7674 22" stroke="black" stroke-opacity="0.12" stroke-width="0.25"/>
<path d="M56.7524 -0.25C54.3989 2.0165 53.0294 3.8295 54.1849 9.0675C55.3404 14.3055 58.2677 17.5 59.1427 18.25" stroke="black" stroke-opacity="0.12" stroke-width="0.25"/>
<path d="M59.2524 -0.5C56.8989 1.7665 55.5294 3.5795 56.6849 8.8175C57.8404 14.0555 60.7677 17.25 61.6427 18" stroke="black" stroke-opacity="0.12" stroke-width="0.25"/>
</g>
<path d="M67.5176 20.2503C70.2676 18.7503 72.6426 18.1253 74.1426 17.0003C73.6426 14.7003 70.0176 15.2503 68.6426 15.7503C68.2259 16.292 67.0426 17.6503 65.6426 18.7503C64.2426 19.8503 63.4344 22.292 63.2676 23.3753C63.8509 23.042 65.8311 21.1703 67.5176 20.2503Z" fill="#CDCBD6"/>
<path d="M73.2674 8.875C74.1271 6.031 74.0749 1.375 74.0749 0L81.3561 3.58225C81.3561 3.58225 82.8561 6.95725 81.3561 13.8322C79.7129 21.364 78.1066 18.5 76.3924 20.5C74.6424 17.5 72.1424 15.75 68.5174 15.75C72.0174 12.75 72.5116 11.375 73.2674 8.875Z" fill="#CDCBD6"/>
<mask id="mask3_21_495" style="mask-type:alpha" maskUnits="userSpaceOnUse" x="68" y="0" width="15" height="21">
<path fill-rule="evenodd" clip-rule="evenodd" d="M73.2672 8.875C74.1269 6.031 74.0747 1.375 74.0747 0L81.3559 3.58225C81.3559 3.58225 82.8559 6.95725 81.3559 13.8322C79.7127 21.364 78.1064 18.5 76.3922 20.5C74.6422 17.5 72.1422 15.75 68.5172 15.75C72.0172 12.75 72.5114 11.375 73.2672 8.875Z" fill="white"/>
</mask>
<g mask="url(#mask3_21_495)">
<path d="M74.8924 0.375C76.7256 2.625 77.7924 4.425 76.8924 9.625C75.9924 14.825 73.9341 17.5 73.5174 17.5" stroke="black" stroke-opacity="0.12" stroke-width="0.25"/>
<path d="M72.8922 -1.25C74.7254 1 75.7922 2.8 74.8922 8C73.9922 13.2 71.9339 15.875 71.5172 15.875" stroke="black" stroke-opacity="0.12" stroke-width="0.25"/>
<path d="M76.6424 1.75C78.4756 4 79.5424 5.8 78.6424 11C77.7424 16.2 75.6841 18.875 75.2674 18.875" stroke="black" stroke-opacity="0.12" stroke-width="0.25"/>
</g>
<path d="M72.8499 16.7576L72.935 16.9926L72.6529 17.0961C68.98 18.4605 65.112 20.5698 63.7944 22.3771L63.745 22.4465L63.5398 22.3037C64.8468 20.4248 68.7974 18.2615 72.5642 16.8623L72.8499 16.7576Z" fill="black" fill-opacity="0.12"/>
<path d="M72.3442 15.8848L72.4407 16.1154C69.6657 17.2769 66.3566 18.9739 64.6866 20.2758L64.5955 20.3477L64.4393 20.1525C66.0708 18.8473 69.3746 17.1397 72.1883 15.9503L72.3442 15.8848Z" fill="black" fill-opacity="0.12"/>
<path d="M71.2133 15.1372L71.3215 15.3626L71.1141 15.4656C70.8333 15.6103 70.5069 15.8008 69.7912 16.2336L68.6915 16.8996C67.9193 17.3634 67.4287 17.6394 67.0357 17.822L66.9431 17.8641L66.8416 17.6357L66.9317 17.5947C67.33 17.4095 67.8394 17.1212 68.6586 16.6277L70.1387 15.7328C70.5827 15.4678 70.8252 15.3311 71.0544 15.2154L71.2133 15.1372Z" fill="black" fill-opacity="0.12"/>
<path d="M57.9762 44.7458C56.4394 42.9465 53.3664 36.999 52.0859 34.5C50.8479 60.5312 50.1402 116.517 53.1112 116.717C56.8247 116.967 67.5802 118.216 68.3484 115.717C69.1167 113.218 67.0677 55.4915 66.2992 53.1175C65.5307 50.7435 59.8969 46.995 57.9762 44.7458Z" fill="#273447"/>
<path d="M70.5179 44.75C72.0179 42.95 75.0179 37 76.2679 34.5C77.4764 60.5417 78.1674 116.55 75.2671 116.75C71.6419 117 61.1424 118.25 60.3924 115.75C59.6424 113.25 61.6426 55.5 62.3929 53.125C63.1431 50.75 68.6429 47 70.5179 44.75Z" fill="#2B394D"/>
<path d="M77.0174 25.625C78.4146 17.7127 82.8924 2.82925 75.3249 0.375C75.3249 0.375 81.7591 2.233 91.9501 6.125C102.141 10.017 104.014 16.9575 104.014 16.9575C106.275 21.5873 108.879 43.0025 109.517 69.5C110.156 95.9975 108.268 105.375 105.267 117.75C99.8921 119.875 86.6424 121.375 73.1424 122.125C73.1424 119.041 72.6424 111.457 72.5174 107C72.3924 102.543 71.9896 94.847 72.1424 75.625C72.2771 58.6642 74.9641 37.2507 77.0174 25.625Z" fill="#5E82AE"/>
<path d="M12.3924 36.625C17.1737 16.3612 19.45 13.375 36.4499 7.125C36.4499 7.125 28.4811 33.9572 28.4811 45.9572C28.4811 57.9572 30.3561 76.7073 30.3561 76.7073C28.6061 87.2073 32.7321 105.75 30.3571 111.375C23.9822 113.375 5.73126 112.875 2.73224 109.25C-0.266785 105.625 -0.731629 96.625 1.01739 83.75C2.76641 70.875 9.76739 47.75 12.3924 36.625Z" fill="#5E82AE"/>
<path d="M54.2676 29.625C53.0053 21.7127 43.6426 8.375 53.4501 0.75C53.4501 0.75 50.2001 2.375 40.0751 5.625C29.9501 8.875 28.2738 17.2075 28.2738 17.2075C26.2313 21.8373 25.5943 43.7525 25.0176 70.25C24.4409 96.7475 22.9546 104 25.0171 115.5C29.8726 117.625 40.4991 119.957 52.5811 121.582C52.5811 118.499 53.5111 113.942 53.5973 110.457C53.8793 99.0797 56.9631 90.695 56.8251 71.4733C56.7033 54.5125 56.1221 41.2507 54.2676 29.625Z" fill="#5E82AE"/>
<path d="M42.0116 111.047C42.0116 102.725 42.5281 98.0655 43.5106 92.407C43.7649 90.9425 36.8211 87.3587 33.3174 85.75L23.1243 87.0815C21.8663 94.4037 21.4455 105.188 23.1243 106.386C25.2229 107.884 37.0646 113.044 42.0116 111.047Z" fill="#577BA6"/>
<path d="M21.2268 86.2396L22.808 81.7605L24.5001 82.3556C33.0764 85.3594 39.1047 87.2727 44.1194 88.3953L44.2809 88.4312L43.2539 93.0689L42.9152 92.9931C37.7588 91.827 31.7352 89.9182 23.2335 86.9448L21.2268 86.2396Z" fill="#4A6A90"/>
<path d="M130.517 82.25C128.642 71.875 126.267 61.25 123.142 51.5C117.52 33.9573 113.587 20.0087 109.575 13.75C106.311 8.65725 95.5749 7.375 92.9499 6.5L104.267 76.875C104.267 88.375 104.017 101.25 103.517 110.625C109.892 112.625 126.392 114.5 129.392 110.625C132.392 106.75 132.392 92.625 130.517 82.25Z" fill="#5E82AE"/>
<path d="M87.2117 114.402C87.2117 105.848 86.6289 101.058 85.5212 95.2417C85.2342 93.7362 102.026 87.1537 105.978 85.5L107.766 87.7167C107.766 97.5 107.87 109.92 105.977 111.151C103.61 112.691 92.7907 116.454 87.2117 114.402Z" fill="#577BA6"/>
<path d="M107.506 84.7505L109.029 89.2495L108.411 89.4573C102.143 91.5483 93.4001 94.0058 86.4938 95.6506L85.8095 95.8123L84.7253 91.1877L85.3963 91.0291C92.1691 89.416 100.775 86.997 106.901 84.9535L107.506 84.7505Z" fill="#4A6A90"/>
<path d="M127.574 107.318C128.228 107.1 128.564 106.339 128.324 105.618C128.084 104.898 127.358 104.491 126.703 104.71C126.048 104.928 125.712 105.689 125.953 106.41C126.193 107.13 126.919 107.537 127.574 107.318Z" fill="#4A6A90"/>
<path d="M127.809 103.287C128.464 103.068 128.8 102.307 128.559 101.587C128.319 100.866 127.593 100.459 126.938 100.678C126.284 100.897 125.948 101.658 126.188 102.378C126.428 103.098 127.154 103.505 127.809 103.287Z" fill="#4A6A90"/>
<path d="M128.045 99.2544C128.7 99.0358 129.036 98.2747 128.796 97.5544C128.555 96.8341 127.83 96.4273 127.175 96.6458C126.52 96.8643 126.184 97.6255 126.424 98.3458C126.665 99.0661 127.391 99.4729 128.045 99.2544Z" fill="#4A6A90"/>
<path d="M5.00337 105.299C5.61392 104.977 5.82152 104.171 5.46707 103.499C5.11263 102.828 4.33035 102.545 3.7198 102.867C3.10926 103.189 2.90166 103.995 3.2561 104.666C3.61055 105.338 4.39283 105.621 5.00337 105.299Z" fill="#4A6A90"/>
<path d="M4.57955 101.283C5.19009 100.96 5.39769 100.155 5.04325 99.4832C4.6888 98.8116 3.90652 98.5284 3.29598 98.8506C2.68543 99.1729 2.47783 99.9785 2.83228 100.65C3.18672 101.322 3.969 101.605 4.57955 101.283Z" fill="#4A6A90"/>
<path d="M4.15669 97.2656C4.76724 96.9434 4.97484 96.1377 4.62039 95.4661C4.26595 94.7945 3.48367 94.5113 2.87312 94.8336C2.26258 95.1558 2.05498 95.9614 2.40942 96.633C2.76387 97.3046 3.54615 97.5878 4.15669 97.2656Z" fill="#4A6A90"/>
<path d="M42.0189 6C42.8264 3 53.7009 0.625 53.7009 0.625C51.0184 3.375 49.8184 5.3 51.0184 12.5C52.2184 19.7 58.8934 39.375 56.8259 77.375C56.8259 77.375 36.3931 19.5 37.0181 18.375C37.2879 17.8898 39.4761 18.172 41.8774 18.6502C41.6891 14.94 41.4419 8.14275 42.0189 6Z" fill="#4A6A90"/>
<path d="M86.6189 5.625C85.8299 2.625 75.2061 0.25 75.2061 0.25C77.8269 3 78.9991 4.925 77.8269 12.125C76.6546 19.325 70.1334 39 72.1531 77C72.1531 77 92.1146 19.125 91.5041 18C91.2406 17.5148 89.1029 17.797 86.7569 18.2752C86.9409 14.565 87.1824 7.76775 86.6189 5.625Z" fill="#4A6A90"/>
<path d="M65.8926 59.25C66.7901 59.25 67.5176 58.3546 67.5176 57.25C67.5176 56.1454 66.7901 55.25 65.8926 55.25C64.9952 55.25 64.2676 56.1454 64.2676 57.25C64.2676 58.3546 64.9952 59.25 65.8926 59.25Z" fill="#263245"/>
<path d="M65.6426 73C66.5401 73 67.2676 72.1046 67.2676 71C67.2676 69.8954 66.5401 69 65.6426 69C64.7452 69 64.0176 69.8954 64.0176 71C64.0176 72.1046 64.7452 73 65.6426 73Z" fill="#263245"/>
<path d="M65.3926 86.75C66.2901 86.75 67.0176 85.8546 67.0176 84.75C67.0176 83.6454 66.2901 82.75 65.3926 82.75C64.4952 82.75 63.7676 83.6454 63.7676 84.75C63.7676 85.8546 64.4952 86.75 65.3926 86.75Z" fill="#263245"/>
<path d="M65.1426 100.5C66.0401 100.5 66.7676 99.6046 66.7676 98.5C66.7676 97.3954 66.0401 96.5 65.1426 96.5C64.2452 96.5 63.5176 97.3954 63.5176 98.5C63.5176 99.6046 64.2452 100.5 65.1426 100.5Z" fill="#263245"/>
</svg>
