<svg width="63" height="24" viewBox="0 0 63 24" fill="none" xmlns="http://www.w3.org/2000/svg">
<path fill-rule="evenodd" clip-rule="evenodd" d="M39.5 0H59.5C61.433 0 63 1.56697 63 3.5V16C63 20.004 59.754 23.25 55.75 23.25H49.5C42.0442 23.25 36 17.2058 36 9.75V3.5C36 1.56697 37.567 0 39.5 0ZM59.5 2H39.5C38.6715 2 38 2.67153 38 3.5V9.75C38 16.1012 43.1488 21.25 49.5 21.25H55.75C58.6495 21.25 61 18.8995 61 16V3.5C61 2.67153 60.3285 2 59.5 2Z" fill="#685454" fill-opacity="0.75"/>
<path fill-rule="evenodd" clip-rule="evenodd" d="M3.5 0H23.5C25.433 0 27 1.56697 27 3.5V9.75C27 17.2058 20.9558 23.25 13.5 23.25H7.25C3.24597 23.25 0 20.004 0 16V3.5C0 1.56697 1.56697 0 3.5 0ZM23.5 2H3.5C2.67153 2 2 2.67153 2 3.5V16C2 18.8995 4.35053 21.25 7.25 21.25H13.5C19.8512 21.25 25 16.1012 25 9.75V3.5C25 2.67153 24.3285 2 23.5 2Z" fill="#685454" fill-opacity="0.75"/>
<rect x="25.25" y="3.5" width="12.5" height="2" fill="#685454" fill-opacity="0.75"/>
</svg>
