<svg width="57" height="19" viewBox="0 0 57 19" fill="none" xmlns="http://www.w3.org/2000/svg">
<path fill-rule="evenodd" clip-rule="evenodd" d="M36.5752 0H52.3196C54.46 0 56.1951 1.7351 56.1951 3.87553V10.1733C56.1951 14.9893 52.2912 18.8932 47.4752 18.8932H41.4197C36.6036 18.8932 32.6997 14.9893 32.6997 10.1733V3.87553C32.6997 1.7351 34.4348 0 36.5752 0ZM52.3194 2.90723H36.5751C36.0399 2.90723 35.6062 3.34097 35.6062 3.87611V10.1738C35.6062 13.3846 38.2088 15.9871 41.4195 15.9871H47.475C50.6857 15.9871 53.2883 13.3846 53.2883 10.1738V3.87611C53.2883 3.34097 52.8546 2.90723 52.3194 2.90723Z" fill="#707070"/>
<path fill-rule="evenodd" clip-rule="evenodd" d="M3.87553 0H19.6199C21.7603 0 23.4954 1.7351 23.4954 3.87553V10.1733C23.4954 14.9893 19.5915 18.8932 14.7755 18.8932H8.71994C3.90411 18.8932 0 14.9892 0 10.1733V3.87553C0 1.73516 1.73528 0 3.87553 0ZM19.6202 2.90723H3.87586C3.34087 2.90723 2.90698 3.34108 2.90698 3.87611V10.1738C2.90698 13.3845 5.50972 15.9871 8.72028 15.9871H14.7758C17.9865 15.9871 20.5891 13.3846 20.5891 10.1738V3.87611C20.5891 3.34097 20.1553 2.90723 19.6202 2.90723Z" fill="#707070"/>
<rect x="22.042" y="3.87549" width="12.111" height="2.42221" fill="#A5A5A5"/>
</svg>
