<svg width="66" height="29" viewBox="0 0 66 29" fill="none" xmlns="http://www.w3.org/2000/svg">
<path d="M29.8298 14.4371C31.046 8.77514 27.6086 3.28396 22.0085 1.94169L17.5287 0.868055C16.8365 0.702252 16.1273 0.604855 15.412 0.577901L12.3325 0.461024C6.20797 0.228856 0.955005 5.06611 0.714836 11.1589L0.503614 16.5169C0.339205 20.6921 2.60656 24.5209 6.33054 26.3565L7.78851 27.0752C10.4292 28.3769 13.5227 28.5326 16.3482 27.5056L22.0566 25.4308C25.6967 24.108 28.4204 20.9994 29.226 17.2487L29.8298 14.4371Z" fill="#D2CFBB"/>
<path d="M36.6596 15.276C35.5456 9.61136 39.036 3.9315 44.604 2.34778L48.9811 1.10267C49.6733 0.905841 50.3814 0.778318 51.0946 0.722145L54.0762 0.486805C60.1451 0.00797217 65.2703 4.67422 65.4159 10.8105L65.5446 16.2299C65.6445 20.4349 63.343 24.3913 59.6292 26.3993L58.2459 27.1472C55.5977 28.5789 52.5139 28.8616 49.7187 27.9289L44.1725 26.0776C40.5953 24.8837 37.9543 21.859 37.2173 18.1119L36.6596 15.276Z" fill="#D2CFBB"/>
<path fill-rule="evenodd" clip-rule="evenodd" d="M0.00872778 16.5939L0.21995 11.2359C0.469991 4.89265 5.93354 -0.138393 12.3067 0.103199L15.386 0.220072C16.1303 0.248119 16.8691 0.349433 17.591 0.522343L22.0708 1.59598C27.9104 2.99566 31.4968 8.72518 30.229 14.6272L29.6252 17.4388C28.7868 21.3426 25.9539 24.5757 22.168 25.9515L16.4596 28.0263C13.5191 29.095 10.2978 28.9331 7.54584 27.5765L6.08788 26.8578C2.20324 24.943 -0.162718 20.9477 0.00872778 16.5939ZM15.3519 1.12588L12.2725 1.00901C6.39664 0.786267 1.35414 5.4296 1.12384 11.2721L0.912617 16.63C0.755241 20.6266 2.92405 24.289 6.48732 26.0454L7.9453 26.7641C10.475 28.011 13.4406 28.1602 16.151 27.175L21.8594 25.1002C25.3535 23.8305 27.9682 20.8465 28.7408 17.2488L29.3447 14.4371C30.5093 9.01553 27.2211 3.76248 21.8603 2.47756L17.3806 1.40394C16.7166 1.24491 16.0369 1.1517 15.3519 1.12588Z" fill="#715B4E"/>
<path fill-rule="evenodd" clip-rule="evenodd" d="M51.0591 0.270571L54.0406 0.03523C60.3689 -0.464067 65.7162 4.40424 65.868 10.7998L65.9967 16.2191C66.1007 20.5947 63.7074 24.7091 59.844 26.798L58.4607 27.5459C55.7033 29.0367 52.4901 29.3312 49.5757 28.3587L44.0295 26.5075C40.2973 25.2618 37.5419 22.106 36.7735 18.1995L36.2158 15.3636C35.0563 9.46731 38.6863 3.56008 44.4804 1.91204L48.8575 0.666921C49.5786 0.46188 50.3162 0.329077 51.0591 0.270571ZM65.0924 16.2406L64.9637 10.8212C64.8242 4.94397 59.921 0.480001 54.1117 0.938353L51.1301 1.1737C50.4468 1.22751 49.7682 1.34969 49.1046 1.53839L44.7275 2.78349C39.3855 4.30293 36.0349 9.75549 37.1034 15.1884L37.661 18.0243C38.3667 21.612 40.8932 24.5056 44.3154 25.6478L49.8617 27.499C52.5377 28.392 55.492 28.1212 58.031 26.7485L59.4143 26.0006C62.9788 24.0734 65.1883 20.275 65.0924 16.2406Z" fill="#715B4E"/>
<path d="M28.3322 6.86398C31.4697 5.29278 34.7906 5.27817 38.123 6.79029L38.2528 6.84997L37.2995 8.90392C34.5788 7.63709 31.9732 7.61357 29.4595 8.83276L29.3436 8.88991L28.3322 6.86398Z" fill="#715B4E"/>
<path d="M22.6882 1.92666L23.3195 1.98199C30.0678 2.55926 35.0855 2.52134 44.1197 1.92604C44.3067 1.91372 44.4682 2.05552 44.4805 2.24276C44.4928 2.43 44.3512 2.59177 44.1643 2.60409L43.3345 2.65791C34.5118 3.22062 29.5265 3.22225 22.6277 2.60347C22.4411 2.58673 22.3034 2.42166 22.3201 2.23476C22.3358 2.05886 22.4827 1.92632 22.6555 1.92529L22.6882 1.92666Z" fill="#715B4E"/>
</svg>
