<svg width="93" height="121" viewBox="0 0 93 121" fill="none" xmlns="http://www.w3.org/2000/svg">
<rect x="37" y="79" width="19" height="42" rx="9.5" fill="#EBBAAA"/>
<path opacity="0.5" d="M82.3551 75.0886C87.706 75.0886 92.0439 70.7507 92.0439 65.3998C92.0439 60.0489 87.706 55.7109 82.3551 55.7109C77.0042 55.7109 72.6663 60.0489 72.6663 65.3998C72.6663 70.7507 77.0042 75.0886 82.3551 75.0886Z" fill="#DE8E7C"/>
<path opacity="0.5" d="M9.68883 75.0886C4.33783 75.0886 0 70.7507 0 65.3998C0 60.0489 4.33783 55.7109 9.68883 55.7109C15.0397 55.7109 19.3777 60.0489 19.3777 65.3998C19.3777 70.7507 15.0397 75.0886 9.68883 75.0886Z" fill="#DE8E7C"/>
<path d="M10.1733 41.662C10.1733 21.5957 26.4402 5.32886 46.5064 5.32886C66.5727 5.32886 82.8395 21.5957 82.8395 41.662V70.7284C82.8395 90.7947 66.5727 107.062 46.5064 107.062C26.4402 107.062 10.1733 90.7947 10.1733 70.7284V41.662Z" fill="#F4D5CC"/>
<path d="M70.1079 42.9985C71.3096 42.9234 72.3446 43.8366 72.4197 45.0382C72.4934 46.218 71.6144 47.2371 70.4452 47.3449L70.3799 47.3499L56.8156 48.1977C55.6139 48.2728 54.5789 47.3596 54.5038 46.158C54.4301 44.9782 55.3091 43.959 56.4783 43.8513L56.5436 43.8462L70.1079 42.9985Z" fill="#393939"/>
<path d="M19.6242 45.0382C19.6979 43.8584 20.697 42.9567 21.8705 42.9953L21.9359 42.9985L35.5003 43.8462C36.7019 43.9213 37.6151 44.9563 37.54 46.158C37.4663 47.3377 36.4673 48.2395 35.2937 48.2008L35.2283 48.1977L21.6639 47.3499C20.4623 47.2748 19.5491 46.2398 19.6242 45.0382Z" fill="#393939"/>
<path d="M61.7663 54.9841C63.3469 54.9841 64.6328 56.2457 64.672 57.8169L64.6729 57.8908V60.7974C64.6729 62.4027 63.3716 63.7041 61.7663 63.7041C60.1857 63.7041 58.8997 62.4425 58.8605 60.8713L58.8596 60.7974V57.8908C58.8596 56.2855 60.161 54.9841 61.7663 54.9841Z" fill="black"/>
<path d="M30.3986 54.9841C31.9792 54.9841 33.2651 56.2457 33.3043 57.8169L33.3052 57.8908V60.7974C33.3052 62.4027 32.0039 63.7041 30.3986 63.7041C28.818 63.7041 27.5321 62.4425 27.4929 60.8713L27.4919 60.7974V57.8908C27.4919 56.2855 28.7933 54.9841 30.3986 54.9841Z" fill="black"/>
<path d="M54.7756 86.0703C55.6668 85.5538 56.8079 85.8576 57.3244 86.7488C57.8408 87.64 57.5371 88.7811 56.6459 89.2975L56.5264 89.3639C56.4897 89.3837 56.448 89.4057 56.4012 89.4298C56.2356 89.5153 56.0434 89.6081 55.8251 89.7064C55.2215 89.978 54.519 90.2462 53.7212 90.4943C51.4781 91.1918 48.9004 91.6078 46.0219 91.6078C43.1434 91.6078 40.5657 91.1918 38.3226 90.4943C37.5249 90.2462 36.8224 89.978 36.2187 89.7064C36.0368 89.6245 35.8731 89.5464 35.7277 89.4732L35.6427 89.4298C35.5335 89.3735 35.4518 89.3287 35.3979 89.2975C34.5068 88.7811 34.203 87.64 34.7195 86.7488C35.2252 85.8762 36.3298 85.5667 37.2122 86.0391L37.3193 86.0984C37.392 86.1369 37.5176 86.1994 37.6947 86.2801L37.7494 86.3049C38.2181 86.5158 38.7797 86.7302 39.4303 86.9325C41.3251 87.5217 43.5313 87.8778 46.0219 87.8778C48.5126 87.8778 50.7187 87.5217 52.6136 86.9325C53.2099 86.747 53.7315 86.5514 54.1753 86.3577L54.2944 86.3049C54.5006 86.2121 54.6446 86.1407 54.7245 86.0984L54.7756 86.0703Z" fill="#C99584"/>
<path d="M83.5639 33.06C83.6203 31.541 82.5204 30.2778 81.1438 30.2778C79.7157 30.2778 78.5976 31.6328 78.7328 33.2014L81.0133 69.4626C81.0515 69.9068 81.389 70.2442 81.7915 70.2442C82.2123 70.2442 82.5562 69.8795 82.5744 69.4178L83.5639 33.06Z" fill="#6E6C6C"/>
<path d="M13.32 33.06C13.3764 31.541 12.2765 30.2778 10.8999 30.2778C9.4718 30.2778 8.35371 31.6328 8.48887 33.2014L10.7694 69.4626C10.8076 69.9068 11.1451 70.2442 11.5476 70.2442C11.9684 70.2442 12.3123 69.8795 12.3305 69.4178L13.32 33.06Z" fill="#6E6C6C"/>
<path d="M46.6116 1.32623C53.0912 -1.60937 66.6524 0.0440998 71.1873 9.15938C79.0396 9.15938 86.5237 16.9882 84.5607 26.6237C88.3261 29.6049 89.5664 35.7732 86.2311 39.9333L86.1286 40.0587C82.6661 44.2196 83.0505 48.5687 79.8982 44.2087C78.1291 41.0509 76.3303 38.5162 74.4044 36.4829L74.3516 36.9755C74.2378 38.0568 74.1271 39.2293 74.0304 40.5076L73.7077 40.0744C68.5068 33.1244 66.7071 32.2901 59.5357 31.7505C57.1566 33.7198 57.9712 37.7608 62.9871 39.9807C57.636 39.9807 46.355 37.7608 46.6728 32.3011L46.5416 32.3704C44.3934 33.4779 42.0159 33.4654 42.0159 39.1245C37.7543 34.4012 29.7435 28.3776 21.1055 34.9016C15.57 39.0822 14.0368 42.5426 12.7554 50.5059L12.7166 50.7486L9.82958 44.868C9.18586 43.7456 8.42787 41.9549 6.98593 40.1823L6.88421 40.0587C3.42172 35.8981 4.64876 29.635 8.45211 26.6237C6.48915 16.9882 13.9733 9.15938 21.8256 9.15938C26.3853 -0.00579071 40.0704 -1.62724 46.507 1.37484L46.6116 1.32623Z" fill="#393939"/>
<path d="M44.3088 61.8354L47.7349 64.1196C46.5705 65.8663 45.6585 68.4881 45.6585 70.3955C45.6585 72.2343 46.3224 73.0075 48.3548 73.0292L48.4441 73.0297V77.1474C43.9525 77.1474 41.5408 74.4342 41.5408 70.3955C41.5408 67.6596 42.679 64.3385 44.2241 61.964L44.3088 61.8354Z" fill="#EBBAAA"/>
</svg>
