<svg width="79" height="125" viewBox="0 0 79 125" fill="none" xmlns="http://www.w3.org/2000/svg">
<path d="M50.7872 84.7362C51.14 81.025 54.4345 78.3025 58.1457 78.6553C61.8198 79.0045 64.5249 82.2369 64.2363 85.9025L64.2266 86.0137L61.1016 118.889C60.7489 122.6 57.4544 125.322 53.7432 124.97C50.0691 124.62 47.364 121.388 47.6526 117.722L47.6622 117.611L50.7872 84.7362Z" fill="#EBBAAA"/>
<path d="M20.3682 78.6553C24.0423 78.306 27.3079 80.9709 27.7152 84.6252L27.7266 84.7362L30.8516 117.611C31.2044 121.322 28.4819 124.617 24.7707 124.97C21.0966 125.319 17.8309 122.654 17.4237 119L17.4122 118.889L14.2872 86.0137C13.9345 82.3025 16.657 79.008 20.3682 78.6553Z" fill="#EBBAAA"/>
<path d="M10.751 112.615C11.0923 112.462 11.4924 112.616 11.6447 112.957C12.1321 114.05 12.2411 115.082 12.2406 116.848C12.2405 117.322 11.768 117.644 11.3313 117.483L11.2917 117.467L8.02698 116.033L8.72154 118.539C8.86162 119.045 8.39987 119.505 7.90196 119.376L7.86258 119.364L4.57923 118.31L4.57937 121.263C4.57937 121.761 4.06223 122.083 3.61918 121.877L3.5814 121.858L1.35348 120.656L1.35342 122.87C1.35341 123.23 1.07245 123.524 0.717908 123.546L0.676685 123.547C0.31679 123.547 0.0225248 123.266 0.00123347 122.911L0 122.87L0.000125 119.523C0.000143597 119.024 0.517273 118.702 0.960315 118.908L0.998095 118.927L3.22573 120.129L3.22595 117.383C3.22595 116.938 3.64522 116.619 4.06852 116.726L4.10949 116.738L7.08248 117.692L6.34203 115.021C6.19323 114.484 6.71868 114.013 7.22986 114.206L7.26633 114.22L10.8672 115.802L10.8639 115.725C10.8189 114.833 10.7008 114.194 10.4418 113.584L10.4086 113.508C10.2564 113.167 10.4097 112.767 10.751 112.615Z" fill="white"/>
<path d="M66.8691 112.957C67.0214 112.616 67.4215 112.462 67.7628 112.615C68.1042 112.767 68.2574 113.167 68.1052 113.508C67.8229 114.141 67.6968 114.795 67.65 115.725L67.6462 115.802L71.2475 114.22C71.7576 113.996 72.2984 114.449 72.1813 114.983L72.1718 115.021L71.4312 117.692L74.4043 116.738C74.8275 116.602 75.26 116.904 75.2866 117.34L75.2879 117.383L75.2877 120.129L77.5156 118.927C77.954 118.691 78.4833 118.993 78.5124 119.48L78.5136 119.522L78.5139 122.87C78.5139 123.244 78.211 123.547 77.8372 123.547C77.4773 123.547 77.183 123.266 77.1617 122.911L77.1605 122.87L77.16 120.656L74.9324 121.858C74.4941 122.095 73.9648 121.793 73.9357 121.305L73.9345 121.263L73.9342 118.311L70.6512 119.364C70.1518 119.525 69.6737 119.082 69.7825 118.579L69.7923 118.539L70.4867 116.033L67.2221 117.467C66.7881 117.658 66.3028 117.355 66.2745 116.89L66.2732 116.848L66.2742 116.56C66.286 114.967 66.4088 113.989 66.8691 112.957Z" fill="white"/>
<path d="M39.2569 29.5C55.1351 29.5 68.0069 22.8962 68.0069 14.75C68.0069 6.60375 55.1351 0 39.2569 0C23.3786 0 10.5069 6.60375 10.5069 14.75C10.5069 22.8962 23.3786 29.5 39.2569 29.5Z" fill="#999999"/>
<path d="M40.5069 8.75H74.2569L69.3554 96.8725L66.1164 105.825L47.1806 107.5L45.3714 98.875L40.5069 8.75Z" fill="#999999"/>
<path d="M45.5069 105.5H66.7569L65.7204 111H46.4769L45.5069 105.5Z" fill="#E2E2E2"/>
<path d="M38.0069 8.75H4.2569L9.1584 96.8725L12.3974 105.825L31.3331 107.5L33.1424 98.875L38.0069 8.75Z" fill="#999999"/>
<path d="M33.0069 105.5H11.7569L12.7934 111H32.0369L33.0069 105.5Z" fill="#E2E2E2"/>
<path d="M67.9717 18.5419C69.5459 18.1419 73.1182 15.9176 73.7234 16.2924C75.3884 18.0419 74.3289 62.5251 73.4207 63.9001C72.5124 65.2751 64.7932 65.7751 64.7932 63.9001C64.7932 62.0251 64.6419 55.5276 64.7932 50.4051C64.9444 45.2826 62.3714 19.6664 63.5824 19.2916C64.7932 18.9166 66.0042 19.0416 67.9717 18.5419Z" fill="#777777"/>
<path d="M66.0042 20.4157C67.2149 20.291 72.2099 18.5415 73.7234 17.417C74.7829 18.5415 76.5992 26.2887 74.6317 27.2882C72.6639 28.288 67.5177 28.163 66.9122 27.2882C66.3067 26.4135 64.7932 20.5407 66.0042 20.4157Z" fill="#595A5B"/>
<path fill-rule="evenodd" clip-rule="evenodd" d="M66.3355 21.8157L66.5803 21.7649C66.6721 22.2071 66.7834 22.7232 66.8965 23.2292L66.6525 23.2837C66.5675 22.9034 66.4835 22.5172 66.4079 22.1609L66.3355 21.8157ZM66.9936 24.7477L67.2364 24.6882C67.3731 25.2463 67.493 25.6952 67.5904 26.0081L67.6282 26.1259L67.3909 26.2045C67.3034 25.9402 67.1966 25.5562 67.0743 25.0724L66.9936 24.7477ZM68.6996 26.9518C69.1471 27.0161 69.6718 27.0609 70.2081 27.0784L70.2162 26.8285C69.6889 26.8113 69.1734 26.7673 68.7352 26.7043L68.6996 26.9518ZM73.2293 26.8107C72.7932 26.9281 72.285 27.0072 71.7249 27.0498L71.7059 26.8005C72.2515 26.759 72.7447 26.6823 73.1643 26.5693L73.2293 26.8107Z" fill="#2B2B2B"/>
<path fill-rule="evenodd" clip-rule="evenodd" d="M73.363 16.9312L73.4783 17.153C73.2165 17.2891 72.9204 17.4402 72.6104 17.5959L72.1376 17.8314L72.0268 17.6073C72.3976 17.4241 72.7632 17.2398 73.0915 17.0713L73.363 16.9312ZM70.6777 18.2568L70.7835 18.4833C70.272 18.7223 69.8086 18.9295 69.4088 19.0964L69.3125 18.8657C69.6295 18.7333 69.9875 18.5752 70.3784 18.3955L70.6777 18.2568ZM67.963 19.5757L67.915 19.3303L67.7461 19.3627C67.3931 19.4292 66.9505 19.5058 66.4415 19.5891L66.4819 19.8358L66.8523 19.7744C67.289 19.701 67.665 19.6339 67.963 19.5757ZM64.2061 19.9339L64.9609 19.822L64.9984 20.0692L64.4721 20.1475L64.5252 20.8826L64.2759 20.9006L64.2061 19.9339ZM64.3837 22.3964L64.4912 23.8921L64.7406 23.8742L64.6331 22.3784L64.3837 22.3964ZM64.7057 26.8852L64.5986 25.389L64.848 25.3711L64.9551 26.8674L64.7057 26.8852ZM64.8125 28.3803L64.919 29.8762L65.1684 29.8585L65.0618 28.3625L64.8125 28.3803ZM65.1311 32.8688L65.0252 31.3727L65.2746 31.355L65.3805 32.8512L65.1311 32.8688ZM65.2365 34.3652L65.3414 35.8617L65.5908 35.8442L65.4859 34.3477L65.2365 34.3652ZM65.5487 38.855L65.4456 37.3586L65.695 37.3413L65.7981 38.8379L65.5487 38.855ZM65.6499 40.3506L65.7278 41.5401C65.734 41.6372 65.74 41.739 65.7457 41.8459L65.9954 41.8325L65.9835 41.6237L65.8993 40.334L65.6499 40.3506ZM65.8036 43.3414L66.0535 43.3345C66.0599 43.5624 66.0657 43.8017 66.0709 44.0521L66.0852 44.8362L65.8352 44.8401C65.8299 44.5003 65.8239 44.1775 65.8169 43.8721L65.8036 43.3414ZM66.1026 46.3376L65.8526 46.3397L65.8588 47.3241C65.8595 47.4934 65.8602 47.6651 65.8607 47.8394L66.1107 47.8387L66.1075 47.0708C66.1062 46.8206 66.1046 46.5762 66.1026 46.3376ZM65.8619 49.3384L66.1119 49.3386C66.1117 49.533 66.1114 49.7296 66.111 49.9286L66.108 50.8392L65.858 50.8382L65.8592 50.5314L65.8619 49.3384ZM65.8499 52.3376L65.8383 53.8376L66.0883 53.8398L66.0999 52.3393L65.8499 52.3376ZM65.8067 56.8371L65.8238 55.3372L66.0738 55.3398L66.0567 56.8401L65.8067 56.8371ZM65.7873 58.3357L65.7659 59.8355L66.0158 59.8392L66.0373 58.3391L65.7873 58.3357ZM65.7429 61.3354L65.9928 61.3394C65.9813 62.0779 65.978 62.298 65.9776 62.3839L65.9791 62.4303C65.987 62.5157 66.0263 62.6322 66.0949 62.7559L65.8762 62.877C65.7801 62.7036 65.7276 62.5337 65.7276 62.3998L65.7429 61.3354ZM67.0939 63.8782C67.5287 64.0504 68.039 64.138 68.6227 64.1273L68.6181 63.8774C68.0667 63.8874 67.5892 63.8055 67.186 63.6458L67.0939 63.8782ZM71.5676 63.4401C71.0598 63.6449 70.5795 63.8025 70.1263 63.9149L70.0661 63.6723C70.5076 63.5627 70.9769 63.4088 71.4741 63.2083L71.5676 63.4401Z" fill="#2B2B2B"/>
<path d="M10.5422 18.5419C8.96792 18.1419 5.39567 15.9176 4.79042 16.2924C3.12542 18.0419 4.18492 62.5251 5.09317 63.9001C6.00142 65.2751 13.7207 65.7751 13.7207 63.9001C13.7207 62.0251 13.8719 55.5276 13.7207 50.4051C13.5694 45.2826 16.1424 19.6664 14.9314 19.2916C13.7207 18.9166 12.5097 19.0416 10.5422 18.5419Z" fill="#777777"/>
<path d="M12.5097 20.4157C11.2989 20.291 6.3039 18.5415 4.7904 17.417C3.7309 18.5415 1.91465 26.2887 3.88215 27.2882C5.8499 28.288 10.9962 28.163 11.6017 27.2882C12.2072 26.4135 13.7207 20.5407 12.5097 20.4157Z" fill="#595A5B"/>
<path fill-rule="evenodd" clip-rule="evenodd" d="M11.9335 21.7651L12.1783 21.816C12.1207 22.0931 12.0556 22.3992 11.9871 22.7135L11.8613 23.284L11.6173 23.2294C11.7022 22.85 11.7859 22.4648 11.8613 22.1094L11.9335 21.7651ZM11.2774 24.688L11.5202 24.7475C11.3822 25.3108 11.2611 25.7644 11.1616 26.0837L11.1229 26.2042L10.8856 26.1257C10.9648 25.8863 11.0614 25.5422 11.1717 25.1107L11.2774 24.688ZM9.77861 26.7041C9.34044 26.7671 8.82488 26.8111 8.29764 26.8283L8.30577 27.0781C8.84199 27.0607 9.3667 27.0159 9.81418 26.9516L9.77861 26.7041ZM5.34952 26.5691C5.76909 26.682 6.26226 26.7588 6.8079 26.8002L6.78894 27.0495C6.22877 27.0069 5.72056 26.9279 5.28455 26.8105L5.34952 26.5691Z" fill="#2B2B2B"/>
<path fill-rule="evenodd" clip-rule="evenodd" d="M5.03552 17.1532L5.15081 16.9314C5.45508 17.0895 5.80599 17.2682 6.17119 17.4506L6.48696 17.6075L6.37622 17.8316C6.05744 17.6741 5.74238 17.5158 5.45139 17.3673L5.03552 17.1532ZM7.73029 18.4831L7.83613 18.2566C8.34468 18.4943 8.80506 18.7 9.20131 18.8655L9.10499 19.0962C8.78514 18.9626 8.42458 18.8033 8.03128 18.6226L7.73029 18.4831ZM10.5987 19.3301L10.5508 19.5754L10.906 19.6423C11.2264 19.7008 11.606 19.7658 12.0319 19.8356L12.0723 19.5889L11.5863 19.5079C11.2011 19.4425 10.8675 19.3826 10.5987 19.3301ZM14.0416 20.1472L13.5154 20.069L13.5529 19.8218L14.3077 19.9337L14.2379 20.9003L13.9885 20.8823L14.0416 20.1472ZM13.8807 22.3782L13.7732 23.874L14.0226 23.8919L14.1301 22.3961L13.8807 22.3782ZM13.5587 26.8672L13.6658 25.3708L13.9152 25.3887L13.8081 26.885L13.5587 26.8672ZM13.452 28.3623L13.3454 29.8582L13.5948 29.876L13.7013 28.3801L13.452 28.3623ZM13.1333 32.851L13.2392 31.3547L13.4885 31.3724L13.3827 32.8686L13.1333 32.851ZM13.0279 34.3474L12.923 35.844L13.1724 35.8614L13.2772 34.3649L13.0279 34.3474ZM12.7157 38.8377L12.8188 37.3411L13.0682 37.3583L12.9651 38.8547L12.7157 38.8377ZM12.6144 40.3337L12.5364 41.5239L12.5184 41.8323L12.768 41.8457L12.7859 41.5399L12.8639 40.3504L12.6144 40.3337ZM12.4602 43.3342L12.7102 43.3412C12.7023 43.6254 12.6952 43.9274 12.6889 44.2467L12.6785 44.8399L12.4286 44.836C12.4349 44.4275 12.4424 44.0435 12.4511 43.6846L12.4602 43.3342ZM12.6611 46.3394L12.4112 46.3374L12.4077 46.8223C12.4056 47.1508 12.4041 47.4896 12.4031 47.8385L12.6531 47.8392L12.6577 46.8239C12.6587 46.6598 12.6599 46.4983 12.6611 46.3394ZM12.4018 49.3384L12.6518 49.3381L12.6522 49.6312L12.6557 50.8379L12.4057 50.839L12.4046 50.532L12.4018 49.3384ZM12.4138 52.3391L12.4254 53.8395L12.6754 53.8373L12.6638 52.3374L12.4138 52.3391ZM12.4571 56.8399L12.44 55.3396L12.69 55.3369L12.7071 56.8368L12.4571 56.8399ZM12.4765 58.3389L12.4979 59.839L12.7479 59.8353L12.7265 58.3354L12.4765 58.3389ZM12.5209 61.3391L12.7709 61.3352C12.7817 62.0271 12.7853 62.2635 12.786 62.3632L12.7842 62.4455C12.774 62.5713 12.723 62.7226 12.6376 62.8768L12.4189 62.7556C12.496 62.6165 12.5362 62.4865 12.5362 62.3996L12.5209 61.3391ZM11.3278 63.6455C10.9246 63.8052 10.4471 63.8872 9.89564 63.8771L9.89108 64.1271C10.4748 64.1377 10.9851 64.0502 11.4199 63.8779L11.3278 63.6455ZM7.03964 63.208C7.53693 63.4086 8.00619 63.5625 8.44768 63.672L8.38748 63.9147C7.93433 63.8022 7.45399 63.6447 6.94614 63.4399L7.03964 63.208Z" fill="#2B2B2B"/>
</svg>
