<svg width="71" height="114" viewBox="0 0 71 114" fill="none" xmlns="http://www.w3.org/2000/svg">
<path d="M22.6926 55.0001C26.7113 55.0207 29.958 57.8953 29.9997 61.4429L30 61.5506L29 107.557C27.8002 111.532 26.3666 114.021 22.3074 114C18.2887 113.979 15.042 111.105 15.0003 107.557L15 107.449L15.3002 61.4753C15.3237 57.8783 18.6334 54.9793 22.6926 55.0001Z" fill="#EBBAAA"/>
<path d="M54.7675 46.5106C58.8371 46.5342 62.1249 49.8194 62.1672 53.8737L62.1675 53.9968L61.8634 106.535C61.8397 110.645 58.488 113.959 54.3773 113.935C50.3077 113.911 50.0224 110.463 48.5 106.535L47.2813 53.9106C47.3051 49.7999 50.6568 46.4868 54.7675 46.5106Z" fill="#EBBAAA"/>
<path fill-rule="evenodd" clip-rule="evenodd" d="M0 0H33.3635H34.4336H68.1878L70.3635 88.3326L66.0194 94.4925C64.7585 96.2804 62.7709 97.4184 60.5907 97.6006L43.849 99L42.6921 91.6038L36.3566 29.391C35.4502 29.4597 34.53 29.5088 33.598 29.5374L31.883 90.165L31.1178 98.9647L14.5061 98.0962C12.6374 97.9984 10.8692 97.2193 9.53602 95.9062L3.70735 90.165L0 0Z" fill="#FBCA81"/>
</svg>
