<svg width="115" height="341" viewBox="0 0 115 341" fill="none" xmlns="http://www.w3.org/2000/svg">
<path d="M45.6926 271C49.7113 271.021 52.958 273.895 52.9997 277.443L53 277.551L52 323.557C50.8002 327.532 49.3666 330.021 45.3074 330C41.2887 329.979 38.042 327.105 38.0003 323.557L38 323.449L38.3002 277.475C38.3237 273.878 41.6334 270.979 45.6926 271Z" fill="#EBBAAA"/>
<path d="M77.7674 262.511C81.837 262.534 85.1248 265.819 85.1671 269.874L85.1674 269.997L84.8634 322.535C84.8396 326.645 81.4879 329.959 77.3772 329.935C73.3076 329.911 73.0223 326.463 71.4999 322.535L70.2812 269.911C70.305 265.8 73.6567 262.487 77.7674 262.511Z" fill="#EBBAAA"/>
<path fill-rule="evenodd" clip-rule="evenodd" d="M23 216H56.3635H57.4336H91.1878L93.3635 304.333L89.0194 310.492C87.7585 312.28 85.7709 313.418 83.5907 313.601L66.849 315L65.6921 307.604L59.3566 245.391C58.4502 245.46 57.53 245.509 56.598 245.537L54.883 306.165L54.1178 314.965L37.5061 314.096C35.6374 313.998 33.8692 313.219 32.536 311.906L26.7074 306.165L23 216Z" fill="#FBCA81"/>
<path d="M14.4575 124.899C18.1506 116.916 23.4599 114.75 23.4599 114.75L26.75 158.615V224.75C-9.19033 213.677 -4.29268 165.425 14.4575 124.899Z" fill="#454B5E"/>
<path d="M100.042 124.899C96.3495 116.916 91.0403 114.75 91.0403 114.75L87.75 158.615V224.75C123.69 213.677 118.793 165.425 100.042 124.899Z" fill="#454B5E"/>
<path d="M57.25 126.25C76.0277 126.25 91.25 120.374 91.25 113.125C91.25 105.876 76.0277 100 57.25 100C38.4722 100 23.25 105.876 23.25 113.125C23.25 120.374 38.4722 126.25 57.25 126.25Z" fill="#35383E"/>
<path d="M20.6554 133.943C20.0637 122.048 27.946 111.386 39.4923 108.465L57.138 104L74.7838 108.465C86.33 111.386 94.2122 122.048 93.6205 133.943L92.138 163.75L94.5235 218.141C94.586 219.563 93.4498 220.75 92.026 220.75H22.2501C20.8264 220.75 19.6901 219.563 19.7525 218.141L22.138 163.75L20.6554 133.943Z" fill="#DADADA"/>
<path fill-rule="evenodd" clip-rule="evenodd" d="M39.4999 141.457L39.4998 141.625L39.4999 141.793C39.5014 143.245 39.5028 144.595 38.4703 145.617C37.7268 146.354 36.8689 146.75 35.625 146.75C34.3811 146.75 33.5232 146.354 32.7797 145.617C31.7472 144.595 31.7486 143.245 31.7501 141.793L31.7502 141.625L31.7501 141.457C31.7486 140.005 31.7472 138.655 32.7797 137.633C33.5232 136.896 34.3811 136.5 35.625 136.5C36.8689 136.5 37.7268 136.896 38.4703 137.633C39.5028 138.655 39.5014 140.005 39.4999 141.457ZM30.25 136.75V146.75H28.0486L24.768 141.722V146.75H22.25V136.75H24.4514L27.732 141.778V136.75H30.25ZM37 141.625C37 143.439 36.8568 143.76 36.6276 144.053C36.4414 144.291 36.0833 144.5 35.625 144.5C35.1667 144.5 34.8086 144.291 34.6224 144.053C34.3932 143.76 34.25 143.439 34.25 141.625C34.25 139.811 34.3932 139.476 34.6224 139.183C34.8086 138.945 35.1667 138.75 35.625 138.75C36.0833 138.75 36.4414 138.945 36.6276 139.183C36.8568 139.476 37 139.811 37 141.625ZM47.0617 142.579L49.25 146.75H46.3655L44.575 143.028H43.7367V146.75H41.25V136.75H45.2571C47.5022 136.75 48.71 138.323 48.71 139.966C48.71 141.329 47.8575 142.185 47.0617 142.579ZM46.25 139.75C46.25 140.264 45.85 140.75 45.1643 140.75H43.75V138.75H45.1643C45.85 138.75 46.25 139.236 46.25 139.75ZM57.25 144.559V146.75H50.5V136.75H52.9921V144.559H57.25ZM66.248 141.331L66.248 141.33C66.2583 139.946 66.2669 138.793 65.1994 137.733C64.5063 137.045 63.5304 136.75 62.4838 136.75H58.75V146.75H62.4838C63.5304 146.75 64.5063 146.455 65.1994 145.767C66.2669 144.707 66.2583 143.554 66.248 142.17L66.248 142.169C66.247 142.032 66.246 141.892 66.246 141.75C66.246 141.608 66.247 141.468 66.248 141.331ZM63.4861 143.925C63.6806 143.638 63.75 143.364 63.75 141.625C63.75 139.9 63.6806 139.612 63.4861 139.325C63.2639 138.98 62.9306 138.75 62.3194 138.75H61.25V144.5H62.3194C62.9306 144.5 63.2639 144.27 63.4861 143.925ZM74.5 138.941V136.75H67V138.941H69.5V146.75H72V138.941H74.5ZM82.9999 141.457L82.9998 141.625L82.9999 141.793C83.0014 143.245 83.0028 144.595 81.9703 145.617C81.2268 146.354 80.3689 146.75 79.125 146.75C77.8811 146.75 77.0232 146.354 76.2797 145.617C75.2472 144.595 75.2486 143.245 75.2501 141.793L75.2502 141.625L75.2501 141.457C75.2486 140.005 75.2472 138.655 76.2797 137.633C77.0232 136.896 77.8811 136.5 79.125 136.5C80.3689 136.5 81.2268 136.896 81.9703 137.633C83.0028 138.655 83.0014 140.005 82.9999 141.457ZM80.5 141.625C80.5 143.439 80.3568 143.76 80.1276 144.053C79.9414 144.291 79.5833 144.5 79.125 144.5C78.6667 144.5 78.3086 144.291 78.1224 144.053C77.8932 143.76 77.75 143.439 77.75 141.625C77.75 139.811 77.8932 139.476 78.1224 139.183C78.3086 138.945 78.6667 138.75 79.125 138.75C79.5833 138.75 79.9414 138.945 80.1276 139.183C80.3568 139.476 80.5 139.811 80.5 141.625ZM89.4454 143.465H92C91.6269 145.688 90.0626 146.75 88.1251 146.75C86.934 146.75 86.0298 146.354 85.2835 145.617C84.2472 144.595 84.2486 143.245 84.2501 141.793C84.2502 141.737 84.2502 141.681 84.2502 141.625C84.2502 141.569 84.2502 141.513 84.2501 141.457C84.2486 140.005 84.2472 138.655 85.2835 137.633C86.0298 136.896 86.934 136.5 88.1251 136.5C90.0626 136.5 91.6269 137.562 92 139.785H89.4454C89.2876 139.218 88.9719 138.709 88.1395 138.709C87.6802 138.709 87.3358 138.893 87.1492 139.133C86.9196 139.431 86.7617 139.785 86.7617 141.625C86.7617 143.465 86.9196 143.819 87.1492 144.117C87.3358 144.357 87.6802 144.541 88.1395 144.541C88.9719 144.541 89.2876 144.032 89.4454 143.465Z" fill="black"/>
<path d="M96.9977 161.529C92.2315 146.896 105.247 129.012 90.7482 114.504C90.7482 114.504 77.6243 105.124 66 106.875C76.7493 112.503 81.249 123.759 77.0288 154.025C75.6338 164.03 82.3225 178.327 77.0288 193.796C69.6248 215.433 68.9998 225.106 77.0288 228.315C83.6238 230.95 85.6335 227.28 96.9977 219.06C102.974 214.737 103.027 180.039 96.9977 161.529Z" fill="#343844"/>
<path d="M89.9615 115.416C90.1462 115.322 90.3719 115.396 90.4657 115.58C90.5596 115.765 90.4859 115.991 90.3013 116.084C87.4784 117.519 84.6413 121.216 82.8549 126.416C80.6456 132.846 80.1217 141.09 81.7029 150.892L81.7514 151.189C83.3926 161.127 83.5945 172.136 82.6364 183.394L82.5844 183.992C81.8328 192.454 80.4458 200.589 78.9952 206.091C77.9244 210.374 77.2272 214.452 77.1438 218.109C77.0312 223.05 78.098 226.477 80.5711 227.927C80.7497 228.031 80.8097 228.261 80.7049 228.44C80.6002 228.618 80.3704 228.678 80.1918 228.574C77.4181 226.948 76.2758 223.279 76.394 218.092C76.4789 214.368 77.1845 210.242 78.2688 205.904L78.3704 205.514C79.8079 199.927 81.1713 191.765 81.8891 183.331C82.8288 172.288 82.6469 161.49 81.0795 151.729L81.0114 151.311C79.3519 141.262 79.8715 132.791 82.1456 126.172C83.9909 120.801 86.9482 116.947 89.9615 115.416Z" fill="#78819C"/>
<path d="M17.5022 161.529C22.2685 146.896 9.2527 129.012 23.7517 114.504C23.7517 114.504 36.8757 105.124 48.5 106.875C37.7507 112.503 33.251 123.759 37.4713 154.025C38.8663 164.03 32.1775 178.327 37.4713 193.796C44.8752 215.433 45.5003 225.106 37.4713 228.315C30.8763 230.95 28.8665 227.28 17.5022 219.06C11.5257 214.737 11.4729 180.039 17.5022 161.529Z" fill="#343844"/>
<path d="M24.0342 115.58C24.128 115.396 24.3537 115.322 24.5384 115.416C27.5517 116.947 30.5091 120.801 32.3544 126.172C34.6057 132.724 35.1374 141.093 33.5376 151.01L33.4885 151.311C31.8585 161.182 31.6577 172.13 32.6109 183.331L32.6632 183.933C33.4112 192.351 34.7909 200.442 36.2323 205.909C37.3155 210.242 38.021 214.368 38.1059 218.092C38.2241 223.279 37.0818 226.948 34.3082 228.574C34.1295 228.678 33.8997 228.618 33.795 228.44C33.6903 228.261 33.7502 228.031 33.9289 227.927C36.4019 226.477 37.4687 223.05 37.3561 218.109C37.2728 214.452 36.5755 210.374 35.5059 206.096C34.02 200.46 32.6019 192.07 31.8636 183.394C30.919 172.294 31.1019 161.437 32.68 151.61L32.7485 151.189C34.3886 141.257 33.8767 132.911 31.6451 126.416C29.8587 121.216 27.0216 117.519 24.1986 116.084C24.014 115.991 23.9404 115.765 24.0342 115.58Z" fill="#78819C"/>
<rect x="48" y="79" width="19" height="42" rx="9.5" fill="#EBBAAA"/>
<path opacity="0.5" d="M93.3551 75.0886C98.706 75.0886 103.044 70.7507 103.044 65.3998C103.044 60.0489 98.706 55.7109 93.3551 55.7109C88.0042 55.7109 83.6663 60.0489 83.6663 65.3998C83.6663 70.7507 88.0042 75.0886 93.3551 75.0886Z" fill="#DE8E7C"/>
<path opacity="0.5" d="M20.6888 75.0886C15.3378 75.0886 11 70.7507 11 65.3998C11 60.0489 15.3378 55.7109 20.6888 55.7109C26.0397 55.7109 30.3777 60.0489 30.3777 65.3998C30.3777 70.7507 26.0397 75.0886 20.6888 75.0886Z" fill="#DE8E7C"/>
<path d="M21.1733 41.662C21.1733 21.5957 37.4402 5.32886 57.5064 5.32886C77.5727 5.32886 93.8395 21.5957 93.8395 41.662V70.7284C93.8395 90.7947 77.5727 107.062 57.5064 107.062C37.4402 107.062 21.1733 90.7947 21.1733 70.7284V41.662Z" fill="#F4D5CC"/>
<path d="M81.1079 42.9985C82.3096 42.9234 83.3446 43.8366 83.4197 45.0382C83.4934 46.218 82.6144 47.2371 81.4452 47.3449L81.3799 47.3499L67.8156 48.1977C66.6139 48.2728 65.5789 47.3596 65.5038 46.158C65.4301 44.9782 66.3091 43.959 67.4783 43.8513L67.5436 43.8462L81.1079 42.9985Z" fill="#393939"/>
<path d="M30.6242 45.0382C30.6979 43.8584 31.697 42.9567 32.8705 42.9953L32.9359 42.9985L46.5003 43.8462C47.7019 43.9213 48.6151 44.9563 48.54 46.158C48.4663 47.3377 47.4673 48.2395 46.2937 48.2008L46.2283 48.1977L32.6639 47.3499C31.4623 47.2748 30.5491 46.2398 30.6242 45.0382Z" fill="#393939"/>
<path d="M72.7663 54.9841C74.3469 54.9841 75.6328 56.2457 75.672 57.8169L75.6729 57.8908V60.7974C75.6729 62.4027 74.3716 63.7041 72.7663 63.7041C71.1857 63.7041 69.8997 62.4425 69.8605 60.8713L69.8596 60.7974V57.8908C69.8596 56.2855 71.161 54.9841 72.7663 54.9841Z" fill="black"/>
<path d="M41.3986 54.9841C42.9792 54.9841 44.2651 56.2457 44.3043 57.8169L44.3052 57.8908V60.7974C44.3052 62.4027 43.0039 63.7041 41.3986 63.7041C39.818 63.7041 38.5321 62.4425 38.4929 60.8713L38.4919 60.7974V57.8908C38.4919 56.2855 39.7933 54.9841 41.3986 54.9841Z" fill="black"/>
<path d="M65.7756 86.0703C66.6668 85.5538 67.8079 85.8576 68.3244 86.7488C68.8408 87.64 68.5371 88.7811 67.6459 89.2975L67.5264 89.3639C67.4897 89.3837 67.448 89.4057 67.4012 89.4298C67.2356 89.5153 67.0434 89.6081 66.8251 89.7064C66.2215 89.978 65.519 90.2462 64.7212 90.4943C62.4781 91.1918 59.9004 91.6078 57.0219 91.6078C54.1434 91.6078 51.5657 91.1918 49.3226 90.4943C48.5249 90.2462 47.8224 89.978 47.2187 89.7064C47.0368 89.6245 46.8731 89.5464 46.7277 89.4732L46.6427 89.4298C46.5335 89.3735 46.4518 89.3287 46.3979 89.2975C45.5068 88.7811 45.203 87.64 45.7195 86.7488C46.2252 85.8762 47.3298 85.5667 48.2122 86.0391L48.3193 86.0984C48.392 86.1369 48.5176 86.1994 48.6947 86.2801L48.7494 86.3049C49.2181 86.5158 49.7797 86.7302 50.4303 86.9325C52.3251 87.5217 54.5313 87.8778 57.0219 87.8778C59.5126 87.8778 61.7187 87.5217 63.6136 86.9325C64.2099 86.747 64.7315 86.5514 65.1753 86.3577L65.2944 86.3049C65.5006 86.2121 65.6446 86.1407 65.7245 86.0984L65.7756 86.0703Z" fill="#C99584"/>
<path d="M94.5639 33.06C94.6203 31.541 93.5204 30.2778 92.1438 30.2778C90.7157 30.2778 89.5976 31.6328 89.7328 33.2014L92.0133 69.4626C92.0515 69.9068 92.389 70.2442 92.7915 70.2442C93.2123 70.2442 93.5562 69.8795 93.5744 69.4178L94.5639 33.06Z" fill="#6E6C6C"/>
<path d="M24.32 33.06C24.3764 31.541 23.2765 30.2778 21.8999 30.2778C20.4718 30.2778 19.3537 31.6328 19.4889 33.2014L21.7694 69.4626C21.8076 69.9068 22.1451 70.2442 22.5476 70.2442C22.9684 70.2442 23.3123 69.8795 23.3305 69.4178L24.32 33.06Z" fill="#6E6C6C"/>
<path d="M57.6116 1.32623C64.0912 -1.60937 77.6524 0.0440998 82.1873 9.15938C90.0396 9.15938 97.5237 16.9882 95.5607 26.6237C99.3261 29.6049 100.566 35.7732 97.2311 39.9333L97.1286 40.0587C93.6661 44.2196 94.0505 48.5687 90.8982 44.2087C89.1291 41.0509 87.3303 38.5162 85.4044 36.4829L85.3516 36.9755C85.2378 38.0568 85.1272 39.2293 85.0304 40.5076L84.7077 40.0744C79.5068 33.1244 77.7071 32.2901 70.5357 31.7505C68.1566 33.7198 68.9712 37.7608 73.9871 39.9807C68.636 39.9807 57.355 37.7608 57.6728 32.3011L57.5416 32.3704C55.3934 33.4779 53.0159 33.4654 53.0159 39.1245C48.7543 34.4012 40.7435 28.3776 32.1055 34.9016C26.57 39.0822 25.0368 42.5426 23.7554 50.5059L23.7166 50.7486L20.8296 44.868C20.1859 43.7456 19.4279 41.9549 17.9859 40.1823L17.8842 40.0587C14.4217 35.8981 15.6488 29.635 19.4521 26.6237C17.4892 16.9882 24.9733 9.15938 32.8256 9.15938C37.3853 -0.00579071 51.0704 -1.62724 57.507 1.37484L57.6116 1.32623Z" fill="#393939"/>
<path d="M55.3088 61.8354L58.7349 64.1196C57.5705 65.8663 56.6585 68.4881 56.6585 70.3955C56.6585 72.2343 57.3224 73.0075 59.3548 73.0292L59.4441 73.0297V77.1474C54.9525 77.1474 52.5408 74.4342 52.5408 70.3955C52.5408 67.6596 53.679 64.3385 55.2241 61.964L55.3088 61.8354Z" fill="#EBBAAA"/>
<path fill-rule="evenodd" clip-rule="evenodd" d="M65.5752 50H81.3196C83.46 50 85.1951 51.7351 85.1951 53.8755V60.1733C85.1951 64.9893 81.2912 68.8932 76.4752 68.8932H70.4197C65.6036 68.8932 61.6997 64.9893 61.6997 60.1733V53.8755C61.6997 51.7351 63.4348 50 65.5752 50ZM81.3194 52.9072H65.5751C65.0399 52.9072 64.6062 53.341 64.6062 53.8761V60.1738C64.6062 63.3846 67.2088 65.9871 70.4195 65.9871H76.475C79.6857 65.9871 82.2883 63.3846 82.2883 60.1738V53.8761C82.2883 53.341 81.8546 52.9072 81.3194 52.9072Z" fill="#707070"/>
<path fill-rule="evenodd" clip-rule="evenodd" d="M32.8755 50H48.6199C50.7603 50 52.4954 51.7351 52.4954 53.8755V60.1733C52.4954 64.9893 48.5915 68.8932 43.7755 68.8932H37.7199C32.9041 68.8932 29 64.9892 29 60.1733V53.8755C29 51.7352 30.7353 50 32.8755 50ZM48.6202 52.9072H32.8759C32.3409 52.9072 31.907 53.3411 31.907 53.8761V60.1738C31.907 63.3845 34.5097 65.9871 37.7203 65.9871H43.7758C46.9865 65.9871 49.5891 63.3846 49.5891 60.1738V53.8761C49.5891 53.341 49.1553 52.9072 48.6202 52.9072Z" fill="#707070"/>
<rect x="51.042" y="53.8755" width="12.111" height="2.42221" fill="#A5A5A5"/>
<path d="M10 335.452C10 327.621 15.0313 326.667 23.2317 323.984C27.2482 322.671 31.3471 321.523 35.5064 320.834C38.1201 320.401 38.8223 322.699 43.4134 322.699C47.5077 322.699 52.6156 320.671 53.6731 320.232C53.806 320.176 53.9631 320.128 54.0687 320.227C54.0942 320.25 54.1159 320.278 54.1317 320.311C54.6207 321.316 57.1868 326.795 57.1868 331.18C57.1868 334.531 57.474 337.829 56.5492 339.533C56.1316 340.303 53.5262 340.721 52.6513 340.721H11.4188C10.6352 340.721 10 336.237 10 335.452Z" fill="#D0D4DB"/>
<mask id="mask0_63_4" style="mask-type:alpha" maskUnits="userSpaceOnUse" x="10" y="320" width="48" height="21">
<path fill-rule="evenodd" clip-rule="evenodd" d="M10 335.452C10 331.544 11.2543 329.348 13.5312 327.795C24.9019 320.041 40.107 320.148 53.8702 320.148C53.9814 320.148 54.083 320.212 54.1317 320.311C54.6206 321.316 57.1868 326.795 57.1868 331.179C57.1868 334.531 57.474 337.829 56.5492 339.533C56.1319 340.303 53.5264 340.721 52.6513 340.721H11.4188C10.6352 340.721 10 336.237 10 335.452Z" fill="white"/>
</mask>
<g mask="url(#mask0_63_4)">
<path d="M15.1381 326.784C11.8353 324.917 13.1306 328.618 10.163 330.19L3.87842 342.234H53.8924C55.1144 340.489 59.9251 336.576 56.1953 336.576C48.0333 336.576 38.1812 336.839 33.4679 336.576C28.7546 336.314 15.2622 337.257 16.0546 333.069C16.9711 328.226 18.1494 328.486 15.1381 326.784Z" fill="#E5E7EB"/>
</g>
<path d="M31.3071 320.314C31.5578 319.98 32.0237 319.902 32.3678 320.13L32.4239 320.17L32.9352 320.546C33.1453 320.701 33.317 320.831 33.4816 320.961L33.5518 321.017C34.9006 322.094 35.6543 323.107 35.6543 324.356C35.6543 324.875 35.163 325.247 34.6697 325.116L34.6262 325.104L27.745 322.87L29.6215 325.888C30.0015 326.499 29.4289 327.249 28.7489 327.061L28.7095 327.049L22.9695 325.166L25.0147 328.078C25.2548 328.42 25.1843 328.887 24.8617 329.143L24.8234 329.172C24.4815 329.412 24.0145 329.342 23.7577 329.019L23.729 328.981L20.3249 324.135C19.8986 323.528 20.4725 322.731 21.1728 322.925L21.2126 322.937L27.1467 324.883L25.2759 321.874C24.8966 321.264 25.4663 320.515 26.1455 320.7L26.1856 320.712L33.47 323.076L33.4487 323.052C33.2376 322.817 32.9742 322.572 32.6586 322.315L32.5713 322.245L32.443 322.143C32.3558 322.075 32.2641 322.006 32.1626 321.93L31.4641 321.414C31.1171 321.154 31.0468 320.661 31.3071 320.314Z" fill="white"/>
<path d="M113.598 335.452C113.598 327.621 108.567 326.667 100.367 323.984C96.3502 322.671 92.251 321.523 88.092 320.834C85.4783 320.401 84.7761 322.699 80.185 322.699C76.0907 322.699 70.9828 320.671 69.925 320.232C69.7924 320.176 69.635 320.128 69.5297 320.227C69.5039 320.25 69.4825 320.278 69.4667 320.311C68.9775 321.316 66.4115 326.795 66.4115 331.18C66.4115 334.531 66.1243 337.829 67.0492 339.533C67.4665 340.303 70.072 340.721 70.9468 340.721H112.179C112.963 340.721 113.598 336.237 113.598 335.452Z" fill="#D0D4DB"/>
<mask id="mask1_63_4" style="mask-type:alpha" maskUnits="userSpaceOnUse" x="66" y="320" width="48" height="21">
<path fill-rule="evenodd" clip-rule="evenodd" d="M113.598 335.452C113.598 331.544 112.344 329.348 110.067 327.795C98.6965 320.041 83.4911 320.148 69.7281 320.148C69.6167 320.148 69.5154 320.212 69.4667 320.311C68.9775 321.316 66.4115 326.795 66.4115 331.179C66.4115 334.531 66.1243 337.829 67.0492 339.533C67.4665 340.303 70.072 340.721 70.9468 340.721H112.179C112.963 340.721 113.598 336.237 113.598 335.452Z" fill="white"/>
</mask>
<g mask="url(#mask1_63_4)">
<path d="M108.46 326.784C111.763 324.917 110.467 328.618 113.435 330.19L119.72 342.234H69.7057C68.4837 340.489 63.6727 336.576 67.4025 336.576C75.5646 336.576 85.4169 336.839 90.1302 336.576C94.8435 336.314 108.336 337.257 107.543 333.069C106.627 328.226 105.449 328.486 108.46 326.784Z" fill="#E5E7EB"/>
</g>
<path d="M92.2913 320.314C92.5516 320.661 92.4813 321.154 92.1342 321.414L91.5962 321.81C91.371 321.977 91.1957 322.11 91.0274 322.244C90.6728 322.527 90.3801 322.796 90.1498 323.052L90.1278 323.077L97.4128 320.712C98.096 320.49 98.6861 321.223 98.3437 321.838L98.3225 321.874L96.4513 324.883L102.386 322.937C103.091 322.706 103.685 323.486 103.297 324.1L103.273 324.135L99.8694 328.981C99.62 329.336 99.13 329.422 98.775 329.172C98.4331 328.932 98.3411 328.469 98.5574 328.118L98.5837 328.078L100.629 325.166L94.8889 327.049C94.205 327.273 93.6124 326.539 93.9561 325.923L93.9769 325.888L95.8531 322.87L88.9722 325.104C88.4792 325.264 87.9738 324.911 87.9454 324.402L87.9441 324.356C87.9441 323.107 88.6979 322.094 90.0469 321.017L90.1882 320.905C90.2599 320.849 90.3337 320.793 90.412 320.734L91.1916 320.157C91.5387 319.897 92.0311 319.967 92.2913 320.314Z" fill="white"/>
</svg>
