<svg width="132" height="355" viewBox="0 0 132 355" fill="none" xmlns="http://www.w3.org/2000/svg">
<path d="M84.25 295.875L82 328.5" stroke="#EBBAAA" stroke-width="13.5" stroke-linecap="round" stroke-linejoin="bevel"/>
<path d="M47.75 295.875L50 328" stroke="#EBBAAA" stroke-width="13.5" stroke-linecap="round" stroke-linejoin="bevel"/>
<path d="M66 237.5C81.8783 237.5 94.75 230.896 94.75 222.75C94.75 214.604 81.8783 208 66 208C50.1217 208 37.25 214.604 37.25 222.75C37.25 230.896 50.1217 237.5 66 237.5Z" fill="#4D5457"/>
<path d="M67.25 219.25H101L96.0985 307.372L92.8595 316.325L73.9237 318L72.1145 309.375L67.25 219.25Z" fill="#4D5457"/>
<path d="M72.25 316H93.5L92.4635 321.5H73.22L72.25 316Z" fill="#434A4C"/>
<path d="M64.75 219.25H31L35.9015 307.372L39.1405 316.325L58.0763 318L59.8855 309.375L64.75 219.25Z" fill="#4D5457"/>
<path d="M59.75 316H38.5L39.5365 321.5H58.78L59.75 316Z" fill="#434A4C"/>
<rect x="55" y="79" width="19" height="42" rx="9.5" fill="#EBBAAA"/>
<path opacity="0.5" d="M100.355 75.0886C105.706 75.0886 110.044 70.7507 110.044 65.3998C110.044 60.0489 105.706 55.7109 100.355 55.7109C95.0042 55.7109 90.6663 60.0489 90.6663 65.3998C90.6663 70.7507 95.0042 75.0886 100.355 75.0886Z" fill="#DE8E7C"/>
<path opacity="0.5" d="M27.6888 75.0886C22.3378 75.0886 18 70.7507 18 65.3998C18 60.0489 22.3378 55.7109 27.6888 55.7109C33.0397 55.7109 37.3777 60.0489 37.3777 65.3998C37.3777 70.7507 33.0397 75.0886 27.6888 75.0886Z" fill="#DE8E7C"/>
<path d="M28.1733 41.662C28.1733 21.5957 44.4402 5.32886 64.5064 5.32886C84.5727 5.32886 100.84 21.5957 100.84 41.662V70.7284C100.84 90.7947 84.5727 107.062 64.5064 107.062C44.4402 107.062 28.1733 90.7947 28.1733 70.7284V41.662Z" fill="#F4D5CC"/>
<path d="M88.1079 42.9985C89.3096 42.9234 90.3446 43.8366 90.4197 45.0382C90.4934 46.218 89.6144 47.2371 88.4452 47.3449L88.3799 47.3499L74.8156 48.1977C73.6139 48.2728 72.5789 47.3596 72.5038 46.158C72.4301 44.9782 73.3091 43.959 74.4783 43.8513L74.5436 43.8462L88.1079 42.9985Z" fill="#393939"/>
<path d="M37.6242 45.0382C37.6979 43.8584 38.697 42.9567 39.8705 42.9953L39.9359 42.9985L53.5003 43.8462C54.7019 43.9213 55.6151 44.9563 55.54 46.158C55.4663 47.3377 54.4673 48.2395 53.2937 48.2008L53.2283 48.1977L39.6639 47.3499C38.4623 47.2748 37.5491 46.2398 37.6242 45.0382Z" fill="#393939"/>
<path d="M79.7663 54.9841C81.3469 54.9841 82.6328 56.2457 82.672 57.8169L82.6729 57.8908V60.7974C82.6729 62.4027 81.3716 63.7041 79.7663 63.7041C78.1857 63.7041 76.8997 62.4425 76.8605 60.8713L76.8596 60.7974V57.8908C76.8596 56.2855 78.161 54.9841 79.7663 54.9841Z" fill="black"/>
<path d="M48.3986 54.9841C49.9792 54.9841 51.2651 56.2457 51.3043 57.8169L51.3052 57.8908V60.7974C51.3052 62.4027 50.0039 63.7041 48.3986 63.7041C46.818 63.7041 45.5321 62.4425 45.4929 60.8713L45.4919 60.7974V57.8908C45.4919 56.2855 46.7933 54.9841 48.3986 54.9841Z" fill="black"/>
<path d="M72.7756 86.0703C73.6668 85.5538 74.8079 85.8576 75.3244 86.7488C75.8408 87.64 75.5371 88.7811 74.6459 89.2975L74.5264 89.3639C74.4897 89.3837 74.448 89.4057 74.4012 89.4298C74.2356 89.5153 74.0434 89.6081 73.8251 89.7064C73.2215 89.978 72.519 90.2462 71.7212 90.4943C69.4781 91.1918 66.9004 91.6078 64.0219 91.6078C61.1434 91.6078 58.5657 91.1918 56.3226 90.4943C55.5249 90.2462 54.8224 89.978 54.2187 89.7064C54.0368 89.6245 53.8731 89.5464 53.7277 89.4732L53.6427 89.4298C53.5335 89.3735 53.4518 89.3287 53.3979 89.2975C52.5068 88.7811 52.203 87.64 52.7195 86.7488C53.2252 85.8762 54.3298 85.5667 55.2122 86.0391L55.3193 86.0984C55.392 86.1369 55.5176 86.1994 55.6947 86.2801L55.7494 86.3049C56.2181 86.5158 56.7797 86.7302 57.4303 86.9325C59.3251 87.5217 61.5313 87.8778 64.0219 87.8778C66.5126 87.8778 68.7187 87.5217 70.6136 86.9325C71.2099 86.747 71.7315 86.5514 72.1753 86.3577L72.2944 86.3049C72.5006 86.2121 72.6446 86.1407 72.7245 86.0984L72.7756 86.0703Z" fill="#C99584"/>
<path d="M101.564 33.06C101.62 31.541 100.52 30.2778 99.1438 30.2778C97.7157 30.2778 96.5976 31.6328 96.7328 33.2014L99.0133 69.4626C99.0515 69.9068 99.389 70.2442 99.7915 70.2442C100.212 70.2442 100.556 69.8795 100.574 69.4178L101.564 33.06Z" fill="#6E6C6C"/>
<path d="M31.32 33.06C31.3764 31.541 30.2765 30.2778 28.8999 30.2778C27.4718 30.2778 26.3537 31.6328 26.4889 33.2014L28.7694 69.4626C28.8076 69.9068 29.1451 70.2442 29.5476 70.2442C29.9684 70.2442 30.3123 69.8795 30.3305 69.4178L31.32 33.06Z" fill="#6E6C6C"/>
<path d="M64.6116 1.32623C71.0912 -1.60937 84.6524 0.0440998 89.1873 9.15938C97.0396 9.15938 104.524 16.9882 102.561 26.6237C106.326 29.6049 107.566 35.7732 104.231 39.9333L104.129 40.0587C100.666 44.2196 101.05 48.5687 97.8982 44.2087C96.1291 41.0509 94.3303 38.5162 92.4044 36.4829L92.3516 36.9755C92.2378 38.0568 92.1272 39.2293 92.0304 40.5076L91.7077 40.0744C86.5068 33.1244 84.7071 32.2901 77.5357 31.7505C75.1566 33.7198 75.9712 37.7608 80.9871 39.9807C75.636 39.9807 64.355 37.7608 64.6728 32.3011L64.5416 32.3704C62.3934 33.4779 60.0159 33.4654 60.0159 39.1245C55.7543 34.4012 47.7435 28.3776 39.1055 34.9016C33.57 39.0822 32.0368 42.5426 30.7554 50.5059L30.7166 50.7486L27.8296 44.868C27.1859 43.7456 26.4279 41.9549 24.9859 40.1823L24.8842 40.0587C21.4217 35.8981 22.6488 29.635 26.4521 26.6237C24.4892 16.9882 31.9733 9.15938 39.8256 9.15938C44.3853 -0.00579071 58.0704 -1.62724 64.507 1.37484L64.6116 1.32623Z" fill="#393939"/>
<path d="M62.3088 61.8354L65.7349 64.1196C64.5705 65.8663 63.6585 68.4881 63.6585 70.3955C63.6585 72.2343 64.3224 73.0075 66.3548 73.0292L66.4441 73.0297V77.1474C61.9525 77.1474 59.5408 74.4342 59.5408 70.3955C59.5408 67.6596 60.679 64.3385 62.2241 61.964L62.3088 61.8354Z" fill="#EBBAAA"/>
<path d="M14.6145 152.292C16.9383 147.743 22.5102 145.939 27.0597 148.262C31.5638 150.563 33.3772 156.047 31.1582 160.571L31.0898 160.708C27.8681 167.015 24.467 179.728 22.6905 192.036L22.6372 192.408C21.7793 198.461 21.3984 203.874 21.5502 207.806L21.5632 208.112C21.6219 209.365 21.7344 210.383 21.8743 211.102L21.8891 211.177L21.8969 211.186C24.5237 214.193 24.9771 218.672 22.7501 222.202L22.6674 222.331C19.8717 226.607 14.1392 227.806 9.8634 225.011C6.80781 223.013 5.13737 220.093 4.15633 216.529C3.52262 214.226 3.18162 211.567 3.06397 208.52C2.86736 203.427 3.30439 197.086 4.27154 190.159L4.32034 189.812C6.34381 175.538 10.2684 160.801 14.6145 152.292Z" fill="#EBBAAA"/>
<path d="M99.9729 141.943C104.422 139.433 110.064 141.006 112.574 145.455C118.498 155.957 122.871 170.796 125.129 186.305C127.278 201.073 127.234 214.428 124.53 221.864C122.784 226.665 117.477 229.142 112.676 227.396C107.923 225.668 105.448 220.449 107.093 215.686L107.144 215.542C108.527 211.738 108.563 200.932 106.822 188.969C104.866 175.533 101.109 162.784 96.4611 154.545C93.9511 150.095 95.5234 144.453 99.9729 141.943Z" fill="#EBBAAA"/>
<rect x="54" y="107.5" width="20" height="37" rx="9.74753" fill="#EBBAAA"/>
<path d="M53.7944 132.671C54.5044 132.671 55.0799 132.095 55.0799 131.385C55.0799 130.675 54.5044 130.1 53.7944 130.1C53.0844 130.1 52.5088 130.675 52.5088 131.385C52.5088 132.095 53.0844 132.671 53.7944 132.671Z" fill="#E5EBF9"/>
<path d="M62.7676 128.5C61.8813 126.875 62.2676 122.375 62.2676 122.375L56.7363 121.918L48.8926 111.5C41.1008 112.875 40.7676 113.375 35.1426 115.875C28.4323 118.857 29.7676 128.875 28.7676 142.5L31.7676 219.625L47.1426 221.918L59.8613 222.168L63.3926 134.375C63.3926 134.375 63.6538 130.125 62.7676 128.5Z" fill="#DEDEE2"/>
<path d="M63.0176 132.25C63.2676 130.25 63.6426 127.875 65.2676 126.25C66.8926 124.625 68.6426 122.75 68.6426 122.75H74.0959L81.8459 112.25C81.8459 112.25 92.9706 113.75 96.7206 115.75C100.471 117.75 102.721 139.625 102.721 139.625L101.643 219.625L94.9706 222.25H60.8456C59.3459 195 62.5956 143.292 62.5956 139.625C62.5956 138.043 62.7676 134.25 63.0176 132.25Z" fill="#DEDEE2"/>
<mask id="mask0_63_2" style="mask-type:alpha" maskUnits="userSpaceOnUse" x="60" y="113" width="45" height="111">
<path fill-rule="evenodd" clip-rule="evenodd" d="M63.0646 128.793C63.3146 126.793 63.4396 125.918 63.9396 124.793L68.2206 124.25H74.0959L81.8459 113.75C81.8459 113.75 92.9706 115.25 96.7206 117.25C100.471 119.25 102.721 141.125 102.721 141.125L104.471 221.125L94.9706 223.75H60.8456C59.3459 196.5 62.5954 144.792 62.5956 141.125C62.5956 139.543 62.8146 130.793 63.0646 128.793Z" fill="white"/>
</mask>
<g mask="url(#mask0_63_2)">
<path d="M68.7676 174.125C68.8676 164.625 70.9601 129.625 68.5851 120.75C68.5851 120.75 66.9048 122.561 65.2101 124.125C63.5151 125.689 63.2101 128.375 63.2101 128.375V128.5L57.7676 222.125H68.7676C68.5176 209.958 68.6676 183.625 68.7676 174.125Z" fill="#CDCBD6"/>
<path d="M68.7676 174.125C68.8676 164.625 70.9601 129.625 68.5851 120.75C68.5851 120.75 66.9048 122.561 65.2101 124.125C63.5151 125.689 63.2101 128.375 63.2101 128.375V128.5L57.7676 222.125H68.7676C68.5176 209.958 68.6676 183.625 68.7676 174.125Z" fill="#CDCBD6"/>
<path fill-rule="evenodd" clip-rule="evenodd" d="M77.3539 125.597L77.1039 125.596L76.7524 223.951L77.0024 223.952L77.3539 125.597ZM75.2301 125.663L75.4801 125.664L75.1284 224.018L74.8784 224.018L75.2301 125.663ZM73.3566 125.74L73.1066 125.739L72.7549 224.094L73.0049 224.095L73.3566 125.74ZM71.2329 125.816L70.9829 125.815L70.6311 224.17L70.8811 224.171L71.2329 125.816Z" fill="black" fill-opacity="0.32"/>
<path fill-rule="evenodd" clip-rule="evenodd" d="M61.6633 226.824L62.0151 128.469L62.2651 128.47L61.9133 226.825L61.6633 226.824ZM63.7871 226.748L64.1388 128.393L64.3888 128.394L64.0371 226.749L63.7871 226.748ZM65.9106 226.671L66.2623 128.316L66.5123 128.317L66.1606 226.672L65.9106 226.671ZM67.7846 226.604L68.1361 128.25L68.3861 128.25L68.0346 226.605L67.7846 226.604Z" fill="black" fill-opacity="0.13"/>
</g>
<path d="M66.3926 133.25C67.152 133.25 67.7676 132.634 67.7676 131.875C67.7676 131.116 67.152 130.5 66.3926 130.5C65.6332 130.5 65.0176 131.116 65.0176 131.875C65.0176 132.634 65.6332 133.25 66.3926 133.25Z" fill="#BAB8C6"/>
<path d="M66.1426 140.75C66.902 140.75 67.5176 140.134 67.5176 139.375C67.5176 138.616 66.902 138 66.1426 138C65.3832 138 64.7676 138.616 64.7676 139.375C64.7676 140.134 65.3832 140.75 66.1426 140.75Z" fill="#BAB8C6"/>
<path d="M65.8926 152.75C66.652 152.75 67.2676 152.078 67.2676 151.25C67.2676 150.422 66.652 149.75 65.8926 149.75C65.1332 149.75 64.5176 150.422 64.5176 151.25C64.5176 152.078 65.1332 152.75 65.8926 152.75Z" fill="#BAB8C6"/>
<path d="M65.3926 165.75C66.152 165.75 66.7676 165.134 66.7676 164.375C66.7676 163.616 66.152 163 65.3926 163C64.6332 163 64.0176 163.616 64.0176 164.375C64.0176 165.134 64.6332 165.75 65.3926 165.75Z" fill="#BAB8C6"/>
<path d="M65.3926 179C66.152 179 66.7676 178.384 66.7676 177.625C66.7676 176.866 66.152 176.25 65.3926 176.25C64.6332 176.25 64.0176 176.866 64.0176 177.625C64.0176 178.384 64.6332 179 65.3926 179Z" fill="#BAB8C6"/>
<path d="M65.3926 193.5C66.152 193.5 66.7676 192.884 66.7676 192.125C66.7676 191.366 66.152 190.75 65.3926 190.75C64.6332 190.75 64.0176 191.366 64.0176 192.125C64.0176 192.884 64.6332 193.5 65.3926 193.5Z" fill="#BAB8C6"/>
<path d="M65.3926 206.75C66.152 206.75 66.7676 206.134 66.7676 205.375C66.7676 204.616 66.152 204 65.3926 204C64.6332 204 64.0176 204.616 64.0176 205.375C64.0176 206.134 64.6332 206.75 65.3926 206.75Z" fill="#BAB8C6"/>
<mask id="mask1_63_2" style="mask-type:alpha" maskUnits="userSpaceOnUse" x="28" y="111" width="36" height="112">
<path fill-rule="evenodd" clip-rule="evenodd" d="M62.7671 128.5C61.8808 126.875 62.2671 122.375 62.2671 122.375L56.7358 121.918L48.8921 111.5C41.1003 112.875 40.7671 113.375 35.1421 115.875C28.4318 118.857 29.7671 128.875 28.7671 142.5L31.7671 219.625L47.1421 221.918L59.8608 222.168L63.3921 134.375C63.3921 134.375 63.6533 130.125 62.7671 128.5Z" fill="white"/>
</mask>
<g mask="url(#mask1_63_2)">
<path fill-rule="evenodd" clip-rule="evenodd" d="M55.2673 125.005L55.0175 124.995L51.1425 222.37L51.3923 222.38L55.2673 125.005ZM57.1424 124.995L57.3922 125.005L53.5172 222.38L53.2674 222.37L57.1424 124.995ZM59.5172 125.005L59.2674 124.995L55.3924 222.37L55.6422 222.38L59.5172 125.005ZM61.3922 125.005L61.1424 124.995L57.2674 222.37L57.5172 222.38L61.3922 125.005Z" fill="black" fill-opacity="0.32"/>
</g>
<path d="M62.5531 127.125C62.1531 126.125 62.1423 123.708 62.2673 122.375C60.6006 122.833 57.6418 123.925 59.1418 124.625C60.6418 125.325 62.6368 129.042 63.4286 130.875C63.2618 130.167 62.9531 128.125 62.5531 127.125Z" fill="#CDCBD6"/>
<path d="M55.3929 116.125C53.8751 113.469 54.3929 110.75 54.1999 107.75L48.4811 110.582C48.4811 110.582 46.4816 113.582 47.7311 120.832C48.5929 125.832 46.3929 129.75 52.8929 133.625C53.6429 127 61.0151 123.538 62.2679 122.375C59.8929 121.125 57.3929 119.625 55.3929 116.125Z" fill="#CDCBD6"/>
<mask id="mask2_63_2" style="mask-type:alpha" maskUnits="userSpaceOnUse" x="47" y="107" width="16" height="27">
<path fill-rule="evenodd" clip-rule="evenodd" d="M55.3927 116.125C53.875 113.469 54.3927 110.75 54.2 107.75L48.4812 110.582C48.4812 110.582 46.4815 113.582 47.7312 120.832C48.5927 125.832 46.3927 129.75 52.8927 133.625C53.6427 127 61.015 123.538 62.2677 122.375C59.8927 121.125 57.3927 119.625 55.3927 116.125Z" fill="white"/>
</mask>
<g mask="url(#mask2_63_2)">
<path d="M54.3217 107.75C51.9134 110.078 50.5122 111.94 51.6944 117.319C52.8767 122.699 55.8722 125.98 56.7674 126.75" stroke="black" stroke-opacity="0.12" stroke-width="0.25"/>
<path d="M50.9912 109C48.6212 111.31 48.6117 114.304 49.7752 119.642C50.9384 124.98 53.8864 128.236 54.7674 129" stroke="black" stroke-opacity="0.12" stroke-width="0.25"/>
<path d="M56.7525 106.75C54.399 109.016 53.0295 110.83 54.185 116.068C55.3405 121.306 58.2678 124.5 59.1428 125.25" stroke="black" stroke-opacity="0.12" stroke-width="0.25"/>
<path d="M59.2525 106.5C56.899 108.766 55.5295 110.58 56.685 115.818C57.8405 121.056 60.7678 124.25 61.6428 125" stroke="black" stroke-opacity="0.12" stroke-width="0.25"/>
</g>
<path d="M67.5176 127.25C70.2676 125.75 72.6426 125.125 74.1426 124C73.6426 121.7 70.0176 122.25 68.6426 122.75C68.2258 123.292 67.0426 124.65 65.6426 125.75C64.2426 126.85 63.4343 129.292 63.2676 130.375C63.8508 130.042 65.8311 128.17 67.5176 127.25Z" fill="#CDCBD6"/>
<path d="M73.2673 115.875C74.1271 113.031 74.0748 108.375 74.0748 107L81.3561 110.582C81.3561 110.582 82.8561 113.957 81.3561 120.832C79.7128 128.364 78.1066 125.5 76.3923 127.5C74.6423 124.5 72.1423 122.75 68.5173 122.75C72.0173 119.75 72.5116 118.375 73.2673 115.875Z" fill="#CDCBD6"/>
<mask id="mask3_63_2" style="mask-type:alpha" maskUnits="userSpaceOnUse" x="68" y="107" width="15" height="21">
<path fill-rule="evenodd" clip-rule="evenodd" d="M73.2671 115.875C74.1268 113.031 74.0746 108.375 74.0746 107L81.3558 110.582C81.3558 110.582 82.8558 113.957 81.3558 120.832C79.7126 128.364 78.1063 125.5 76.3921 127.5C74.6421 124.5 72.1421 122.75 68.5171 122.75C72.0171 119.75 72.5113 118.375 73.2671 115.875Z" fill="white"/>
</mask>
<g mask="url(#mask3_63_2)">
<path d="M74.8923 107.375C76.7256 109.625 77.7923 111.425 76.8923 116.625C75.9923 121.825 73.9341 124.5 73.5173 124.5" stroke="black" stroke-opacity="0.12" stroke-width="0.25"/>
<path d="M72.8921 105.75C74.7253 108 75.7921 109.8 74.8921 115C73.9921 120.2 71.9338 122.875 71.5171 122.875" stroke="black" stroke-opacity="0.12" stroke-width="0.25"/>
<path d="M76.6423 108.75C78.4756 111 79.5423 112.8 78.6423 118C77.7423 123.2 75.6841 125.875 75.2673 125.875" stroke="black" stroke-opacity="0.12" stroke-width="0.25"/>
</g>
<path d="M72.8499 123.758L72.935 123.993L72.6529 124.096C68.98 125.46 65.112 127.57 63.7944 129.377L63.745 129.446L63.5398 129.304C64.8468 127.425 68.7974 125.261 72.5642 123.862L72.8499 123.758Z" fill="black" fill-opacity="0.12"/>
<path d="M72.3442 122.885L72.4407 123.115C69.6657 124.277 66.3566 125.974 64.6866 127.276L64.5955 127.348L64.4393 127.152C66.0708 125.847 69.3746 124.14 72.1883 122.95L72.3442 122.885Z" fill="black" fill-opacity="0.12"/>
<path d="M71.2132 122.137L71.3214 122.363L71.114 122.466C70.8333 122.61 70.5069 122.801 69.7911 123.234L68.6915 123.9C67.9192 124.363 67.4287 124.639 67.0356 124.822L66.9431 124.864L66.8416 124.636L66.9316 124.595C67.3299 124.409 67.8394 124.121 68.6586 123.628L70.1386 122.733C70.5826 122.468 70.8251 122.331 71.0544 122.215L71.2132 122.137Z" fill="black" fill-opacity="0.12"/>
<path d="M57.9761 151.746C56.4393 149.947 53.3663 143.999 52.0858 141.5C50.8478 167.531 50.1401 223.517 53.1111 223.717C56.8246 223.967 67.5801 225.216 68.3483 222.717C69.1166 220.218 67.0676 162.492 66.2991 160.118C65.5306 157.743 59.8968 153.995 57.9761 151.746Z" fill="#273447"/>
<path d="M70.5179 151.75C72.0179 149.95 75.0179 144 76.2679 141.5C77.4764 167.542 78.1674 223.55 75.2671 223.75C71.6419 224 61.1424 225.25 60.3924 222.75C59.6424 220.25 61.6426 162.5 62.3929 160.125C63.1431 157.75 68.6429 154 70.5179 151.75Z" fill="#2B394D"/>
<path d="M77.0174 132.625C78.4146 124.713 82.8924 109.829 75.3249 107.375C75.3249 107.375 81.7591 109.233 91.9501 113.125C102.141 117.017 104.014 123.958 104.014 123.958C106.275 128.587 108.879 150.003 109.517 176.5C110.156 202.997 108.268 212.375 105.267 224.75C99.8921 226.875 86.6424 228.375 73.1424 229.125C73.1424 226.041 72.6424 218.457 72.5174 214C72.3924 209.543 71.9896 201.847 72.1424 182.625C72.2771 165.664 74.9641 144.251 77.0174 132.625Z" fill="#5E82AE"/>
<path d="M12.3924 143.625C17.1737 123.361 19.45 120.375 36.4499 114.125C36.4499 114.125 28.4811 140.957 28.4811 152.957C28.4811 164.957 30.3561 183.707 30.3561 183.707C28.6061 194.207 32.7321 212.75 30.3571 218.375C23.9822 220.375 5.73126 219.875 2.73224 216.25C-0.266785 212.625 -0.731629 203.625 1.01739 190.75C2.76641 177.875 9.76739 154.75 12.3924 143.625Z" fill="#5E82AE"/>
<path d="M54.2676 136.625C53.0053 128.713 43.6426 115.375 53.4501 107.75C53.4501 107.75 50.2001 109.375 40.0751 112.625C29.9501 115.875 28.2738 124.208 28.2738 124.208C26.2313 128.837 25.5943 150.753 25.0176 177.25C24.4409 203.747 22.9546 211 25.0171 222.5C29.8726 224.625 40.4991 226.957 52.5811 228.582C52.5811 225.499 53.5111 220.942 53.5973 217.457C53.8793 206.08 56.9631 197.695 56.8251 178.473C56.7034 161.513 56.1221 148.251 54.2676 136.625Z" fill="#5E82AE"/>
<path d="M42.0116 218.047C42.0116 209.725 42.5281 205.066 43.5106 199.407C43.7648 197.943 36.8211 194.359 33.3173 192.75L23.1243 194.082C21.8662 201.404 21.4454 212.188 23.1243 213.386C25.2228 214.884 37.0646 220.044 42.0116 218.047Z" fill="#577BA6"/>
<path d="M21.2268 193.24L22.808 188.76L24.5001 189.356C33.0764 192.359 39.1047 194.273 44.1194 195.395L44.2809 195.431L43.2539 200.069L42.9152 199.993C37.7588 198.827 31.7352 196.918 23.2335 193.945L21.2268 193.24Z" fill="#4A6A90"/>
<path d="M130.517 189.25C128.642 178.875 126.267 168.25 123.142 158.5C117.52 140.957 113.587 127.009 109.575 120.75C106.311 115.657 95.575 114.375 92.95 113.5L104.267 183.875C104.267 195.375 104.017 208.25 103.517 217.625C109.892 219.625 126.392 221.5 129.392 217.625C132.392 213.75 132.392 199.625 130.517 189.25Z" fill="#5E82AE"/>
<path d="M87.2116 221.402C87.2116 212.848 86.6288 208.058 85.5211 202.242C85.2341 200.736 102.026 194.154 105.978 192.5L107.766 194.717C107.766 204.5 107.87 216.92 105.977 218.151C103.61 219.691 92.7906 223.454 87.2116 221.402Z" fill="#577BA6"/>
<path d="M107.506 191.75L109.029 196.25L108.411 196.457C102.143 198.548 93.4002 201.006 86.4939 202.651L85.8095 202.812L84.7253 198.188L85.3964 198.029C92.1692 196.416 100.775 193.997 106.901 191.954L107.506 191.75Z" fill="#4A6A90"/>
<path d="M127.574 214.318C128.229 214.1 128.565 213.339 128.324 212.618C128.084 211.898 127.358 211.491 126.703 211.71C126.048 211.928 125.712 212.689 125.953 213.41C126.193 214.13 126.919 214.537 127.574 214.318Z" fill="#4A6A90"/>
<path d="M127.809 210.287C128.464 210.068 128.8 209.307 128.559 208.587C128.319 207.866 127.593 207.459 126.938 207.678C126.284 207.897 125.948 208.658 126.188 209.378C126.428 210.098 127.154 210.505 127.809 210.287Z" fill="#4A6A90"/>
<path d="M128.045 206.254C128.7 206.036 129.036 205.275 128.796 204.554C128.555 203.834 127.83 203.427 127.175 203.646C126.52 203.864 126.184 204.625 126.424 205.346C126.665 206.066 127.391 206.473 128.045 206.254Z" fill="#4A6A90"/>
<path d="M5.00331 212.299C5.61385 211.977 5.82146 211.171 5.46701 210.499C5.11256 209.828 4.33029 209.545 3.71974 209.867C3.1092 210.189 2.90159 210.995 3.25604 211.666C3.61049 212.338 4.39277 212.621 5.00331 212.299Z" fill="#4A6A90"/>
<path d="M4.57948 208.283C5.19003 207.96 5.39763 207.155 5.04318 206.483C4.68874 205.812 3.90646 205.528 3.29591 205.851C2.68537 206.173 2.47777 206.979 2.83221 207.65C3.18666 208.322 3.96894 208.605 4.57948 208.283Z" fill="#4A6A90"/>
<path d="M4.15663 204.266C4.76718 203.943 4.97478 203.138 4.62033 202.466C4.26588 201.795 3.48361 201.511 2.87306 201.834C2.26252 202.156 2.05491 202.961 2.40936 203.633C2.76381 204.305 3.54609 204.588 4.15663 204.266Z" fill="#4A6A90"/>
<path d="M42.019 113C42.8265 110 53.701 107.625 53.701 107.625C51.0185 110.375 49.8185 112.3 51.0185 119.5C52.2185 126.7 58.8935 146.375 56.826 184.375C56.826 184.375 36.3932 126.5 37.0182 125.375C37.288 124.89 39.4762 125.172 41.8775 125.65C41.6892 121.94 41.442 115.143 42.019 113Z" fill="#4A6A90"/>
<path d="M86.6189 112.625C85.8299 109.625 75.2061 107.25 75.2061 107.25C77.8269 110 78.9991 111.925 77.8269 119.125C76.6546 126.325 70.1334 146 72.1531 184C72.1531 184 92.1146 126.125 91.5041 125C91.2406 124.515 89.1029 124.797 86.7569 125.275C86.9409 121.565 87.1824 114.768 86.6189 112.625Z" fill="#4A6A90"/>
<path d="M65.8926 166.25C66.79 166.25 67.5176 165.355 67.5176 164.25C67.5176 163.145 66.79 162.25 65.8926 162.25C64.9951 162.25 64.2676 163.145 64.2676 164.25C64.2676 165.355 64.9951 166.25 65.8926 166.25Z" fill="#263245"/>
<path d="M65.6426 180C66.54 180 67.2676 179.105 67.2676 178C67.2676 176.895 66.54 176 65.6426 176C64.7451 176 64.0176 176.895 64.0176 178C64.0176 179.105 64.7451 180 65.6426 180Z" fill="#263245"/>
<path d="M65.3926 193.75C66.29 193.75 67.0176 192.855 67.0176 191.75C67.0176 190.645 66.29 189.75 65.3926 189.75C64.4951 189.75 63.7676 190.645 63.7676 191.75C63.7676 192.855 64.4951 193.75 65.3926 193.75Z" fill="#263245"/>
<path d="M65.1426 207.5C66.04 207.5 66.7676 206.605 66.7676 205.5C66.7676 204.395 66.04 203.5 65.1426 203.5C64.2451 203.5 63.5176 204.395 63.5176 205.5C63.5176 206.605 64.2451 207.5 65.1426 207.5Z" fill="#263245"/>
<path d="M116.705 349.113C117.176 347.945 116.837 346.345 116.573 345.908C116.309 345.473 84.2772 343.47 84.2772 343.47C78.9605 343.035 68.422 341.205 67.6937 344.355C66.7927 348.253 66.834 349.133 67.448 352.15C68.4305 353.155 78.3695 354.035 81.592 353.28C81.592 351.52 81.843 350.39 81.843 350.39C81.843 350.39 83.6392 351.53 85.7467 352.025C90.045 353.03 90.868 354.035 104.181 354.035C114.859 353.03 115.65 351.725 116.705 349.113Z" fill="#272727"/>
<path d="M82.0622 332.162C79.3917 332.197 75.315 331.317 73.0942 328.23C72.8997 327.96 72.5012 327.917 72.2745 328.16C70.2755 330.315 71.5702 329.09 70.7677 332.792C69.9757 336.447 69.3072 335.925 68.5152 339.32C67.967 341.67 66.1912 347.152 68.5152 347.152H79.1147C81.6225 347.152 85.0095 350.072 93.3605 350.892C107.223 352.255 110.61 350.39 113.378 349.51C119.676 347.507 116.48 342.927 113.378 341.465C108.834 339.32 102.322 337.71 99.0097 335.932C96.4305 334.55 95.5447 334.12 94.2202 332.665C92.5285 330.805 91.812 329.617 91.2755 328.692C91.0532 328.31 90.448 328.395 90.2122 328.77C88.75 331.1 84.5287 332.13 82.0622 332.162Z" fill="#563D2A"/>
<path d="M90.41 329.775C89.867 330.998 87.6882 332.37 87.6882 333.323L93.044 331.408L90.41 335.305L95.4287 333.868L93.044 337.19L98.688 336.045L95.4287 339.203" stroke="#2C221B" stroke-width="1.35342" stroke-linecap="round" stroke-linejoin="round"/>
<path d="M111.775 345.695C109.434 346.405 105.863 347.415 100.492 346.288" stroke="#7C593E" stroke-width="1.75" stroke-linecap="round"/>
<path d="M93.8981 339.075C91.4421 336.813 89.6156 335.683 87.6506 333.168C86.5864 333.168 85.1811 333.293 81.1286 333.293C75.8479 333.293 74.4479 331.03 72.1146 328.39C70.3421 329.523 71.2549 331.91 70.0269 335.18C69.0444 337.795 67.2021 341.715 67.2021 346.493C68.0619 348 76.5356 347.248 79.2374 347.248C79.8514 344.23 84.6404 341.715 86.7726 341.088C88.6441 340.535 90.8279 340.333 93.8981 339.075Z" fill="#423023"/>
<path d="M15.2949 349.113C14.8238 347.945 15.1628 346.345 15.4267 345.908C15.6905 345.473 47.7227 343.47 47.7227 343.47C53.0395 343.035 63.578 341.205 64.3062 344.355C65.2072 348.253 65.166 349.133 64.5518 352.15C63.5695 353.155 53.6305 354.035 50.408 353.28C50.408 351.52 50.157 350.39 50.157 350.39C50.157 350.39 48.3607 351.53 46.2532 352.025C41.955 353.03 41.132 354.035 27.8185 354.035C17.1405 353.03 16.3495 351.725 15.2949 349.113Z" fill="#272727"/>
<path d="M49.9377 332.162C52.6082 332.197 56.685 331.317 58.9057 328.229C59.1002 327.959 59.4987 327.917 59.7255 328.159C61.7242 330.314 60.4297 329.089 61.2322 332.792C62.0242 336.447 62.6927 335.924 63.4847 339.319C64.033 341.669 65.8087 347.152 63.4847 347.152H52.8852C50.3775 347.152 46.9905 350.072 38.6395 350.892C24.7769 352.254 21.3894 350.389 18.6215 349.509C12.3237 347.507 15.5197 342.927 18.6215 341.464C23.1654 339.319 29.6777 337.709 32.9902 335.932C35.5695 334.549 36.4552 334.119 37.7797 332.664C39.4715 330.804 40.188 329.617 40.7245 328.692C40.9467 328.309 41.552 328.394 41.7877 328.769C43.25 331.099 47.4712 332.129 49.9377 332.162Z" fill="#563D2A"/>
<path d="M41.59 329.775C42.133 330.998 44.3118 332.37 44.3118 333.323L38.956 331.408L41.59 335.305L36.571 333.868L38.956 337.19L33.312 336.045L36.571 339.203" stroke="#2C221B" stroke-width="1.35342" stroke-linecap="round" stroke-linejoin="round"/>
<path d="M20.2252 345.695C22.5656 346.405 26.1366 347.415 31.5082 346.288" stroke="#7C593E" stroke-width="1.75" stroke-linecap="round"/>
<path d="M38.1018 339.075C40.5578 336.813 42.3843 335.683 44.3493 333.168C45.4136 333.168 46.8186 333.293 50.8713 333.293C56.1521 333.293 57.5521 331.03 59.8853 328.39C61.6578 329.523 60.7451 331.91 61.9731 335.18C62.9556 337.795 64.7978 341.715 64.7978 346.493C63.9381 348 55.4643 347.248 52.7626 347.248C52.1483 344.23 47.3596 341.715 45.2273 341.088C43.3558 340.535 41.1721 340.333 38.1018 339.075Z" fill="#423023"/>
<path fill-rule="evenodd" clip-rule="evenodd" d="M72.5 50H92.5C94.433 50 96 51.567 96 53.5V66C96 70.004 92.754 73.25 88.75 73.25H82.5C75.0442 73.25 69 67.2058 69 59.75V53.5C69 51.567 70.567 50 72.5 50ZM92.5 52H72.5C71.6715 52 71 52.6715 71 53.5V59.75C71 66.1012 76.1488 71.25 82.5 71.25H88.75C91.6495 71.25 94 68.8995 94 66V53.5C94 52.6715 93.3285 52 92.5 52Z" fill="#685454" fill-opacity="0.75"/>
<path fill-rule="evenodd" clip-rule="evenodd" d="M36.5 50H56.5C58.433 50 60 51.567 60 53.5V59.75C60 67.2058 53.9558 73.25 46.5 73.25H40.25C36.246 73.25 33 70.004 33 66V53.5C33 51.567 34.567 50 36.5 50ZM56.5 52H36.5C35.6715 52 35 52.6715 35 53.5V66C35 68.8995 37.3505 71.25 40.25 71.25H46.5C52.8512 71.25 58 66.1012 58 59.75V53.5C58 52.6715 57.3285 52 56.5 52Z" fill="#685454" fill-opacity="0.75"/>
<rect x="58.25" y="53.5" width="12.5" height="2" fill="#685454" fill-opacity="0.75"/>
</svg>
