<svg width="115" height="344" viewBox="0 0 115 344" fill="none" xmlns="http://www.w3.org/2000/svg">
<path d="M70.0779 290.736C70.4306 287.025 73.7251 284.303 77.4363 284.655C81.1104 285.005 83.8155 288.237 83.5269 291.903L83.5173 292.014L80.3923 324.889C80.0395 328.6 76.745 331.323 73.0338 330.97C69.3597 330.621 66.6546 327.388 66.9432 323.723L66.9529 323.611L70.0779 290.736Z" fill="#EBBAAA"/>
<path d="M38.3681 284.655C42.0421 284.306 45.3078 286.971 45.7151 290.625L45.7265 290.736L48.8515 323.611C49.2043 327.322 46.4818 330.617 42.7706 330.97C39.0965 331.319 35.8308 328.654 35.4236 325L35.4121 324.889L32.2871 292.014C31.9343 288.303 34.6569 285.008 38.3681 284.655Z" fill="#EBBAAA"/>
<path d="M28.751 318.615C29.0923 318.462 29.4924 318.616 29.6447 318.957C30.1321 320.05 30.2411 321.082 30.2406 322.848C30.2405 323.322 29.768 323.644 29.3313 323.483L29.2917 323.467L26.027 322.033L26.7215 324.539C26.8616 325.045 26.3999 325.505 25.902 325.376L25.8626 325.364L22.5792 324.31L22.5794 327.263C22.5794 327.761 22.0622 328.083 21.6192 327.877L21.5814 327.858L19.3535 326.656L19.3534 328.87C19.3534 329.23 19.0724 329.524 18.7179 329.546L18.6767 329.547C18.3168 329.547 18.0225 329.266 18.0012 328.911L18 328.87L18.0001 325.523C18.0001 325.024 18.5173 324.702 18.9603 324.908L18.9981 324.927L21.2257 326.129L21.226 323.383C21.226 322.938 21.6452 322.619 22.0685 322.726L22.1095 322.738L25.0825 323.692L24.342 321.021C24.1932 320.484 24.7187 320.013 25.2299 320.206L25.2663 320.22L28.8672 321.802L28.8639 321.725C28.8189 320.833 28.7008 320.194 28.4418 319.584L28.4086 319.508C28.2564 319.167 28.4097 318.767 28.751 318.615Z" fill="white"/>
<path d="M84.8691 318.957C85.0214 318.616 85.4215 318.462 85.7628 318.615C86.1042 318.767 86.2574 319.167 86.1052 319.508C85.8229 320.141 85.6968 320.795 85.65 321.725L85.6462 321.802L89.2475 320.22C89.7576 319.996 90.2984 320.449 90.1813 320.983L90.1718 321.021L89.4312 323.692L92.4043 322.738C92.8275 322.602 93.26 322.904 93.2866 323.34L93.2879 323.383L93.2877 326.129L95.5156 324.927C95.954 324.691 96.4833 324.993 96.5124 325.48L96.5136 325.522L96.5139 328.87C96.5139 329.244 96.211 329.547 95.8372 329.547C95.4773 329.547 95.183 329.266 95.1617 328.911L95.1605 328.87L95.16 326.656L92.9324 327.858C92.4941 328.095 91.9648 327.793 91.9357 327.305L91.9345 327.263L91.9342 324.311L88.6512 325.364C88.1518 325.525 87.6737 325.082 87.7825 324.579L87.7923 324.539L88.4867 322.033L85.2221 323.467C84.7881 323.658 84.3028 323.355 84.2745 322.89L84.2732 322.848L84.2742 322.56C84.286 320.967 84.4088 319.989 84.8691 318.957Z" fill="white"/>
<path d="M57.2568 235.5C73.1351 235.5 86.0068 228.896 86.0068 220.75C86.0068 212.604 73.1351 206 57.2568 206C41.3786 206 28.5068 212.604 28.5068 220.75C28.5068 228.896 41.3786 235.5 57.2568 235.5Z" fill="#999999"/>
<path d="M58.5068 214.75H92.2568L87.3553 302.872L84.1163 311.825L65.1806 313.5L63.3713 304.875L58.5068 214.75Z" fill="#999999"/>
<path d="M63.5068 311.5H84.7568L83.7203 317H64.4768L63.5068 311.5Z" fill="#E2E2E2"/>
<path d="M56.0068 214.75H22.2568L27.1583 302.872L30.3973 311.825L49.3331 313.5L51.1423 304.875L56.0068 214.75Z" fill="#999999"/>
<path d="M51.0068 311.5H29.7568L30.7933 317H50.0368L51.0068 311.5Z" fill="#E2E2E2"/>
<path d="M85.9717 224.542C87.5459 224.142 91.1182 221.918 91.7234 222.292C93.3884 224.042 92.3289 268.525 91.4207 269.9C90.5124 271.275 82.7932 271.775 82.7932 269.9C82.7932 268.025 82.6419 261.528 82.7932 256.405C82.9444 251.283 80.3714 225.666 81.5824 225.292C82.7932 224.917 84.0042 225.042 85.9717 224.542Z" fill="#777777"/>
<path d="M84.0042 226.416C85.2149 226.291 90.2099 224.541 91.7234 223.417C92.7829 224.541 94.5992 232.289 92.6317 233.288C90.6639 234.288 85.5177 234.163 84.9122 233.288C84.3067 232.413 82.7932 226.541 84.0042 226.416Z" fill="#595A5B"/>
<path fill-rule="evenodd" clip-rule="evenodd" d="M84.3354 227.816L84.5802 227.765C84.6721 228.207 84.7833 228.723 84.8964 229.229L84.6525 229.284C84.5674 228.903 84.4834 228.517 84.4079 228.161L84.3354 227.816ZM84.9935 230.748L85.2364 230.688C85.3731 231.246 85.4929 231.695 85.5904 232.008L85.6281 232.126L85.3908 232.204C85.3034 231.94 85.1966 231.556 85.0743 231.072L84.9935 230.748ZM86.6996 232.952C87.1471 233.016 87.6718 233.061 88.208 233.078L88.2161 232.829C87.6889 232.811 87.1733 232.767 86.7351 232.704L86.6996 232.952ZM91.2292 232.811C90.7932 232.928 90.285 233.007 89.7248 233.05L89.7058 232.8C90.2515 232.759 90.7447 232.682 91.1642 232.569L91.2292 232.811Z" fill="#2B2B2B"/>
<path fill-rule="evenodd" clip-rule="evenodd" d="M91.363 222.931L91.4783 223.153C91.2165 223.289 90.9204 223.44 90.6104 223.596L90.1376 223.831L90.0268 223.607C90.3976 223.424 90.7632 223.24 91.0915 223.071L91.363 222.931ZM88.6777 224.257L88.7835 224.483C88.272 224.722 87.8086 224.929 87.4088 225.096L87.3125 224.866C87.6295 224.733 87.9875 224.575 88.3784 224.396L88.6777 224.257ZM85.963 225.576L85.915 225.33L85.7461 225.363C85.3931 225.429 84.9505 225.506 84.4415 225.589L84.4819 225.836L84.8523 225.774C85.289 225.701 85.665 225.634 85.963 225.576ZM82.2061 225.934L82.9609 225.822L82.9984 226.069L82.4721 226.147L82.5252 226.883L82.2759 226.901L82.2061 225.934ZM82.3837 228.396L82.4912 229.892L82.7406 229.874L82.6331 228.378L82.3837 228.396ZM82.7057 232.885L82.5986 231.389L82.848 231.371L82.9551 232.867L82.7057 232.885ZM82.8125 234.38L82.919 235.876L83.1684 235.858L83.0618 234.363L82.8125 234.38ZM83.1311 238.869L83.0252 237.373L83.2746 237.355L83.3805 238.851L83.1311 238.869ZM83.2365 240.365L83.3414 241.862L83.5908 241.844L83.4859 240.348L83.2365 240.365ZM83.5487 244.855L83.4456 243.359L83.695 243.341L83.7981 244.838L83.5487 244.855ZM83.6499 246.351L83.7278 247.54C83.734 247.637 83.74 247.739 83.7457 247.846L83.9954 247.832L83.9835 247.624L83.8993 246.334L83.6499 246.351ZM83.8036 249.341L84.0535 249.334C84.0599 249.562 84.0657 249.802 84.0709 250.052L84.0852 250.836L83.8352 250.84C83.8299 250.5 83.8239 250.178 83.8169 249.872L83.8036 249.341ZM84.1026 252.338L83.8526 252.34L83.8588 253.324C83.8595 253.493 83.8602 253.665 83.8607 253.839L84.1107 253.839L84.1075 253.071C84.1062 252.821 84.1046 252.576 84.1026 252.338ZM83.8619 255.338L84.1119 255.339C84.1117 255.533 84.1114 255.73 84.111 255.929L84.108 256.839L83.858 256.838L83.8592 256.531L83.8619 255.338ZM83.8499 258.338L83.8383 259.838L84.0883 259.84L84.0999 258.339L83.8499 258.338ZM83.8067 262.837L83.8238 261.337L84.0738 261.34L84.0567 262.84L83.8067 262.837ZM83.7873 264.336L83.7659 265.835L84.0158 265.839L84.0373 264.339L83.7873 264.336ZM83.7429 267.335L83.9928 267.339C83.9813 268.078 83.978 268.298 83.9776 268.384L83.9791 268.43C83.987 268.516 84.0263 268.632 84.0949 268.756L83.8762 268.877C83.7801 268.704 83.7276 268.534 83.7276 268.4L83.7429 267.335ZM85.0939 269.878C85.5287 270.05 86.039 270.138 86.6227 270.127L86.6181 269.877C86.0667 269.887 85.5892 269.805 85.186 269.646L85.0939 269.878ZM89.5676 269.44C89.0598 269.645 88.5795 269.802 88.1263 269.915L88.0661 269.672C88.5076 269.563 88.9769 269.409 89.4741 269.208L89.5676 269.44Z" fill="#2B2B2B"/>
<path d="M28.5422 224.542C26.968 224.142 23.3957 221.918 22.7905 222.292C21.1255 224.042 22.185 268.525 23.0932 269.9C24.0015 271.275 31.7207 271.775 31.7207 269.9C31.7207 268.025 31.872 261.528 31.7207 256.405C31.5695 251.283 34.1425 225.666 32.9315 225.292C31.7207 224.917 30.5097 225.042 28.5422 224.542Z" fill="#777777"/>
<path d="M30.5096 226.416C29.2988 226.291 24.3038 224.541 22.7903 223.417C21.7308 224.541 19.9146 232.289 21.8821 233.288C23.8498 234.288 28.9961 234.163 29.6016 233.288C30.2071 232.413 31.7206 226.541 30.5096 226.416Z" fill="#595A5B"/>
<path fill-rule="evenodd" clip-rule="evenodd" d="M29.9336 227.765L30.1784 227.816C30.1209 228.093 30.0557 228.399 29.9873 228.714L29.8614 229.284L29.6174 229.229C29.7023 228.85 29.7861 228.465 29.8614 228.109L29.9336 227.765ZM29.2775 230.688L29.5203 230.747C29.3823 231.311 29.2612 231.764 29.1617 232.084L29.1231 232.204L28.8857 232.126C28.9649 231.886 29.0615 231.542 29.1718 231.111L29.2775 230.688ZM27.7787 232.704C27.3406 232.767 26.825 232.811 26.2978 232.828L26.3059 233.078C26.8421 233.061 27.3668 233.016 27.8143 232.952L27.7787 232.704ZM23.3496 232.569C23.7692 232.682 24.2624 232.759 24.808 232.8L24.7891 233.05C24.2289 233.007 23.7207 232.928 23.2847 232.811L23.3496 232.569Z" fill="#2B2B2B"/>
<path fill-rule="evenodd" clip-rule="evenodd" d="M23.0356 223.153L23.1509 222.931C23.4552 223.09 23.8061 223.268 24.1713 223.451L24.4871 223.608L24.3763 223.832C24.0576 223.674 23.7425 223.516 23.4515 223.367L23.0356 223.153ZM25.7304 224.483L25.8363 224.257C26.3448 224.494 26.8052 224.7 27.2014 224.865L27.1051 225.096C26.7853 224.963 26.4247 224.803 26.0314 224.623L25.7304 224.483ZM28.5989 225.33L28.5509 225.575L28.9061 225.642C29.2265 225.701 29.6062 225.766 30.032 225.836L30.0724 225.589L29.5864 225.508C29.2013 225.443 28.8676 225.383 28.5989 225.33ZM32.0418 226.147L31.5155 226.069L31.553 225.822L32.3078 225.934L32.238 226.9L31.9887 226.882L32.0418 226.147ZM31.8809 228.378L31.7733 229.874L32.0227 229.892L32.1302 228.396L31.8809 228.378ZM31.5588 232.867L31.6659 231.371L31.9153 231.389L31.8082 232.885L31.5588 232.867ZM31.4521 234.362L31.3456 235.858L31.5949 235.876L31.7014 234.38L31.4521 234.362ZM31.1334 238.851L31.2393 237.355L31.4887 237.372L31.3828 238.869L31.1334 238.851ZM31.028 240.347L30.9231 241.844L31.1725 241.861L31.2774 240.365L31.028 240.347ZM30.7158 244.838L30.8189 243.341L31.0683 243.358L30.9652 244.855L30.7158 244.838ZM30.6146 246.334L30.5366 247.524L30.5185 247.832L30.7682 247.846L30.7861 247.54L30.864 246.35L30.6146 246.334ZM30.4604 249.334L30.7103 249.341C30.7024 249.625 30.6953 249.927 30.689 250.247L30.6786 250.84L30.4287 250.836C30.435 250.428 30.4426 250.043 30.4513 249.685L30.4604 249.334ZM30.6613 252.339L30.4113 252.337L30.4078 252.822C30.4058 253.151 30.4042 253.49 30.4032 253.838L30.6532 253.839L30.6578 252.824C30.6588 252.66 30.66 252.498 30.6613 252.339ZM30.4019 255.338L30.6519 255.338L30.6523 255.631L30.6559 256.838L30.4059 256.839L30.4047 256.532L30.4019 255.338ZM30.414 258.339L30.4256 259.84L30.6755 259.837L30.664 258.337L30.414 258.339ZM30.4573 262.84L30.4401 261.34L30.6901 261.337L30.7072 262.837L30.4573 262.84ZM30.4767 264.339L30.4981 265.839L30.748 265.835L30.7266 264.335L30.4767 264.339ZM30.5211 267.339L30.771 267.335C30.7818 268.027 30.7854 268.264 30.7861 268.363L30.7844 268.446C30.7741 268.571 30.7231 268.723 30.6377 268.877L30.419 268.756C30.4961 268.616 30.5363 268.486 30.5363 268.4L30.5211 267.339ZM29.3279 269.646C28.9247 269.805 28.4472 269.887 27.8958 269.877L27.8912 270.127C28.4749 270.138 28.9852 270.05 29.42 269.878L29.3279 269.646ZM25.0398 269.208C25.537 269.409 26.0063 269.562 26.4478 269.672L26.3876 269.915C25.9345 269.802 25.4541 269.645 24.9463 269.44L25.0398 269.208Z" fill="#2B2B2B"/>
<path d="M14.4575 124.899C18.1506 116.916 23.4599 114.75 23.4599 114.75L26.75 158.615V224.75C-9.19033 213.677 -4.29268 165.425 14.4575 124.899Z" fill="#454B5E"/>
<path d="M100.042 124.899C96.3495 116.916 91.0403 114.75 91.0403 114.75L87.75 158.615V224.75C123.69 213.677 118.793 165.425 100.042 124.899Z" fill="#454B5E"/>
<path d="M57.25 126.25C76.0277 126.25 91.25 120.374 91.25 113.125C91.25 105.876 76.0277 100 57.25 100C38.4722 100 23.25 105.876 23.25 113.125C23.25 120.374 38.4722 126.25 57.25 126.25Z" fill="#35383E"/>
<path d="M20.6554 133.943C20.0637 122.048 27.946 111.386 39.4923 108.465L57.138 104L74.7838 108.465C86.33 111.386 94.2122 122.048 93.6205 133.943L92.138 163.75L94.5235 218.141C94.586 219.563 93.4498 220.75 92.026 220.75H22.2501C20.8264 220.75 19.6901 219.563 19.7525 218.141L22.138 163.75L20.6554 133.943Z" fill="#DADADA"/>
<path fill-rule="evenodd" clip-rule="evenodd" d="M39.4999 141.457L39.4998 141.625L39.4999 141.793C39.5014 143.245 39.5028 144.595 38.4703 145.617C37.7268 146.354 36.8689 146.75 35.625 146.75C34.3811 146.75 33.5232 146.354 32.7797 145.617C31.7472 144.595 31.7486 143.245 31.7501 141.793L31.7502 141.625L31.7501 141.457C31.7486 140.005 31.7472 138.655 32.7797 137.633C33.5232 136.896 34.3811 136.5 35.625 136.5C36.8689 136.5 37.7268 136.896 38.4703 137.633C39.5028 138.655 39.5014 140.005 39.4999 141.457ZM30.25 136.75V146.75H28.0486L24.768 141.722V146.75H22.25V136.75H24.4514L27.732 141.778V136.75H30.25ZM37 141.625C37 143.439 36.8568 143.76 36.6276 144.053C36.4414 144.291 36.0833 144.5 35.625 144.5C35.1667 144.5 34.8086 144.291 34.6224 144.053C34.3932 143.76 34.25 143.439 34.25 141.625C34.25 139.811 34.3932 139.476 34.6224 139.183C34.8086 138.945 35.1667 138.75 35.625 138.75C36.0833 138.75 36.4414 138.945 36.6276 139.183C36.8568 139.476 37 139.811 37 141.625ZM47.0617 142.579L49.25 146.75H46.3655L44.575 143.028H43.7367V146.75H41.25V136.75H45.2571C47.5022 136.75 48.71 138.323 48.71 139.966C48.71 141.329 47.8575 142.185 47.0617 142.579ZM46.25 139.75C46.25 140.264 45.85 140.75 45.1643 140.75H43.75V138.75H45.1643C45.85 138.75 46.25 139.236 46.25 139.75ZM57.25 144.559V146.75H50.5V136.75H52.9921V144.559H57.25ZM66.248 141.331L66.248 141.33C66.2583 139.946 66.2669 138.793 65.1994 137.733C64.5063 137.045 63.5304 136.75 62.4838 136.75H58.75V146.75H62.4838C63.5304 146.75 64.5063 146.455 65.1994 145.767C66.2669 144.707 66.2583 143.554 66.248 142.17L66.248 142.169C66.247 142.032 66.246 141.892 66.246 141.75C66.246 141.608 66.247 141.468 66.248 141.331ZM63.4861 143.925C63.6806 143.638 63.75 143.364 63.75 141.625C63.75 139.9 63.6806 139.612 63.4861 139.325C63.2639 138.98 62.9306 138.75 62.3194 138.75H61.25V144.5H62.3194C62.9306 144.5 63.2639 144.27 63.4861 143.925ZM74.5 138.941V136.75H67V138.941H69.5V146.75H72V138.941H74.5ZM82.9999 141.457L82.9998 141.625L82.9999 141.793C83.0014 143.245 83.0028 144.595 81.9703 145.617C81.2268 146.354 80.3689 146.75 79.125 146.75C77.8811 146.75 77.0232 146.354 76.2797 145.617C75.2472 144.595 75.2486 143.245 75.2501 141.793L75.2502 141.625L75.2501 141.457C75.2486 140.005 75.2472 138.655 76.2797 137.633C77.0232 136.896 77.8811 136.5 79.125 136.5C80.3689 136.5 81.2268 136.896 81.9703 137.633C83.0028 138.655 83.0014 140.005 82.9999 141.457ZM80.5 141.625C80.5 143.439 80.3568 143.76 80.1276 144.053C79.9414 144.291 79.5833 144.5 79.125 144.5C78.6667 144.5 78.3086 144.291 78.1224 144.053C77.8932 143.76 77.75 143.439 77.75 141.625C77.75 139.811 77.8932 139.476 78.1224 139.183C78.3086 138.945 78.6667 138.75 79.125 138.75C79.5833 138.75 79.9414 138.945 80.1276 139.183C80.3568 139.476 80.5 139.811 80.5 141.625ZM89.4454 143.465H92C91.6269 145.688 90.0626 146.75 88.1251 146.75C86.934 146.75 86.0298 146.354 85.2835 145.617C84.2472 144.595 84.2486 143.245 84.2501 141.793C84.2502 141.737 84.2502 141.681 84.2502 141.625C84.2502 141.569 84.2502 141.513 84.2501 141.457C84.2486 140.005 84.2472 138.655 85.2835 137.633C86.0298 136.896 86.934 136.5 88.1251 136.5C90.0626 136.5 91.6269 137.562 92 139.785H89.4454C89.2876 139.218 88.9719 138.709 88.1395 138.709C87.6802 138.709 87.3358 138.893 87.1492 139.133C86.9196 139.431 86.7617 139.785 86.7617 141.625C86.7617 143.465 86.9196 143.819 87.1492 144.117C87.3358 144.357 87.6802 144.541 88.1395 144.541C88.9719 144.541 89.2876 144.032 89.4454 143.465Z" fill="black"/>
<path d="M96.9977 161.529C92.2315 146.896 105.247 129.012 90.7482 114.504C90.7482 114.504 77.6243 105.124 66 106.875C76.7493 112.503 81.249 123.759 77.0288 154.025C75.6338 164.03 82.3225 178.327 77.0288 193.796C69.6248 215.432 68.9998 225.106 77.0288 228.314C83.6238 230.95 85.6335 227.28 96.9977 219.059C102.974 214.736 103.027 180.039 96.9977 161.529Z" fill="#343844"/>
<path d="M89.9615 115.416C90.1462 115.322 90.3719 115.395 90.4657 115.58C90.5596 115.765 90.4859 115.99 90.3013 116.084C87.4784 117.519 84.6413 121.216 82.8549 126.416C80.6456 132.846 80.1217 141.09 81.7029 150.891L81.7514 151.189C83.3926 161.127 83.5945 172.136 82.6364 183.394L82.5844 183.992C81.8328 192.454 80.4458 200.589 78.9952 206.091C77.9244 210.374 77.2272 214.451 77.1438 218.109C77.0312 223.05 78.098 226.477 80.5711 227.926C80.7497 228.031 80.8097 228.261 80.7049 228.44C80.6002 228.618 80.3704 228.678 80.1918 228.573C77.4181 226.948 76.2758 223.278 76.394 218.091C76.4789 214.368 77.1845 210.242 78.2688 205.904L78.3704 205.514C79.8079 199.927 81.1713 191.765 81.8891 183.331C82.8288 172.288 82.6469 161.49 81.0795 151.729L81.0114 151.311C79.3519 141.262 79.8715 132.79 82.1456 126.172C83.9909 120.801 86.9482 116.947 89.9615 115.416Z" fill="#78819C"/>
<path d="M17.5022 161.529C22.2685 146.896 9.2527 129.012 23.7517 114.504C23.7517 114.504 36.8757 105.124 48.5 106.875C37.7507 112.503 33.251 123.759 37.4713 154.025C38.8663 164.03 32.1775 178.327 37.4713 193.796C44.8752 215.432 45.5003 225.106 37.4713 228.314C30.8763 230.95 28.8665 227.28 17.5022 219.059C11.5257 214.736 11.4729 180.039 17.5022 161.529Z" fill="#343844"/>
<path d="M24.0342 115.58C24.128 115.395 24.3537 115.322 24.5384 115.416C27.5517 116.947 30.5091 120.801 32.3544 126.172C34.6057 132.724 35.1374 141.093 33.5376 151.01L33.4885 151.311C31.8585 161.182 31.6577 172.13 32.6109 183.331L32.6632 183.932C33.4112 192.351 34.7909 200.441 36.2323 205.909C37.3155 210.242 38.021 214.368 38.1059 218.091C38.2241 223.278 37.0818 226.948 34.3082 228.573C34.1295 228.678 33.8997 228.618 33.795 228.44C33.6903 228.261 33.7502 228.031 33.9289 227.926C36.4019 226.477 37.4687 223.05 37.3561 218.109C37.2728 214.451 36.5755 210.374 35.5059 206.096C34.02 200.46 32.6019 192.07 31.8636 183.394C30.919 172.294 31.1019 161.437 32.68 151.609L32.7485 151.189C34.3886 141.257 33.8767 132.911 31.6451 126.416C29.8587 121.216 27.0216 117.519 24.1986 116.084C24.014 115.99 23.9404 115.765 24.0342 115.58Z" fill="#78819C"/>
<rect x="48" y="79" width="19" height="42" rx="9.5" fill="#EBBAAA"/>
<path opacity="0.5" d="M93.3551 75.0886C98.706 75.0886 103.044 70.7507 103.044 65.3998C103.044 60.0489 98.706 55.7109 93.3551 55.7109C88.0042 55.7109 83.6663 60.0489 83.6663 65.3998C83.6663 70.7507 88.0042 75.0886 93.3551 75.0886Z" fill="#DE8E7C"/>
<path opacity="0.5" d="M20.6888 75.0886C15.3378 75.0886 11 70.7507 11 65.3998C11 60.0489 15.3378 55.7109 20.6888 55.7109C26.0397 55.7109 30.3777 60.0489 30.3777 65.3998C30.3777 70.7507 26.0397 75.0886 20.6888 75.0886Z" fill="#DE8E7C"/>
<path d="M21.1733 41.662C21.1733 21.5957 37.4402 5.32886 57.5064 5.32886C77.5727 5.32886 93.8395 21.5957 93.8395 41.662V70.7284C93.8395 90.7947 77.5727 107.062 57.5064 107.062C37.4402 107.062 21.1733 90.7947 21.1733 70.7284V41.662Z" fill="#F4D5CC"/>
<path d="M81.1079 42.9985C82.3096 42.9234 83.3446 43.8366 83.4197 45.0382C83.4934 46.218 82.6144 47.2371 81.4452 47.3449L81.3799 47.3499L67.8156 48.1977C66.6139 48.2728 65.5789 47.3596 65.5038 46.158C65.4301 44.9782 66.3091 43.959 67.4783 43.8513L67.5436 43.8462L81.1079 42.9985Z" fill="#393939"/>
<path d="M30.6242 45.0382C30.6979 43.8584 31.697 42.9567 32.8705 42.9953L32.9359 42.9985L46.5003 43.8462C47.7019 43.9213 48.6151 44.9563 48.54 46.158C48.4663 47.3377 47.4673 48.2395 46.2937 48.2008L46.2283 48.1977L32.6639 47.3499C31.4623 47.2748 30.5491 46.2398 30.6242 45.0382Z" fill="#393939"/>
<path d="M72.7663 54.9841C74.3469 54.9841 75.6328 56.2457 75.672 57.8169L75.6729 57.8908V60.7974C75.6729 62.4027 74.3716 63.7041 72.7663 63.7041C71.1857 63.7041 69.8997 62.4425 69.8605 60.8713L69.8596 60.7974V57.8908C69.8596 56.2855 71.161 54.9841 72.7663 54.9841Z" fill="black"/>
<path d="M41.3986 54.9841C42.9792 54.9841 44.2651 56.2457 44.3043 57.8169L44.3052 57.8908V60.7974C44.3052 62.4027 43.0039 63.7041 41.3986 63.7041C39.818 63.7041 38.5321 62.4425 38.4929 60.8713L38.4919 60.7974V57.8908C38.4919 56.2855 39.7933 54.9841 41.3986 54.9841Z" fill="black"/>
<path d="M65.7756 86.0703C66.6668 85.5538 67.8079 85.8576 68.3244 86.7488C68.8408 87.64 68.5371 88.7811 67.6459 89.2975L67.5264 89.3639C67.4897 89.3837 67.448 89.4057 67.4012 89.4298C67.2356 89.5153 67.0434 89.6081 66.8251 89.7064C66.2215 89.978 65.519 90.2462 64.7212 90.4943C62.4781 91.1918 59.9004 91.6078 57.0219 91.6078C54.1434 91.6078 51.5657 91.1918 49.3226 90.4943C48.5249 90.2462 47.8224 89.978 47.2187 89.7064C47.0368 89.6245 46.8731 89.5464 46.7277 89.4732L46.6427 89.4298C46.5335 89.3735 46.4518 89.3287 46.3979 89.2975C45.5068 88.7811 45.203 87.64 45.7195 86.7488C46.2252 85.8762 47.3298 85.5667 48.2122 86.0391L48.3193 86.0984C48.392 86.1369 48.5176 86.1994 48.6947 86.2801L48.7494 86.3049C49.2181 86.5158 49.7797 86.7302 50.4303 86.9325C52.3251 87.5217 54.5313 87.8778 57.0219 87.8778C59.5126 87.8778 61.7187 87.5217 63.6136 86.9325C64.2099 86.747 64.7315 86.5514 65.1753 86.3577L65.2944 86.3049C65.5006 86.2121 65.6446 86.1407 65.7245 86.0984L65.7756 86.0703Z" fill="#C99584"/>
<path d="M94.5639 33.06C94.6203 31.541 93.5204 30.2778 92.1438 30.2778C90.7157 30.2778 89.5976 31.6328 89.7328 33.2014L92.0133 69.4626C92.0515 69.9068 92.389 70.2442 92.7915 70.2442C93.2123 70.2442 93.5562 69.8795 93.5744 69.4178L94.5639 33.06Z" fill="#6E6C6C"/>
<path d="M24.32 33.06C24.3764 31.541 23.2765 30.2778 21.8999 30.2778C20.4718 30.2778 19.3537 31.6328 19.4889 33.2014L21.7694 69.4626C21.8076 69.9068 22.1451 70.2442 22.5476 70.2442C22.9684 70.2442 23.3123 69.8795 23.3305 69.4178L24.32 33.06Z" fill="#6E6C6C"/>
<path d="M57.6116 1.32623C64.0912 -1.60937 77.6524 0.0440998 82.1873 9.15938C90.0396 9.15938 97.5237 16.9882 95.5607 26.6237C99.3261 29.6049 100.566 35.7732 97.2311 39.9333L97.1286 40.0587C93.6661 44.2196 94.0505 48.5687 90.8982 44.2087C89.1291 41.0509 87.3303 38.5162 85.4044 36.4829L85.3516 36.9755C85.2378 38.0568 85.1272 39.2293 85.0304 40.5076L84.7077 40.0744C79.5068 33.1244 77.7071 32.2901 70.5357 31.7505C68.1566 33.7198 68.9712 37.7608 73.9871 39.9807C68.636 39.9807 57.355 37.7608 57.6728 32.3011L57.5416 32.3704C55.3934 33.4779 53.0159 33.4654 53.0159 39.1245C48.7543 34.4012 40.7435 28.3776 32.1055 34.9016C26.57 39.0822 25.0368 42.5426 23.7554 50.5059L23.7166 50.7486L20.8296 44.868C20.1859 43.7456 19.4279 41.9549 17.9859 40.1823L17.8842 40.0587C14.4217 35.8981 15.6488 29.635 19.4521 26.6237C17.4892 16.9882 24.9733 9.15938 32.8256 9.15938C37.3853 -0.00579071 51.0704 -1.62724 57.507 1.37484L57.6116 1.32623Z" fill="#393939"/>
<path d="M55.3088 61.8354L58.7349 64.1196C57.5705 65.8663 56.6585 68.4881 56.6585 70.3955C56.6585 72.2343 57.3224 73.0075 59.3548 73.0292L59.4441 73.0297V77.1474C54.9525 77.1474 52.5408 74.4342 52.5408 70.3955C52.5408 67.6596 53.679 64.3385 55.2241 61.964L55.3088 61.8354Z" fill="#EBBAAA"/>
<path d="M53.8299 62.4371C55.0461 56.7751 51.6087 51.284 46.0086 49.9417L41.5288 48.8681C40.8366 48.7023 40.1274 48.6049 39.4121 48.5779L36.3326 48.461C30.2081 48.2289 24.9551 53.0661 24.715 59.1589L24.5037 64.5169C24.3393 68.6921 26.6067 72.5209 30.3307 74.3565L31.7886 75.0752C34.4294 76.3769 37.5228 76.5326 40.3483 75.5056L46.0568 73.4308C49.6968 72.108 52.4205 68.9994 53.2261 65.2487L53.8299 62.4371Z" fill="#D2CFBB"/>
<path d="M60.6595 63.276C59.5455 57.6114 63.0359 51.9315 68.6038 50.3478L72.9809 49.1027C73.6732 48.9058 74.3812 48.7783 75.0945 48.7221L78.076 48.4868C84.1449 48.008 89.2701 52.6742 89.4158 58.8105L89.5444 64.2299C89.6444 68.4349 87.3429 72.3913 83.6291 74.3993L82.2458 75.1472C79.5976 76.5789 76.5138 76.8616 73.7186 75.9289L68.1724 74.0776C64.5951 72.8837 61.9542 69.859 61.2172 66.1119L60.6595 63.276Z" fill="#D2CFBB"/>
<path fill-rule="evenodd" clip-rule="evenodd" d="M24.0087 64.5939L24.2199 59.2359C24.47 52.8926 29.9335 47.8616 36.3067 48.1032L39.386 48.2201C40.1303 48.2481 40.8691 48.3494 41.591 48.5223L46.0708 49.596C51.9104 50.9957 55.4968 56.7252 54.229 62.6272L53.6252 65.4388C52.7868 69.3426 49.9539 72.5757 46.168 73.9515L40.4596 76.0263C37.5191 77.095 34.2978 76.9331 31.5458 75.5765L30.0879 74.8578C26.2032 72.943 23.8373 68.9477 24.0087 64.5939ZM39.3519 49.1259L36.2725 49.009C30.3966 48.7863 25.3541 53.4296 25.1238 59.2721L24.9126 64.63C24.7552 68.6266 26.924 72.289 30.4873 74.0454L31.9453 74.7641C34.475 76.011 37.4406 76.1602 40.151 75.175L45.8594 73.1002C49.3535 71.8305 51.9682 68.8465 52.7408 65.2488L53.3447 62.4371C54.5093 57.0155 51.2211 51.7625 45.8603 50.4776L41.3806 49.4039C40.7166 49.2449 40.0369 49.1517 39.3519 49.1259Z" fill="#715B4E"/>
<path fill-rule="evenodd" clip-rule="evenodd" d="M75.0592 48.2706L78.0407 48.0352C84.369 47.5359 89.7164 52.4042 89.8682 58.7998L89.9968 64.2191C90.1008 68.5947 87.7075 72.7091 83.8442 74.798L82.4608 75.5459C79.7034 77.0367 76.4902 77.3312 73.5758 76.3587L68.0296 74.5075C64.2974 73.2618 61.542 70.106 60.7736 66.1995L60.2159 63.3636C59.0564 57.4673 62.6864 51.5601 68.4805 49.912L72.8576 48.6669C73.5787 48.4619 74.3163 48.3291 75.0592 48.2706ZM89.0925 64.2406L88.9638 58.8212C88.8243 52.944 83.9211 48.48 78.1118 48.9384L75.1302 49.1737C74.4469 49.2275 73.7683 49.3497 73.1047 49.5384L68.7276 50.7835C63.3857 52.3029 60.0351 57.7555 61.1035 63.1884L61.6612 66.0243C62.3668 69.612 64.8934 72.5056 68.3156 73.6478L73.8618 75.499C76.5378 76.392 79.4922 76.1212 82.0311 74.7485L83.4145 74.0006C86.9789 72.0734 89.1884 68.275 89.0925 64.2406Z" fill="#715B4E"/>
<path d="M52.3323 54.864C55.4697 53.2928 58.7907 53.2782 62.1231 54.7903L62.2529 54.85L61.2995 56.9039C58.5788 55.6371 55.9733 55.6136 53.4596 56.8328L53.3436 56.8899L52.3323 54.864Z" fill="#715B4E"/>
<path d="M46.6883 49.9267L47.3196 49.982C54.0679 50.5593 59.0857 50.5213 68.1199 49.926C68.3068 49.9137 68.4683 50.0555 68.4806 50.2428C68.4929 50.43 68.3513 50.5918 68.1644 50.6041L67.3346 50.6579C58.5119 51.2206 53.5267 51.2223 46.6278 50.6035C46.4412 50.5867 46.3035 50.4217 46.3202 50.2348C46.3359 50.0589 46.4829 49.9263 46.6557 49.9253L46.6883 49.9267Z" fill="#715B4E"/>
<path d="M67.491 330L67.0723 319H83.5723V330H67.491Z" fill="#C6C6C7"/>
<path d="M110.425 343.255C110.475 337.517 109.694 334.027 104.706 331.682C99.719 329.337 95.021 324.83 86.3928 320.965C86.3928 320.965 85.257 320.752 83.4083 321.752C81.8305 322.605 79.804 324.697 76.7508 324.672C73.435 324.642 70.4803 323.94 68.6445 322.977C67.8515 320.805 66.092 320.79 66.092 320.79C66.092 320.79 63.6148 325.505 63.5735 330.242C63.532 334.977 63.5363 342.845 63.5363 342.845L110.425 343.255Z" fill="#504D5A"/>
<path d="M90.2426 327.3C90.0994 327.819 90.5902 328.289 91.1026 328.124L94.4137 327.057V330.052C94.4137 330.565 94.9619 330.892 95.4128 330.647L97.662 329.429V331.677C97.662 332.051 97.9649 332.354 98.3387 332.354C98.7124 332.354 99.0154 332.051 99.0154 331.677V328.292C99.0154 327.78 98.4672 327.453 98.0163 327.698L95.7671 328.916V326.127C95.7671 325.668 95.3197 325.343 94.8828 325.483L91.8807 326.451L92.63 323.735C92.7817 323.185 92.2266 322.706 91.7046 322.936L88.0702 324.539C88.0899 324.09 88.129 323.728 88.2019 323.332C88.2791 322.913 88.3891 322.537 88.5357 322.207C88.6876 321.866 88.5339 321.466 88.1924 321.314C87.8509 321.162 87.451 321.316 87.2991 321.657C87.1058 322.092 86.9663 322.569 86.8708 323.087C86.7302 323.852 86.6992 324.478 86.6992 325.585C86.6992 326.074 87.2017 326.401 87.6491 326.204L90.9461 324.75L90.2426 327.3Z" fill="white"/>
<path d="M67.2141 323.285C68.1771 324.593 71.6501 325.375 72.9568 325.568C74.2636 325.76 75.6636 325.59 75.1033 327.753C74.7071 329.28 70.8996 328.663 69.4108 328.65C68.2003 328.638 66.5028 332.298 65.8708 331.055C65.8708 326.805 66.6726 324.503 67.2141 323.285Z" fill="#29282D"/>
<path d="M108.539 332.123C107.008 331.568 105.388 331.148 102.281 330.443L103.601 334.245L103.563 338.575L112.407 338.653C112.767 338.655 113.412 338.175 113.105 336.223C112.72 333.783 110.713 332.91 108.539 332.123Z" fill="#29282D"/>
<path d="M93.9093 331.344L89.7896 339.196L93.6247 341.209L97.7445 333.356L93.9093 331.344Z" fill="white"/>
<path d="M88.2326 328.371L83.2959 337.806L87.1333 339.814L92.07 330.379L88.2326 328.371Z" fill="white"/>
<path d="M82.6663 325.104L75.8403 338.401L79.6933 340.379L86.5193 327.081L82.6663 325.104Z" fill="white"/>
<path d="M63.0018 342.103L63.2603 337.548L103.216 338.168L113.179 337.443L113.483 340.933C113.589 342.14 112.683 343.198 111.474 343.28L103.167 343.85L64.066 343.248C63.4508 343.238 62.967 342.718 63.0018 342.103Z" fill="#DDDDDD"/>
<path d="M48.0007 330L48.4194 319H31.9194V330H48.0007Z" fill="#C6C6C7"/>
<path d="M5.06644 343.255C5.01645 337.517 5.79794 334.027 10.7854 331.682C15.7727 329.337 20.4707 324.83 29.0989 320.965C29.0989 320.965 30.2347 320.752 32.0834 321.752C33.6612 322.605 35.6877 324.697 38.7409 324.672C42.0567 324.642 45.0114 323.94 46.8472 322.977C47.6402 320.805 49.3997 320.79 49.3997 320.79C49.3997 320.79 51.8769 325.505 51.9182 330.242C51.9597 334.977 51.9554 342.845 51.9554 342.845L5.06644 343.255Z" fill="#504D5A"/>
<path d="M25.2489 327.3C25.392 327.819 24.9013 328.289 24.3889 328.124L21.0777 327.057V330.052C21.0777 330.565 20.5295 330.892 20.0786 330.647L17.8295 329.429V331.677C17.8295 332.051 17.5265 332.354 17.1528 332.354C16.779 332.354 16.4761 332.051 16.4761 331.677V328.292C16.4761 327.78 17.0243 327.453 17.4752 327.698L19.7243 328.916V326.127C19.7243 325.668 20.1717 325.343 20.6087 325.483L23.6107 326.451L22.8614 323.735C22.7097 323.185 23.2649 322.706 23.7869 322.936L27.4213 324.539C27.4016 324.09 27.3624 323.728 27.2896 323.332C27.2123 322.913 27.1024 322.537 26.9557 322.207C26.8038 321.866 26.9575 321.466 27.299 321.314C27.6405 321.162 28.0405 321.316 28.1923 321.657C28.3856 322.092 28.5252 322.569 28.6206 323.087C28.7613 323.852 28.7922 324.478 28.7922 325.585C28.7922 326.074 28.2897 326.401 27.8424 326.204L24.5453 324.75L25.2489 327.3Z" fill="white"/>
<path d="M50.4468 323.285C49.4838 324.593 46.0108 325.375 44.704 325.568C43.3973 325.76 41.9973 325.59 42.5575 327.753C42.9538 329.28 46.7613 328.663 48.25 328.65C49.4605 328.638 51.158 332.298 51.79 331.055C51.79 326.805 50.9883 324.503 50.4468 323.285Z" fill="#29282D"/>
<path d="M6.95319 332.123C8.48344 331.568 10.1039 331.148 13.2109 330.443L11.8904 334.245L11.9284 338.575L3.08519 338.653C2.72444 338.655 2.07944 338.175 2.38719 336.223C2.77194 333.783 4.77894 332.91 6.95319 332.123Z" fill="#29282D"/>
<path d="M21.5824 331.344L25.7021 339.196L21.867 341.209L17.7472 333.356L21.5824 331.344Z" fill="white"/>
<path d="M27.2591 328.371L32.1958 337.806L28.3584 339.814L23.4217 330.379L27.2591 328.371Z" fill="white"/>
<path d="M32.8254 325.104L39.6514 338.401L35.7984 340.379L28.9724 327.081L32.8254 325.104Z" fill="white"/>
<path d="M52.4899 342.103L52.2314 337.548L12.2754 338.168L2.31294 337.443L2.00844 340.933C1.90319 342.14 2.80894 343.198 4.01769 343.28L12.3249 343.85L51.4257 343.248C52.0409 343.238 52.5247 342.718 52.4899 342.103Z" fill="#DDDDDD"/>
</svg>
