<svg width="128" height="345" viewBox="0 0 128 345" fill="none" xmlns="http://www.w3.org/2000/svg">
<path d="M83.25 290.875L81 323.5" stroke="#EBBAAA" stroke-width="13.5" stroke-linecap="round" stroke-linejoin="bevel"/>
<path d="M46.75 290.875L49 323" stroke="#EBBAAA" stroke-width="13.5" stroke-linecap="round" stroke-linejoin="bevel"/>
<path d="M65 232.5C80.8783 232.5 93.75 225.896 93.75 217.75C93.75 209.604 80.8783 203 65 203C49.1217 203 36.25 209.604 36.25 217.75C36.25 225.896 49.1217 232.5 65 232.5Z" fill="#4D5457"/>
<path d="M66.25 214.25H100L95.0985 302.372L91.8595 311.325L72.9237 313L71.1145 304.375L66.25 214.25Z" fill="#4D5457"/>
<path d="M71.25 311H92.5L91.4635 316.5H72.22L71.25 311Z" fill="#434A4C"/>
<path d="M63.75 214.25H30L34.9015 302.372L38.1405 311.325L57.0763 313L58.8855 304.375L63.75 214.25Z" fill="#4D5457"/>
<path d="M58.75 311H37.5L38.5365 316.5H57.78L58.75 311Z" fill="#434A4C"/>
<path d="M34.8819 129.558C23.882 149.058 14.882 196.058 18.882 207.058" stroke="#EBBAAA" stroke-width="18.5" stroke-linecap="round" stroke-linejoin="bevel"/>
<path d="M92.882 129.558C103.882 149.058 112.882 196.058 108.882 207.058" stroke="#EBBAAA" stroke-width="18.5" stroke-linecap="round" stroke-linejoin="bevel"/>
<rect x="25.882" y="105.558" width="42.5" height="100" rx="21.25" transform="rotate(15 25.882 105.558)" fill="#BA917A"/>
<rect width="42.5" height="100" rx="21.25" transform="matrix(-0.965926 0.258819 0.258819 0.965926 101.882 105.558)" fill="#BA917A"/>
<path d="M25.6707 121.724C26.096 116.387 29.874 111.912 35.065 110.599L63.882 103.308L92.699 110.599C97.89 111.912 101.668 116.387 102.093 121.724L106.382 175.558L102.632 201.558L100.857 204.575C100.408 205.339 99.588 205.808 98.7022 205.808H27.632L25.132 201.558L21.382 175.558L25.6707 121.724Z" fill="#5F5F61"/>
<path d="M64.0494 125C70.9529 125 76.5494 119.403 76.5494 112.5C76.5494 105.596 70.9529 100 64.0494 100C57.1459 100 51.5494 105.596 51.5494 112.5C51.5494 119.403 57.1459 125 64.0494 125Z" fill="#BA917A"/>
<path d="M28.8819 205.808H98.8819L100.784 215.317C101.093 216.864 99.9099 218.308 98.3324 218.308H29.4314C27.8539 218.308 26.6706 216.864 26.9799 215.317L28.8819 205.808Z" fill="#BA917A"/>
<rect x="54" y="79" width="19" height="42" rx="9.5" fill="#EBBAAA"/>
<path opacity="0.5" d="M99.3551 75.0886C104.706 75.0886 109.044 70.7507 109.044 65.3998C109.044 60.0489 104.706 55.7109 99.3551 55.7109C94.0042 55.7109 89.6663 60.0489 89.6663 65.3998C89.6663 70.7507 94.0042 75.0886 99.3551 75.0886Z" fill="#DE8E7C"/>
<path opacity="0.5" d="M26.6888 75.0886C21.3378 75.0886 17 70.7507 17 65.3998C17 60.0489 21.3378 55.7109 26.6888 55.7109C32.0397 55.7109 36.3777 60.0489 36.3777 65.3998C36.3777 70.7507 32.0397 75.0886 26.6888 75.0886Z" fill="#DE8E7C"/>
<path d="M27.1733 41.662C27.1733 21.5957 43.4402 5.32886 63.5064 5.32886C83.5727 5.32886 99.8395 21.5957 99.8395 41.662V70.7284C99.8395 90.7947 83.5727 107.062 63.5064 107.062C43.4402 107.062 27.1733 90.7947 27.1733 70.7284V41.662Z" fill="#F4D5CC"/>
<path d="M87.1079 42.9985C88.3096 42.9234 89.3446 43.8366 89.4197 45.0382C89.4934 46.218 88.6144 47.2371 87.4452 47.3449L87.3799 47.3499L73.8156 48.1977C72.6139 48.2728 71.5789 47.3596 71.5038 46.158C71.4301 44.9782 72.3091 43.959 73.4783 43.8513L73.5436 43.8462L87.1079 42.9985Z" fill="#393939"/>
<path d="M36.6242 45.0382C36.6979 43.8584 37.697 42.9567 38.8705 42.9953L38.9359 42.9985L52.5003 43.8462C53.7019 43.9213 54.6151 44.9563 54.54 46.158C54.4663 47.3377 53.4673 48.2395 52.2937 48.2008L52.2283 48.1977L38.6639 47.3499C37.4623 47.2748 36.5491 46.2398 36.6242 45.0382Z" fill="#393939"/>
<path d="M78.7663 54.9841C80.3469 54.9841 81.6328 56.2457 81.672 57.8169L81.6729 57.8908V60.7974C81.6729 62.4027 80.3716 63.7041 78.7663 63.7041C77.1857 63.7041 75.8997 62.4425 75.8605 60.8713L75.8596 60.7974V57.8908C75.8596 56.2855 77.161 54.9841 78.7663 54.9841Z" fill="black"/>
<path d="M47.3986 54.9841C48.9792 54.9841 50.2651 56.2457 50.3043 57.8169L50.3052 57.8908V60.7974C50.3052 62.4027 49.0039 63.7041 47.3986 63.7041C45.818 63.7041 44.5321 62.4425 44.4929 60.8713L44.4919 60.7974V57.8908C44.4919 56.2855 45.7933 54.9841 47.3986 54.9841Z" fill="black"/>
<path d="M71.7756 86.0703C72.6668 85.5538 73.8079 85.8576 74.3244 86.7488C74.8408 87.64 74.5371 88.7811 73.6459 89.2975L73.5264 89.3639C73.4897 89.3837 73.448 89.4057 73.4012 89.4298C73.2356 89.5153 73.0434 89.6081 72.8251 89.7064C72.2215 89.978 71.519 90.2462 70.7212 90.4943C68.4781 91.1918 65.9004 91.6078 63.0219 91.6078C60.1434 91.6078 57.5657 91.1918 55.3226 90.4943C54.5249 90.2462 53.8224 89.978 53.2187 89.7064C53.0368 89.6245 52.8731 89.5464 52.7277 89.4732L52.6427 89.4298C52.5335 89.3735 52.4518 89.3287 52.3979 89.2975C51.5068 88.7811 51.203 87.64 51.7195 86.7488C52.2252 85.8762 53.3298 85.5667 54.2122 86.0391L54.3193 86.0984C54.392 86.1369 54.5176 86.1994 54.6947 86.2801L54.7494 86.3049C55.2181 86.5158 55.7797 86.7302 56.4303 86.9325C58.3251 87.5217 60.5313 87.8778 63.0219 87.8778C65.5126 87.8778 67.7187 87.5217 69.6136 86.9325C70.2099 86.747 70.7315 86.5514 71.1753 86.3577L71.2944 86.3049C71.5006 86.2121 71.6446 86.1407 71.7245 86.0984L71.7756 86.0703Z" fill="#C99584"/>
<path d="M100.564 33.06C100.62 31.541 99.5204 30.2778 98.1438 30.2778C96.7157 30.2778 95.5976 31.6328 95.7328 33.2014L98.0133 69.4626C98.0515 69.9068 98.389 70.2442 98.7915 70.2442C99.2123 70.2442 99.5562 69.8795 99.5744 69.4178L100.564 33.06Z" fill="#6E6C6C"/>
<path d="M30.32 33.06C30.3764 31.541 29.2765 30.2778 27.8999 30.2778C26.4718 30.2778 25.3537 31.6328 25.4889 33.2014L27.7694 69.4626C27.8076 69.9068 28.1451 70.2442 28.5476 70.2442C28.9684 70.2442 29.3123 69.8795 29.3305 69.4178L30.32 33.06Z" fill="#6E6C6C"/>
<path d="M63.6116 1.32623C70.0912 -1.60937 83.6524 0.0440998 88.1873 9.15938C96.0396 9.15938 103.524 16.9882 101.561 26.6237C105.326 29.6049 106.566 35.7732 103.231 39.9333L103.129 40.0587C99.6661 44.2196 100.05 48.5687 96.8982 44.2087C95.1291 41.0509 93.3303 38.5162 91.4044 36.4829L91.3516 36.9755C91.2378 38.0568 91.1272 39.2293 91.0304 40.5076L90.7077 40.0744C85.5068 33.1244 83.7071 32.2901 76.5357 31.7505C74.1566 33.7198 74.9712 37.7608 79.9871 39.9807C74.636 39.9807 63.355 37.7608 63.6728 32.3011L63.5416 32.3704C61.3934 33.4779 59.0159 33.4654 59.0159 39.1245C54.7543 34.4012 46.7435 28.3776 38.1055 34.9016C32.57 39.0822 31.0368 42.5426 29.7554 50.5059L29.7166 50.7486L26.8296 44.868C26.1859 43.7456 25.4279 41.9549 23.9859 40.1823L23.8842 40.0587C20.4217 35.8981 21.6488 29.635 25.4521 26.6237C23.4892 16.9882 30.9733 9.15938 38.8256 9.15938C43.3853 -0.00579071 57.0704 -1.62724 63.507 1.37484L63.6116 1.32623Z" fill="#393939"/>
<path d="M61.3088 61.8354L64.7349 64.1196C63.5705 65.8663 62.6585 68.4881 62.6585 70.3955C62.6585 72.2343 63.3224 73.0075 65.3548 73.0292L65.4441 73.0297V77.1474C60.9525 77.1474 58.5408 74.4342 58.5408 70.3955C58.5408 67.6596 59.679 64.3385 61.2241 61.964L61.3088 61.8354Z" fill="#EBBAAA"/>
<path d="M13 339.452C13 331.621 18.0313 330.667 26.2317 327.984C30.2482 326.671 34.3471 325.523 38.5064 324.834C41.1201 324.401 41.8223 326.699 46.4134 326.699C50.5077 326.699 55.6156 324.671 56.6731 324.232C56.806 324.176 56.9631 324.128 57.0687 324.227C57.0942 324.25 57.1159 324.278 57.1317 324.311C57.6207 325.316 60.1868 330.795 60.1868 335.18C60.1868 338.531 60.474 341.829 59.5492 343.533C59.1316 344.303 56.5262 344.721 55.6513 344.721H14.4188C13.6352 344.721 13 340.237 13 339.452Z" fill="#D0D4DB"/>
<mask id="mask0_63_5" style="mask-type:alpha" maskUnits="userSpaceOnUse" x="13" y="324" width="48" height="21">
<path fill-rule="evenodd" clip-rule="evenodd" d="M13 339.452C13 335.544 14.2543 333.348 16.5312 331.795C27.9019 324.041 43.107 324.148 56.8702 324.148C56.9814 324.148 57.083 324.212 57.1317 324.311C57.6206 325.316 60.1868 330.795 60.1868 335.179C60.1868 338.531 60.474 341.829 59.5492 343.533C59.1319 344.303 56.5264 344.721 55.6513 344.721H14.4188C13.6352 344.721 13 340.237 13 339.452Z" fill="white"/>
</mask>
<g mask="url(#mask0_63_5)">
<path d="M18.1381 330.784C14.8353 328.917 16.1306 332.618 13.163 334.19L6.87842 346.234H56.8924C58.1144 344.489 62.9251 340.576 59.1953 340.576C51.0333 340.576 41.1812 340.839 36.4679 340.576C31.7546 340.314 18.2622 341.257 19.0546 337.069C19.9711 332.226 21.1494 332.486 18.1381 330.784Z" fill="#E5E7EB"/>
</g>
<path d="M34.3071 324.314C34.5578 323.98 35.0237 323.902 35.3678 324.13L35.4239 324.17L35.9352 324.546C36.1453 324.701 36.317 324.831 36.4816 324.961L36.5518 325.017C37.9006 326.094 38.6543 327.107 38.6543 328.356C38.6543 328.875 38.163 329.247 37.6697 329.116L37.6262 329.104L30.745 326.87L32.6215 329.888C33.0015 330.499 32.4289 331.249 31.7489 331.061L31.7095 331.049L25.9695 329.166L28.0147 332.078C28.2548 332.42 28.1843 332.887 27.8617 333.143L27.8234 333.172C27.4815 333.412 27.0145 333.342 26.7577 333.019L26.729 332.981L23.3249 328.135C22.8986 327.528 23.4725 326.731 24.1728 326.925L24.2126 326.937L30.1467 328.883L28.2759 325.874C27.8966 325.264 28.4663 324.515 29.1455 324.7L29.1856 324.712L36.47 327.076L36.4487 327.052C36.2376 326.817 35.9742 326.572 35.6586 326.315L35.5713 326.245L35.443 326.143C35.3558 326.075 35.2641 326.006 35.1626 325.93L34.4641 325.414C34.1171 325.154 34.0468 324.661 34.3071 324.314Z" fill="white"/>
<path d="M116.598 339.452C116.598 331.621 111.567 330.667 103.367 327.984C99.3502 326.671 95.251 325.523 91.092 324.834C88.4783 324.401 87.7761 326.699 83.185 326.699C79.0907 326.699 73.9828 324.671 72.925 324.232C72.7924 324.176 72.635 324.128 72.5297 324.227C72.5039 324.25 72.4825 324.278 72.4667 324.311C71.9775 325.316 69.4115 330.795 69.4115 335.18C69.4115 338.531 69.1243 341.829 70.0492 343.533C70.4665 344.303 73.072 344.721 73.9468 344.721H115.179C115.963 344.721 116.598 340.237 116.598 339.452Z" fill="#D0D4DB"/>
<mask id="mask1_63_5" style="mask-type:alpha" maskUnits="userSpaceOnUse" x="69" y="324" width="48" height="21">
<path fill-rule="evenodd" clip-rule="evenodd" d="M116.598 339.452C116.598 335.544 115.344 333.348 113.067 331.795C101.696 324.041 86.4911 324.148 72.7281 324.148C72.6167 324.148 72.5154 324.212 72.4667 324.311C71.9775 325.316 69.4115 330.795 69.4115 335.179C69.4115 338.531 69.1243 341.829 70.0492 343.533C70.4665 344.303 73.072 344.721 73.9468 344.721H115.179C115.963 344.721 116.598 340.237 116.598 339.452Z" fill="white"/>
</mask>
<g mask="url(#mask1_63_5)">
<path d="M111.46 330.784C114.763 328.917 113.467 332.618 116.435 334.19L122.72 346.234H72.7057C71.4837 344.489 66.6727 340.576 70.4025 340.576C78.5646 340.576 88.4169 340.839 93.1302 340.576C97.8435 340.314 111.336 341.257 110.543 337.069C109.627 332.226 108.449 332.486 111.46 330.784Z" fill="#E5E7EB"/>
</g>
<path d="M95.2913 324.314C95.5516 324.661 95.4813 325.154 95.1342 325.414L94.5962 325.81C94.371 325.977 94.1957 326.11 94.0274 326.244C93.6728 326.527 93.3801 326.796 93.1498 327.052L93.1278 327.077L100.413 324.712C101.096 324.49 101.686 325.223 101.344 325.838L101.322 325.874L99.4513 328.883L105.386 326.937C106.091 326.706 106.685 327.486 106.297 328.1L106.273 328.135L102.869 332.981C102.62 333.336 102.13 333.422 101.775 333.172C101.433 332.932 101.341 332.469 101.557 332.118L101.584 332.078L103.629 329.166L97.8889 331.049C97.205 331.273 96.6124 330.539 96.9561 329.923L96.9769 329.888L98.8531 326.87L91.9722 329.104C91.4792 329.264 90.9738 328.911 90.9454 328.402L90.9441 328.356C90.9441 327.107 91.6979 326.094 93.0469 325.017L93.1882 324.905C93.2599 324.849 93.3337 324.793 93.412 324.734L94.1916 324.157C94.5387 323.897 95.0311 323.967 95.2913 324.314Z" fill="white"/>
</svg>
