<svg width="112" height="25" viewBox="0 0 112 25" fill="none" xmlns="http://www.w3.org/2000/svg">
<path d="M65.491 11L65.0723 0H81.5723V11H65.491Z" fill="#C6C6C7"/>
<path d="M108.425 24.255C108.475 18.5175 107.694 15.0275 102.706 12.6825C97.719 10.3375 93.021 5.83004 84.3928 1.96504C84.3928 1.96504 83.257 1.75254 81.4083 2.75254C79.8305 3.60504 77.804 5.69754 74.7508 5.67254C71.435 5.64254 68.4803 4.94004 66.6445 3.97754C65.8515 1.80504 64.092 1.79004 64.092 1.79004C64.092 1.79004 61.6148 6.50504 61.5735 11.2425C61.532 15.9775 61.5363 23.845 61.5363 23.845L108.425 24.255Z" fill="#504D5A"/>
<path d="M88.2427 8.30004C88.0995 8.819 88.5903 9.28924 89.1027 9.12406L92.4138 8.05665V11.0525C92.4138 11.5653 92.962 11.8918 93.4129 11.6475L95.6621 10.4288V12.6775C95.6621 13.0512 95.9651 13.3542 96.3388 13.3542C96.7125 13.3542 97.0155 13.0512 97.0155 12.6775V9.29249C97.0155 8.77967 96.4673 8.4532 96.0164 8.69751L93.7673 9.91617V7.12749C93.7673 6.66842 93.3199 6.34257 92.8829 6.48342L89.8808 7.4512L90.6301 4.73495C90.7819 4.18495 90.2267 3.70557 89.7047 3.93585L86.0703 5.5391C86.09 5.09038 86.1292 4.72832 86.202 4.3325C86.2792 3.91303 86.3892 3.53724 86.5359 3.2075C86.6877 2.86601 86.534 2.46606 86.1926 2.31418C85.8511 2.1623 85.4511 2.31601 85.2992 2.65749C85.106 3.09203 84.9664 3.5689 84.871 4.08749C84.7303 4.8518 84.6993 5.47792 84.6993 6.58499C84.6993 7.07389 85.2019 7.40146 85.6492 7.20414L88.9462 5.74968L88.2427 8.30004Z" fill="white"/>
<path d="M65.2141 4.28516C66.1771 5.59266 69.6501 6.37516 70.9568 6.56766C72.2636 6.76016 73.6636 6.59016 73.1033 8.75266C72.7071 10.2802 68.8996 9.66266 67.4108 9.65016C66.2003 9.63766 64.5028 13.2977 63.8708 12.0552C63.8708 7.80516 64.6726 5.50266 65.2141 4.28516Z" fill="#29282D"/>
<path d="M106.539 13.1224C105.008 12.5674 103.388 12.1474 100.281 11.4424L101.601 15.2449L101.563 19.5749L110.407 19.6524C110.767 19.6549 111.412 19.1749 111.105 17.2224C110.72 14.7824 108.713 13.9099 106.539 13.1224Z" fill="#29282D"/>
<path d="M91.9092 12.344L87.7894 20.1965L91.6246 22.2086L95.7444 14.3561L91.9092 12.344Z" fill="white"/>
<path d="M86.2325 9.37109L81.2958 18.8061L85.1332 20.814L90.0699 11.379L86.2325 9.37109Z" fill="white"/>
<path d="M80.6663 6.10352L73.8403 19.401L77.6932 21.3789L84.5192 8.08135L80.6663 6.10352Z" fill="white"/>
<path d="M61.0018 23.1024L61.2603 18.5474L101.216 19.1674L111.179 18.4424L111.483 21.9324C111.589 23.1399 110.683 24.1974 109.474 24.2799L101.167 24.8499L62.066 24.2474C61.4508 24.2374 60.967 23.7174 61.0018 23.1024Z" fill="#DDDDDD"/>
<path d="M46.0006 11L46.4193 0H29.9193V11H46.0006Z" fill="#C6C6C7"/>
<path d="M3.06632 24.255C3.01632 18.5175 3.79782 15.0275 8.78532 12.6825C13.7726 10.3375 18.4706 5.83004 27.0988 1.96504C27.0988 1.96504 28.2346 1.75254 30.0833 2.75254C31.6611 3.60504 33.6876 5.69754 36.7408 5.67254C40.0566 5.64254 43.0113 4.94004 44.8471 3.97754C45.6401 1.80504 47.3996 1.79004 47.3996 1.79004C47.3996 1.79004 49.8768 6.50504 49.9181 11.2425C49.9596 15.9775 49.9553 23.845 49.9553 23.845L3.06632 24.255Z" fill="#504D5A"/>
<path d="M23.2489 8.30004C23.3921 8.819 22.9013 9.28924 22.389 9.12406L19.0778 8.05665V11.0525C19.0778 11.5653 18.5296 11.8918 18.0787 11.6475L15.8295 10.4288V12.6775C15.8295 13.0512 15.5266 13.3542 15.1528 13.3542C14.7791 13.3542 14.4761 13.0512 14.4761 12.6775V9.29249C14.4761 8.77967 15.0243 8.4532 15.4752 8.69751L17.7244 9.91617V7.12749C17.7244 6.66842 18.1718 6.34257 18.6087 6.48342L21.6108 7.4512L20.8615 4.73495C20.7098 4.18495 21.265 3.70557 21.787 3.93585L25.4213 5.5391C25.4017 5.09038 25.3625 4.72832 25.2896 4.3325C25.2124 3.91303 25.1024 3.53724 24.9558 3.2075C24.8039 2.86601 24.9576 2.46606 25.2991 2.31418C25.6406 2.1623 26.0405 2.31601 26.1924 2.65749C26.3857 3.09203 26.5252 3.5689 26.6207 4.08749C26.7614 4.8518 26.7923 5.47792 26.7923 6.58499C26.7923 7.07389 26.2898 7.40146 25.8425 7.20414L22.5454 5.74968L23.2489 8.30004Z" fill="white"/>
<path d="M48.4469 4.28516C47.4839 5.59266 44.0109 6.37516 42.7041 6.56766C41.3974 6.76016 39.9974 6.59016 40.5576 8.75266C40.9539 10.2802 44.7614 9.66266 46.2501 9.65016C47.4606 9.63766 49.1581 13.2977 49.7901 12.0552C49.7901 7.80516 48.9884 5.50266 48.4469 4.28516Z" fill="#29282D"/>
<path d="M4.95307 13.1224C6.48332 12.5674 8.10382 12.1474 11.2108 11.4424L9.89032 15.2449L9.92832 19.5749L1.08507 19.6524C0.724316 19.6549 0.0793159 19.1749 0.387066 17.2224C0.771816 14.7824 2.77882 13.9099 4.95307 13.1224Z" fill="#29282D"/>
<path d="M19.5824 12.344L23.7021 20.1965L19.867 22.2086L15.7472 14.3561L19.5824 12.344Z" fill="white"/>
<path d="M25.2591 9.37109L30.1958 18.8061L26.3584 20.814L21.4217 11.379L25.2591 9.37109Z" fill="white"/>
<path d="M30.8253 6.10352L37.6513 19.401L33.7983 21.3789L26.9723 8.08135L30.8253 6.10352Z" fill="white"/>
<path d="M50.4898 23.1024L50.2313 18.5474L10.2753 19.1674L0.312817 18.4424L0.00831604 21.9324C-0.096934 23.1399 0.808817 24.1974 2.01757 24.2799L10.3248 24.8499L49.4256 24.2474C50.0408 24.2374 50.5246 23.7174 50.4898 23.1024Z" fill="#DDDDDD"/>
</svg>
