<svg width="104" height="21" viewBox="0 0 104 21" fill="none" xmlns="http://www.w3.org/2000/svg">
<path d="M0 15.4519C0 7.62142 5.03131 6.66748 13.2317 3.98421C17.2482 2.67063 21.3471 1.52285 25.5064 0.834173C28.1201 0.400565 28.8223 2.69869 33.4134 2.69869C37.5077 2.69869 42.6156 0.670932 43.6731 0.232223C43.806 0.176109 43.9631 0.127646 44.0687 0.227121C44.0942 0.250077 44.1159 0.278134 44.1317 0.311292C44.6207 1.31624 47.1868 6.79501 47.1868 11.1796C47.1868 14.5311 47.474 17.8291 46.5492 19.5329C46.1316 20.3032 43.5262 20.7215 42.6513 20.7215H1.41879C0.635211 20.7215 0 16.2375 0 15.4519Z" fill="#D0D4DB"/>
<mask id="mask0_22_677" style="mask-type:alpha" maskUnits="userSpaceOnUse" x="0" y="0" width="48" height="21">
<path fill-rule="evenodd" clip-rule="evenodd" d="M0 15.4516C0 11.544 1.25433 9.34789 3.53115 7.79456C14.9019 0.0406175 30.107 0.147745 43.8702 0.147745C43.9814 0.147745 44.083 0.211511 44.1317 0.310985C44.6206 1.31594 47.1868 6.79471 47.1868 11.1793C47.1868 14.5308 47.474 17.8288 46.5492 19.5326C46.1319 20.3029 43.5264 20.7212 42.6513 20.7212H1.41879C0.635211 20.7212 0 16.2372 0 15.4516Z" fill="white"/>
</mask>
<g mask="url(#mask0_22_677)">
<path d="M5.13811 6.78443C1.83529 4.91736 3.13063 8.61834 0.16296 10.1895L-6.12158 22.2336H43.8924C45.1144 20.489 49.9251 16.5763 46.1953 16.5763C38.0333 16.5763 28.1812 16.839 23.4679 16.5763C18.7546 16.3136 5.26217 17.2573 6.05458 13.0692C6.97107 8.22554 8.14941 8.4857 5.13811 6.78443Z" fill="#E5E7EB"/>
</g>
<path d="M21.3071 0.31422C21.5578 -0.0199866 22.0237 -0.0975563 22.3678 0.129626L22.4239 0.169899L22.9352 0.546448C23.1453 0.701499 23.317 0.831364 23.4816 0.961219L23.5518 1.01694C24.9006 2.09423 25.6543 3.1069 25.6543 4.3565C25.6543 4.87485 25.163 5.24668 24.6697 5.11647L24.6262 5.10367L17.745 2.86968L19.6215 5.88788C20.0015 6.49913 19.4289 7.24881 18.7489 7.06095L18.7095 7.04907L12.9695 5.16643L15.0147 8.07781C15.2548 8.41968 15.1843 8.88668 14.8617 9.14348L14.8234 9.17216C14.4815 9.4123 14.0145 9.34178 13.7577 9.01921L13.729 8.98087L10.3249 4.13466C9.89859 3.52771 10.4725 2.73129 11.1728 2.92468L11.2126 2.93669L17.1467 4.88293L15.2759 1.87373C14.8966 1.26369 15.4663 0.515066 16.1455 0.699844L16.1856 0.711798L23.47 3.07643L23.4487 3.05193C23.2376 2.81722 22.9742 2.57234 22.6586 2.31505L22.5713 2.24457L22.443 2.14341C22.3558 2.07542 22.2641 2.0056 22.1626 1.92965L21.4641 1.41401C21.1171 1.15368 21.0468 0.661282 21.3071 0.31422Z" fill="white"/>
<path d="M103.598 15.4519C103.598 7.62142 98.5669 6.66748 90.3666 3.98421C86.3502 2.67063 82.251 1.52285 78.092 0.834173C75.4783 0.400565 74.7761 2.69869 70.185 2.69869C66.0907 2.69869 60.9828 0.670932 59.925 0.232223C59.7924 0.176109 59.635 0.127646 59.5297 0.227121C59.5039 0.250077 59.4825 0.278134 59.4667 0.311292C58.9775 1.31624 56.4115 6.79501 56.4115 11.1796C56.4115 14.5311 56.1243 17.8291 57.0492 19.5329C57.4665 20.3032 60.072 20.7215 60.9468 20.7215H102.179C102.963 20.7215 103.598 16.2375 103.598 15.4519Z" fill="#D0D4DB"/>
<mask id="mask1_22_677" style="mask-type:alpha" maskUnits="userSpaceOnUse" x="56" y="0" width="48" height="21">
<path fill-rule="evenodd" clip-rule="evenodd" d="M103.598 15.4516C103.598 11.544 102.344 9.34789 100.067 7.79456C88.6965 0.0406175 73.4911 0.147745 59.7281 0.147745C59.6167 0.147745 59.5154 0.211511 59.4667 0.310985C58.9775 1.31594 56.4115 6.79471 56.4115 11.1793C56.4115 14.5308 56.1243 17.8288 57.0492 19.5326C57.4665 20.3029 60.072 20.7212 60.9468 20.7212H102.179C102.963 20.7212 103.598 16.2372 103.598 15.4516Z" fill="white"/>
</mask>
<g mask="url(#mask1_22_677)">
<path d="M98.4599 6.78443C101.763 4.91736 100.467 8.61834 103.435 10.1895L109.72 22.2336H59.7057C58.4837 20.489 53.6727 16.5763 57.4025 16.5763C65.5646 16.5763 75.4169 16.839 80.1302 16.5763C84.8435 16.3136 98.3359 17.2573 97.5434 13.0692C96.627 8.22554 95.4486 8.4857 98.4599 6.78443Z" fill="#E5E7EB"/>
</g>
<path d="M82.2913 0.314294C82.5516 0.661386 82.4813 1.15377 82.1342 1.41407L81.5962 1.81046C81.371 1.97669 81.1957 2.10982 81.0274 2.24428C80.6728 2.52746 80.3801 2.79563 80.1498 3.05171L80.1278 3.07668L87.4128 0.711798C88.096 0.490004 88.6861 1.22263 88.3437 1.83769L88.3225 1.87373L86.4513 4.88293L92.3858 2.93669C93.0906 2.70553 93.6854 3.48643 93.2965 4.10011L93.2734 4.13466L89.8694 8.98087C89.62 9.33589 89.13 9.42154 88.775 9.17216C88.4331 8.93202 88.3411 8.46879 88.5574 8.11779L88.5837 8.07781L90.6286 5.16643L84.8889 7.04907C84.205 7.27338 83.6124 6.53947 83.9561 5.92329L83.9769 5.88788L85.8531 2.86968L78.9722 5.10367C78.4792 5.26372 77.9738 4.91127 77.9454 4.40184L77.9441 4.3565C77.9441 3.10674 78.6979 2.09394 80.0469 1.01661L80.1882 0.905185C80.2599 0.849325 80.3337 0.792804 80.412 0.733646L81.1916 0.15714C81.5387 -0.103158 82.0311 -0.0327976 82.2913 0.314294Z" fill="white"/>
</svg>
