<svg width="102" height="27" viewBox="0 0 102 27" fill="none" xmlns="http://www.w3.org/2000/svg">
<path d="M101.705 21.1126C102.176 19.9451 101.837 18.3451 101.573 17.9076C101.309 17.4726 69.2772 15.4701 69.2772 15.4701C63.9605 15.0351 53.422 13.2051 52.6937 16.3551C51.7927 20.2526 51.834 21.1326 52.448 24.1501C53.4305 25.1551 63.3695 26.0351 66.592 25.2801C66.592 23.5201 66.843 22.3901 66.843 22.3901C66.843 22.3901 68.6392 23.5301 70.7467 24.0251C75.045 25.0301 75.868 26.0351 89.1815 26.0351C99.8595 25.0301 100.65 23.7251 101.705 21.1126Z" fill="#272727"/>
<path d="M67.0622 4.16248C64.3917 4.19748 60.315 3.31748 58.0942 0.229982C57.8997 -0.0400185 57.5012 -0.0825185 57.2745 0.159982C55.2755 2.31498 56.5702 1.08998 55.7677 4.79248C54.9757 8.44748 54.3072 7.92498 53.5152 11.32C52.967 13.67 51.1912 19.1525 53.5152 19.1525H64.1147C66.6225 19.1525 70.0095 22.0725 78.3605 22.8925C92.223 24.255 95.6105 22.39 98.3785 21.51C104.676 19.5075 101.48 14.9275 98.3785 13.465C93.8345 11.32 87.3222 9.70998 84.0097 7.93248C81.4305 6.54998 80.5447 6.11998 79.2202 4.66498C77.5285 2.80498 76.812 1.61748 76.2755 0.692482C76.0532 0.309982 75.448 0.394982 75.2122 0.769982C73.75 3.09998 69.5287 4.12998 67.0622 4.16248Z" fill="#563D2A"/>
<path d="M75.41 1.77539C74.867 2.99789 72.6882 4.37039 72.6882 5.32289L78.044 3.40789L75.41 7.30539L80.4287 5.86789L78.044 9.19039L83.688 8.04539L80.4287 11.2029" stroke="#2C221B" stroke-width="1.35342" stroke-linecap="round" stroke-linejoin="round"/>
<path d="M96.7747 17.6953C94.4342 18.4053 90.8635 19.4153 85.4917 18.2878" stroke="#7C593E" stroke-width="1.75" stroke-linecap="round"/>
<path d="M78.8982 11.0751C76.4422 8.81264 74.6157 7.68264 72.6507 5.16764C71.5865 5.16764 70.1812 5.29264 66.1287 5.29264C60.848 5.29264 59.448 3.03014 57.1147 0.390137C55.3422 1.52264 56.255 3.91014 55.027 7.18014C54.0445 9.79514 52.2022 13.7151 52.2022 18.4926C53.062 20.0001 61.5357 19.2476 64.2375 19.2476C64.8515 16.2301 69.6405 13.7151 71.7727 13.0876C73.6442 12.5351 75.828 12.3326 78.8982 11.0751Z" fill="#423023"/>
<path d="M0.294949 21.1126C-0.176151 19.9451 0.162849 18.3451 0.426674 17.9076C0.690499 17.4726 32.7227 15.4701 32.7227 15.4701C38.0395 15.0351 48.578 13.2051 49.3062 16.3551C50.2072 20.2526 50.166 21.1326 49.5518 24.1501C48.5695 25.1551 38.6305 26.0351 35.408 25.2801C35.408 23.5201 35.157 22.3901 35.157 22.3901C35.157 22.3901 33.3607 23.5301 31.2532 24.0251C26.955 25.0301 26.132 26.0351 12.8185 26.0351C2.14055 25.0301 1.34947 23.7251 0.294949 21.1126Z" fill="#272727"/>
<path d="M34.9377 4.16199C37.6082 4.19699 41.685 3.31699 43.9057 0.229493C44.1002 -0.0405068 44.4987 -0.0830068 44.7255 0.159493C46.7242 2.31449 45.4297 1.08949 46.2322 4.79199C47.0242 8.44699 47.6927 7.92449 48.4847 11.3195C49.033 13.6695 50.8087 19.152 48.4847 19.152H37.8852C35.3775 19.152 31.9905 22.072 23.6395 22.892C9.77695 24.2545 6.38942 22.3895 3.62152 21.5095C-2.67633 19.507 0.519697 14.927 3.62152 13.4645C8.16545 11.3195 14.6777 9.70949 17.9902 7.93199C20.5695 6.54949 21.4552 6.11949 22.7797 4.66449C24.4715 2.80449 25.188 1.61699 25.7245 0.691993C25.9467 0.309493 26.552 0.394493 26.7877 0.769493C28.25 3.09949 32.4712 4.12949 34.9377 4.16199Z" fill="#563D2A"/>
<path d="M26.59 1.77539C27.133 2.99789 29.3118 4.37039 29.3118 5.32289L23.956 3.40789L26.59 7.30539L21.571 5.86789L23.956 9.19039L18.312 8.04539L21.571 11.2029" stroke="#2C221B" stroke-width="1.35342" stroke-linecap="round" stroke-linejoin="round"/>
<path d="M5.22522 17.6953C7.56564 18.4053 11.1366 19.4153 16.5082 18.2878" stroke="#7C593E" stroke-width="1.75" stroke-linecap="round"/>
<path d="M23.1017 11.0751C25.5577 8.81264 27.3842 7.68264 29.3492 5.16764C30.4135 5.16764 31.8185 5.29264 35.8712 5.29264C41.152 5.29264 42.552 3.03014 44.8852 0.390137C46.6577 1.52264 45.745 3.91014 46.973 7.18014C47.9555 9.79514 49.7977 13.7151 49.7977 18.4926C48.938 20.0001 40.4642 19.2476 37.7625 19.2476C37.1482 16.2301 32.3595 13.7151 30.2272 13.0876C28.3557 12.5351 26.172 12.3326 23.1017 11.0751Z" fill="#423023"/>
</svg>
